SplineFontDB: 3.2
FontName: Reijima-MediumItalic
FullName: Reijima Medium Italic
FamilyName: Reijima Medium
Weight: Medium
Copyright: Copyright (c) 2019 by Coji Morishita. All rights reserved.
Version: 1.000
ItalicAngle: -9
UnderlinePosition: -100
UnderlineWidth: 50
Ascent: 860
Descent: 140
InvalidEm: 0
sfntRevision: 0x00010000
LayerCount: 2
Layer: 0 1 "Back" 1
Layer: 1 1 "Fore" 0
XUID: [1021 531 -1996577725 12253913]
StyleMap: 0x0001
FSType: 8
OS2Version: 4
OS2_WeightWidthSlopeOnly: 0
OS2_UseTypoMetrics: 1
CreationTime: 1575364793
ModificationTime: 1707277307
PfmFamily: 81
TTFWeight: 500
TTFWidth: 5
LineGap: 0
VLineGap: 1000
Panose: 0 0 6 0 0 0 0 0 0 0
OS2TypoAscent: 960
OS2TypoAOffset: 0
OS2TypoDescent: -230
OS2TypoDOffset: 0
OS2TypoLinegap: 200
OS2WinAscent: 1060
OS2WinAOffset: 0
OS2WinDescent: 330
OS2WinDOffset: 0
HheadAscent: 1060
HheadAOffset: 0
HheadDescent: -330
HheadDOffset: 0
OS2SubXSize: 650
OS2SubYSize: 600
OS2SubXOff: 0
OS2SubYOff: 75
OS2SupXSize: 650
OS2SupYSize: 600
OS2SupXOff: 0
OS2SupYOff: 350
OS2StrikeYSize: 50
OS2StrikeYPos: 312
OS2CapHeight: 730
OS2XHeight: 520
OS2Vendor: 'M+  '
OS2CodePages: 20020193.00000000
OS2UnicodeRanges: 20000007.00060000.00000000.00000000
Lookup: 1 0 0 "'aalt' Access All Alternates in Latin lookup 0" { "'aalt' Access All Alternates in Latin lookup 0 subtable"  } ['aalt' ('DFLT' <'dflt' > 'latn' <'AZE ' 'CAT ' 'CRT ' 'KAZ ' 'MOL ' 'ROM ' 'TAT ' 'TRK ' 'dflt' > ) ]
Lookup: 3 0 0 "'aalt' Access All Alternates in Latin lookup 1" { "'aalt' Access All Alternates in Latin lookup 1 subtable"  } ['aalt' ('DFLT' <'dflt' > 'latn' <'AZE ' 'CAT ' 'CRT ' 'KAZ ' 'MOL ' 'ROM ' 'TAT ' 'TRK ' 'dflt' > ) ]
Lookup: 6 0 0 "'ccmp' Glyph Composition/Decomposition in Latin lookup 2" { "'ccmp' Glyph Composition/Decomposition in Latin lookup 2 contextual 0"  "'ccmp' Glyph Composition/Decomposition in Latin lookup 2 contextual 1"  } ['ccmp' ('DFLT' <'dflt' > 'latn' <'AZE ' 'CAT ' 'CRT ' 'KAZ ' 'MOL ' 'ROM ' 'TAT ' 'TRK ' 'dflt' > ) ]

StartChar: .notdef
Encoding: 65536 -1 0
Width: 477
Flags: W
LayerCount: 2
Fore
SplineSet
328 -140 m 1,0,-1
 17 -140 l 1,1,-1
 176 860 l 1,2,-1
 487 860 l 1,3,-1
 328 -140 l 1,0,-1
239 793 m 1,4,-1
 234 760 l 1,5,-1
 297 760 l 1,6,-1
 291 723 l 1,7,-1
 227 723 l 1,8,-1
 221 690 l 1,9,-1
 384 690 l 1,10,-1
 389 723 l 1,11,-1
 325 723 l 1,12,-1
 331 760 l 1,13,-1
 395 760 l 1,14,-1
 400 793 l 1,15,-1
 239 793 l 1,4,-1
217 664 m 1,16,-1
 201 560 l 1,17,-1
 364 560 l 1,18,-1
 369 594 l 1,19,-1
 304 594 l 1,20,-1
 315 664 l 1,21,-1
 217 664 l 1,16,-1
271 594 m 1,22,-1
 239 594 l 1,23,-1
 244 630 l 1,24,-1
 277 630 l 1,25,-1
 271 594 l 1,22,-1
197 533 m 1,26,-1
 191 500 l 1,27,-1
 256 500 l 1,28,-1
 250 463 l 1,29,-1
 185 463 l 1,30,-1
 180 430 l 1,31,-1
 278 430 l 1,32,-1
 289 500 l 1,33,-1
 354 500 l 1,34,-1
 359 533 l 1,35,-1
 197 533 l 1,26,-1
317 473 m 1,36,-1
 307 407 l 1,37,-1
 177 407 l 1,38,-1
 171 373 l 1,39,-1
 334 373 l 1,40,-1
 350 473 l 1,41,-1
 317 473 l 1,36,-1
232 351 m 1,42,-1
 224 295 l 1,43,-1
 257 295 l 1,44,-1
 261 318 l 1,45,-1
 293 318 l 1,46,-1
 285 271 l 1,47,-1
 187 271 l 1,48,-1
 200 351 l 1,49,-1
 168 351 l 1,50,-1
 150 238 l 1,51,-1
 313 238 l 1,52,-1
 330 351 l 1,53,-1
 232 351 l 1,42,-1
140 178 m 1,54,-1
 122 65 l 1,55,-1
 285 65 l 1,56,-1
 303 178 l 1,57,-1
 140 178 l 1,54,-1
258 98 m 1,58,-1
 160 98 l 1,59,-1
 167 145 l 1,60,-1
 265 145 l 1,61,-1
 258 98 l 1,58,-1
119 42 m 1,62,-1
 114 9 l 1,63,-1
 182 9 l 1,64,-1
 106 -38 l 1,65,-1
 101 -71 l 1,66,-1
 264 -71 l 1,67,-1
 269 -38 l 1,68,-1
 169 -38 l 1,69,-1
 245 9 l 1,70,-1
 276 9 l 1,71,-1
 281 42 l 1,72,-1
 119 42 l 1,62,-1
EndSplineSet
EndChar

StartChar: A
Encoding: 65 65 2
Width: 658
GlyphClass: 2
Flags: W
AnchorPoint: "Anchor-6" 292 730 basechar 0
AnchorPoint: "Anchor-5" 617 0 basechar 0
AnchorPoint: "Anchor-4" 292 0 basechar 0
LayerCount: 2
Fore
SplineSet
484 0 m 1,0,-1
 456 183 l 1,1,-1
 170 183 l 1,2,-1
 85 0 l 1,3,-1
 -34 0 l 1,4,-1
 327 730 l 1,5,-1
 474 730 l 1,6,-1
 603 0 l 1,7,-1
 484 0 l 1,0,-1
218 283 m 1,8,-1
 441 283 l 1,9,-1
 386 636 l 1,10,-1
 384 636 l 1,11,-1
 218 283 l 1,8,-1
EndSplineSet
Substitution2: "Single Substitution lookup 21 subtable" ordfeminine
Substitution2: "'aalt' Access All Alternates in Latin lookup 0 subtable" ordfeminine
EndChar

StartChar: uni1EAE
Encoding: 7854 7854 5
Width: 658
GlyphClass: 2
Flags: W
AnchorPoint: "Anchor-6" 292 730 basechar 0
AnchorPoint: "Anchor-5" 617 0 basechar 0
AnchorPoint: "Anchor-4" 292 0 basechar 0
LayerCount: 2
Fore
SplineSet
311.5 804.5 m 128,-1,1
 270 826 270 826 250 865 c 128,-1,2
 230 904 230 904 234 953 c 1,3,-1
 343 953 l 1,4,-1
 462 1150 l 1,5,-1
 599 1150 l 1,6,-1
 443 940 l 1,7,-1
 349 940 l 1,8,9
 352 869 352 869 422 869 c 0,10,11
 459 869 459 869 484.5 890.5 c 128,-1,12
 510 912 510 912 522 953 c 1,13,-1
 636 953 l 1,14,15
 625 904 625 904 592.5 865 c 128,-1,16
 560 826 560 826 512 804.5 c 128,-1,17
 464 783 464 783 408 783 c 256,18,0
 353 783 353 783 311.5 804.5 c 128,-1,1
484 0 m 1,19,-1
 456 183 l 1,20,-1
 170 183 l 1,21,-1
 85 0 l 1,22,-1
 -34 0 l 1,23,-1
 327 730 l 1,24,-1
 474 730 l 1,25,-1
 603 0 l 1,26,-1
 484 0 l 1,19,-1
218 283 m 1,27,-1
 441 283 l 1,28,-1
 386 636 l 1,29,-1
 384 636 l 1,30,-1
 218 283 l 1,27,-1
EndSplineSet
EndChar

StartChar: uni1EB0
Encoding: 7856 7856 7
Width: 658
GlyphClass: 2
Flags: W
AnchorPoint: "Anchor-6" 292 730 basechar 0
AnchorPoint: "Anchor-5" 617 0 basechar 0
AnchorPoint: "Anchor-4" 292 0 basechar 0
LayerCount: 2
Fore
SplineSet
518 940 m 1,1,-1
 424 940 l 1,2,-1
 334 1150 l 1,3,-1
 471 1150 l 1,4,-1
 527 953 l 1,5,-1
 636 953 l 1,6,7
 625 904 625 904 592.5 865 c 128,-1,8
 560 826 560 826 512 804.5 c 128,-1,9
 464 783 464 783 408 783 c 256,10,11
 352 783 352 783 311 804.5 c 128,-1,12
 270 826 270 826 250 865 c 128,-1,13
 230 904 230 904 234 953 c 1,14,-1
 349 953 l 1,15,16
 347 912 347 912 366 890.5 c 128,-1,17
 385 869 385 869 422 869 c 0,18,0
 492 869 492 869 518 940 c 1,1,-1
484 0 m 1,19,-1
 456 183 l 1,20,-1
 170 183 l 1,21,-1
 85 0 l 1,22,-1
 -34 0 l 1,23,-1
 327 730 l 1,24,-1
 474 730 l 1,25,-1
 603 0 l 1,26,-1
 484 0 l 1,19,-1
218 283 m 1,27,-1
 441 283 l 1,28,-1
 386 636 l 1,29,-1
 384 636 l 1,30,-1
 218 283 l 1,27,-1
EndSplineSet
EndChar

StartChar: uni1EB2
Encoding: 7858 7858 8
Width: 658
GlyphClass: 2
Flags: W
AnchorPoint: "Anchor-6" 293 1133 basechar 0
AnchorPoint: "Anchor-5" 617 0 basechar 0
AnchorPoint: "Anchor-4" 292 0 basechar 0
LayerCount: 2
Fore
SplineSet
518 943 m 1,1,-1
 463 943 l 1,2,3
 470 957 470 957 477 976.5 c 128,-1,4
 484 996 484 996 486 1009 c 0,5,6
 489 1031 489 1031 476.5 1038.5 c 128,-1,7
 464 1046 464 1046 426 1046 c 0,8,9
 363 1046 363 1046 301 1028 c 1,10,-1
 305 1115 l 1,11,12
 381 1133 381 1133 465 1133 c 0,13,14
 526 1133 526 1133 558 1125.5 c 128,-1,15
 590 1118 590 1118 601.5 1100.5 c 128,-1,16
 613 1083 613 1083 608 1050 c 0,17,18
 605 1029 605 1029 596 1002 c 128,-1,19
 587 975 587 975 576 953 c 1,20,-1
 636 953 l 1,21,22
 625 904 625 904 592.5 865 c 128,-1,23
 560 826 560 826 512 804.5 c 128,-1,24
 464 783 464 783 408 783 c 256,25,26
 352 783 352 783 311 804.5 c 128,-1,27
 270 826 270 826 250 865 c 128,-1,28
 230 904 230 904 234 953 c 1,29,-1
 349 953 l 1,30,31
 347 912 347 912 366 890.5 c 128,-1,32
 385 869 385 869 422 869 c 0,33,0
 493 869 493 869 518 943 c 1,1,-1
484 0 m 1,34,-1
 456 183 l 1,35,-1
 170 183 l 1,36,-1
 85 0 l 1,37,-1
 -34 0 l 1,38,-1
 327 730 l 1,39,-1
 474 730 l 1,40,-1
 603 0 l 1,41,-1
 484 0 l 1,34,-1
218 283 m 1,42,-1
 441 283 l 1,43,-1
 386 636 l 1,44,-1
 384 636 l 1,45,-1
 218 283 l 1,42,-1
EndSplineSet
EndChar

StartChar: uni1EA4
Encoding: 7844 7844 11
Width: 658
GlyphClass: 2
Flags: W
AnchorPoint: "Anchor-6" 292 730 basechar 0
AnchorPoint: "Anchor-5" 617 0 basechar 0
AnchorPoint: "Anchor-4" 292 0 basechar 0
LayerCount: 2
Fore
SplineSet
431 930 m 1,0,-1
 317 770 l 1,1,-1
 190 770 l 1,2,-1
 345 980 l 1,3,-1
 531 980 l 1,4,-1
 639 1160 l 1,5,-1
 776 1160 l 1,6,-1
 620 950 l 1,7,-1
 547 950 l 1,8,-1
 623 770 l 1,9,-1
 496 770 l 1,10,-1
 433 930 l 1,11,-1
 431 930 l 1,0,-1
484 0 m 1,12,-1
 456 183 l 1,13,-1
 170 183 l 1,14,-1
 85 0 l 1,15,-1
 -34 0 l 1,16,-1
 327 730 l 1,17,-1
 474 730 l 1,18,-1
 603 0 l 1,19,-1
 484 0 l 1,12,-1
218 283 m 1,20,-1
 441 283 l 1,21,-1
 386 636 l 1,22,-1
 384 636 l 1,23,-1
 218 283 l 1,20,-1
EndSplineSet
EndChar

StartChar: uni1EA6
Encoding: 7846 7846 13
Width: 658
GlyphClass: 2
Flags: W
AnchorPoint: "Anchor-6" 292 730 basechar 0
AnchorPoint: "Anchor-5" 617 0 basechar 0
AnchorPoint: "Anchor-4" 292 0 basechar 0
LayerCount: 2
Fore
SplineSet
322 950 m 1,0,-1
 250 950 l 1,1,-1
 160 1160 l 1,2,-1
 298 1160 l 1,3,-1
 348 980 l 1,4,-1
 534 980 l 1,5,-1
 623 770 l 1,6,-1
 496 770 l 1,7,-1
 433 930 l 1,8,-1
 431 930 l 1,9,-1
 317 770 l 1,10,-1
 190 770 l 1,11,-1
 322 950 l 1,0,-1
484 0 m 1,12,-1
 456 183 l 1,13,-1
 170 183 l 1,14,-1
 85 0 l 1,15,-1
 -34 0 l 1,16,-1
 327 730 l 1,17,-1
 474 730 l 1,18,-1
 603 0 l 1,19,-1
 484 0 l 1,12,-1
218 283 m 1,20,-1
 441 283 l 1,21,-1
 386 636 l 1,22,-1
 384 636 l 1,23,-1
 218 283 l 1,20,-1
EndSplineSet
EndChar

StartChar: uni1EA8
Encoding: 7848 7848 14
Width: 658
GlyphClass: 2
Flags: W
AnchorPoint: "Anchor-6" 342 1138 basechar 0
AnchorPoint: "Anchor-5" 617 0 basechar 0
AnchorPoint: "Anchor-4" 292 0 basechar 0
LayerCount: 2
Fore
SplineSet
526 980 m 1,0,1
 534 1006 534 1006 535 1014 c 0,2,3
 538 1036 538 1036 525.5 1043.5 c 128,-1,4
 513 1051 513 1051 474 1051 c 0,5,6
 411 1051 411 1051 350 1033 c 1,7,-1
 354 1120 l 1,8,9
 430 1138 430 1138 514 1138 c 0,10,11
 575 1138 575 1138 607 1130.5 c 128,-1,12
 639 1123 639 1123 650.5 1105.5 c 128,-1,13
 662 1088 662 1088 656 1055 c 0,14,15
 652 1031 652 1031 642 1001 c 128,-1,16
 632 971 632 971 620 948 c 1,17,-1
 547 948 l 1,18,-1
 623 770 l 1,19,-1
 496 770 l 1,20,-1
 433 930 l 1,21,-1
 431 930 l 1,22,-1
 317 770 l 1,23,-1
 190 770 l 1,24,-1
 345 980 l 1,25,-1
 526 980 l 1,0,1
484 0 m 1,26,-1
 456 183 l 1,27,-1
 170 183 l 1,28,-1
 85 0 l 1,29,-1
 -34 0 l 1,30,-1
 327 730 l 1,31,-1
 474 730 l 1,32,-1
 603 0 l 1,33,-1
 484 0 l 1,26,-1
218 283 m 1,34,-1
 441 283 l 1,35,-1
 386 636 l 1,36,-1
 384 636 l 1,37,-1
 218 283 l 1,34,-1
EndSplineSet
EndChar

StartChar: Aogonek
Encoding: 260 260 23
Width: 665
GlyphClass: 2
Flags: W
AnchorPoint: "Anchor-6" 292 730 basechar 0
AnchorPoint: "Anchor-5" 617 0 basechar 0
AnchorPoint: "Anchor-4" 292 0 basechar 0
LayerCount: 2
Fore
SplineSet
659 -196 m 1,0,1
 606 -217 606 -217 543 -217 c 0,2,3
 468 -217 468 -217 431 -189.5 c 128,-1,4
 394 -162 394 -162 402 -112 c 0,5,6
 412 -51 412 -51 483 5 c 1,7,-1
 456 183 l 1,8,-1
 170 183 l 1,9,-1
 85 0 l 1,10,-1
 -34 0 l 1,11,-1
 327 730 l 1,12,-1
 474 730 l 1,13,-1
 603 0 l 1,14,15
 560 -24 560 -24 534 -48.5 c 128,-1,16
 508 -73 508 -73 505 -93 c 0,17,18
 502 -111 502 -111 517.5 -120.5 c 128,-1,19
 533 -130 533 -130 566 -130 c 0,20,21
 613 -130 613 -130 656 -111 c 1,22,-1
 659 -196 l 1,0,1
218 283 m 1,23,-1
 441 283 l 1,24,-1
 386 636 l 1,25,-1
 384 636 l 1,26,-1
 218 283 l 1,23,-1
EndSplineSet
EndChar

StartChar: Aring
Encoding: 197 197 24
Width: 658
GlyphClass: 2
Flags: W
AnchorPoint: "Anchor-6" 292 910 basechar 0
AnchorPoint: "Anchor-5" 617 0 basechar 0
AnchorPoint: "Anchor-4" 292 0 basechar 0
LayerCount: 2
Fore
SplineSet
456 183 m 1,0,-1
 170 183 l 1,1,-1
 85 0 l 1,2,-1
 -34 0 l 1,3,-1
 321 718 l 1,4,5
 293 739 293 739 279.5 772 c 128,-1,6
 266 805 266 805 272 845 c 0,7,8
 278 886 278 886 303.5 920.5 c 128,-1,9
 329 955 329 955 366 975 c 128,-1,10
 403 995 403 995 443 995 c 256,11,12
 483 995 483 995 513.5 975 c 128,-1,13
 544 955 544 955 558.5 920.5 c 128,-1,14
 573 886 573 886 566 845 c 0,15,16
 560 805 560 805 535.5 771 c 128,-1,17
 511 737 511 737 475 717 c 1,18,-1
 603 0 l 1,19,-1
 484 0 l 1,20,-1
 456 183 l 1,0,-1
378.5 894.5 m 128,-1,22
 355 874 355 874 351 845 c 256,23,24
 346 816 346 816 363 795.5 c 128,-1,25
 380 775 380 775 408 775 c 256,26,27
 436 775 436 775 459.5 795.5 c 128,-1,28
 483 816 483 816 488 845 c 256,29,30
 493 874 493 874 476 894.5 c 128,-1,31
 459 915 459 915 430 915 c 256,32,21
 402 915 402 915 378.5 894.5 c 128,-1,22
218 283 m 1,33,-1
 441 283 l 1,34,-1
 386 636 l 1,35,-1
 384 636 l 1,36,-1
 218 283 l 1,33,-1
EndSplineSet
EndChar

StartChar: Aringacute
Encoding: 506 506 25
Width: 658
GlyphClass: 2
Flags: W
AnchorPoint: "Anchor-6" 292 910 basechar 0
AnchorPoint: "Anchor-5" 617 0 basechar 0
AnchorPoint: "Anchor-4" 292 0 basechar 0
LayerCount: 2
Fore
SplineSet
456 183 m 1,0,-1
 170 183 l 1,1,-1
 85 0 l 1,2,-1
 -34 0 l 1,3,-1
 321 718 l 1,4,5
 293 739 293 739 279.5 772 c 128,-1,6
 266 805 266 805 272 845 c 0,7,8
 277 879 277 879 296.5 909 c 128,-1,9
 316 939 316 939 343 960 c 1,10,-1
 463 1160 l 1,11,-1
 600 1160 l 1,12,-1
 476 991 l 1,13,14
 523 980 523 980 549 939 c 128,-1,15
 575 898 575 898 566 845 c 0,16,17
 560 805 560 805 535.5 771 c 128,-1,18
 511 737 511 737 475 717 c 1,19,-1
 603 0 l 1,20,-1
 484 0 l 1,21,-1
 456 183 l 1,0,-1
475.5 894.5 m 128,-1,23
 459 915 459 915 430 915 c 256,24,25
 402 915 402 915 378.5 894.5 c 128,-1,26
 355 874 355 874 351 845 c 256,27,28
 346 816 346 816 363 795.5 c 128,-1,29
 380 775 380 775 408 775 c 256,30,31
 436 775 436 775 459.5 795.5 c 128,-1,32
 483 816 483 816 488 845 c 256,33,22
 492 874 492 874 475.5 894.5 c 128,-1,23
218 283 m 1,34,-1
 441 283 l 1,35,-1
 386 636 l 1,36,-1
 384 636 l 1,37,-1
 218 283 l 1,34,-1
EndSplineSet
EndChar

StartChar: AE
Encoding: 198 198 27
Width: 835
GlyphClass: 2
Flags: W
AnchorPoint: "Anchor-6" 415 730 basechar 0
AnchorPoint: "Anchor-4" 415 0 basechar 0
LayerCount: 2
Fore
SplineSet
832 632 m 1,0,-1
 563 632 l 1,1,-1
 531 430 l 1,2,-1
 781 430 l 1,3,-1
 766 335 l 1,4,-1
 516 335 l 1,5,-1
 478 98 l 1,6,-1
 748 98 l 1,7,-1
 732 0 l 1,8,-1
 355 0 l 1,9,-1
 384 183 l 1,10,-1
 184 183 l 1,11,-1
 85 0 l 1,12,-1
 -34 0 l 1,13,-1
 377 730 l 1,14,-1
 848 730 l 1,15,-1
 832 632 l 1,0,-1
238 283 m 1,16,-1
 400 283 l 1,17,-1
 456 640 l 1,18,-1
 432 640 l 1,19,-1
 238 283 l 1,16,-1
EndSplineSet
EndChar

StartChar: B
Encoding: 66 66 29
Width: 624
Flags: W
LayerCount: 2
Fore
SplineSet
558 328 m 128,-1,1
 592 282 592 282 580 205 c 0,2,3
 564 102 564 102 480 51 c 128,-1,4
 396 0 396 0 243 0 c 2,5,-1
 28 0 l 1,6,-1
 143 730 l 1,7,-1
 354 730 l 2,8,9
 495 730 495 730 557 686 c 128,-1,10
 619 642 619 642 605 553 c 0,11,12
 595 488 595 488 553 445.5 c 128,-1,13
 511 403 511 403 445 389 c 1,14,-1
 445 387 l 1,15,0
 524 374 524 374 558 328 c 128,-1,1
236 632 m 1,16,-1
 204 430 l 1,17,-1
 312 430 l 2,18,19
 398 430 398 430 442 455.5 c 128,-1,20
 486 481 486 481 495 534 c 0,21,22
 503 586 503 586 467.5 609 c 128,-1,23
 432 632 432 632 343 632 c 2,24,-1
 236 632 l 1,16,-1
411 126.5 m 128,-1,26
 462 155 462 155 472 216 c 256,27,28
 482 277 482 277 439 306 c 128,-1,29
 396 335 396 335 296 335 c 2,30,-1
 189 335 l 1,31,-1
 151 98 l 1,32,-1
 259 98 l 2,33,25
 360 98 360 98 411 126.5 c 128,-1,26
EndSplineSet
EndChar

StartChar: C
Encoding: 67 67 30
Width: 671
GlyphClass: 2
Flags: W
AnchorPoint: "Anchor-6" 335 730 basechar 0
AnchorPoint: "Anchor-4" 335 0 basechar 0
LayerCount: 2
Fore
SplineSet
162 35 m 128,-1,1
 89 80 89 80 60 164.5 c 128,-1,2
 31 249 31 249 49 365 c 256,3,4
 67 481 67 481 123.5 565.5 c 128,-1,5
 180 650 180 650 267 695 c 128,-1,6
 354 740 354 740 464 740 c 0,7,8
 599 740 599 740 689 674 c 1,9,-1
 630 585 l 1,10,11
 551 640 551 640 453 640 c 0,12,13
 336 640 336 640 258 566.5 c 128,-1,14
 180 493 180 493 160 365 c 256,15,16
 140 237 140 237 195 163.5 c 128,-1,17
 250 90 250 90 366 90 c 0,18,19
 464 90 464 90 560 145 c 1,20,-1
 591 56 l 1,21,22
 481 -10 481 -10 346 -10 c 0,23,0
 235 -10 235 -10 162 35 c 128,-1,1
EndSplineSet
EndChar

StartChar: Ccedilla
Encoding: 199 199 33
Width: 671
GlyphClass: 2
Flags: W
AnchorPoint: "Anchor-6" 335 730 basechar 0
AnchorPoint: "Anchor-4" 335 0 basechar 0
LayerCount: 2
Fore
SplineSet
591 56 m 1,0,1
 509 6 509 6 408 -6 c 1,2,3
 451 -58 451 -58 442 -112 c 0,4,5
 434 -162 434 -162 388.5 -189.5 c 128,-1,6
 343 -217 343 -217 268 -217 c 0,7,8
 205 -217 205 -217 158 -196 c 1,9,-1
 188 -111 l 1,10,11
 225 -130 225 -130 273 -130 c 0,12,13
 305 -130 305 -130 323.5 -120.5 c 128,-1,14
 342 -111 342 -111 345 -93 c 0,15,16
 348 -74 348 -74 332.5 -51 c 128,-1,17
 317 -28 317 -28 285 -6 c 1,18,19
 149 11 149 11 86.5 108.5 c 128,-1,20
 24 206 24 206 49 365 c 0,21,22
 67 481 67 481 123.5 565.5 c 128,-1,23
 180 650 180 650 267 695 c 128,-1,24
 354 740 354 740 464 740 c 0,25,26
 599 740 599 740 689 674 c 1,27,-1
 630 585 l 1,28,29
 551 640 551 640 453 640 c 0,30,31
 336 640 336 640 258 566.5 c 128,-1,32
 180 493 180 493 160 365 c 256,33,34
 140 237 140 237 195 163.5 c 128,-1,35
 250 90 250 90 366 90 c 0,36,37
 464 90 464 90 560 145 c 1,38,-1
 591 56 l 1,0,1
EndSplineSet
EndChar

StartChar: D
Encoding: 68 68 36
Width: 662
GlyphClass: 2
Flags: W
AnchorPoint: "Anchor-6" 298 730 basechar 0
AnchorPoint: "Anchor-4" 298 0 basechar 0
LayerCount: 2
Fore
SplineSet
335 730 m 2,0,1
 519 730 519 730 594 640.5 c 128,-1,2
 669 551 669 551 639 365 c 256,3,4
 610 179 610 179 506.5 89.5 c 128,-1,5
 403 0 403 0 219 0 c 2,6,-1
 28 0 l 1,7,-1
 143 730 l 1,8,-1
 335 730 l 2,0,1
439.5 162.5 m 128,-1,10
 507 225 507 225 530 365 c 256,11,12
 552 505 552 505 504 567.5 c 128,-1,13
 456 630 456 630 326 630 c 2,14,-1
 235 630 l 1,15,-1
 151 100 l 1,16,-1
 242 100 l 2,17,9
 372 100 372 100 439.5 162.5 c 128,-1,10
EndSplineSet
EndChar

StartChar: Eth
Encoding: 208 208 38
Width: 719
GlyphClass: 2
Flags: W
CounterMasks: 1 e0
AnchorPoint: "Anchor-6" 352 730 basechar 0
AnchorPoint: "Anchor-4" 352 0 basechar 0
LayerCount: 2
Fore
SplineSet
650 640.5 m 128,-1,1
 725 551 725 551 696 365 c 256,2,3
 667 179 667 179 563.5 89.5 c 128,-1,4
 460 0 460 0 276 0 c 2,5,-1
 85 0 l 1,6,-1
 135 320 l 1,7,-1
 29 320 l 1,8,-1
 44 410 l 1,9,-1
 149 410 l 1,10,-1
 200 730 l 1,11,-1
 391 730 l 2,12,0
 575 730 575 730 650 640.5 c 128,-1,1
496.5 162.5 m 128,-1,14
 564 225 564 225 586 365 c 256,15,16
 608 505 608 505 560.5 567.5 c 128,-1,17
 513 630 513 630 382 630 c 2,18,-1
 292 630 l 1,19,-1
 257 410 l 1,20,-1
 453 410 l 1,21,-1
 439 320 l 1,22,-1
 243 320 l 1,23,-1
 208 100 l 1,24,-1
 298 100 l 2,25,13
 429 100 429 100 496.5 162.5 c 128,-1,14
EndSplineSet
EndChar

StartChar: E
Encoding: 69 69 42
Width: 576
GlyphClass: 2
Flags: W
AnchorPoint: "Anchor-6" 265 730 basechar 0
AnchorPoint: "Anchor-5" 490 0 basechar 0
AnchorPoint: "Anchor-4" 265 0 basechar 0
LayerCount: 2
Fore
SplineSet
143 730 m 1,0,-1
 589 730 l 1,1,-1
 574 632 l 1,2,-1
 236 632 l 1,3,-1
 204 430 l 1,4,-1
 522 430 l 1,5,-1
 507 335 l 1,6,-1
 189 335 l 1,7,-1
 151 98 l 1,8,-1
 489 98 l 1,9,-1
 474 0 l 1,10,-1
 28 0 l 1,11,-1
 143 730 l 1,0,-1
EndSplineSet
EndChar

StartChar: uni1EBE
Encoding: 7870 7870 47
Width: 583
GlyphClass: 2
Flags: W
AnchorPoint: "Anchor-6" 265 730 basechar 0
AnchorPoint: "Anchor-5" 490 0 basechar 0
AnchorPoint: "Anchor-4" 265 0 basechar 0
LayerCount: 2
Fore
SplineSet
400 930 m 1,0,-1
 286 770 l 1,1,-1
 159 770 l 1,2,-1
 313 980 l 1,3,-1
 500 980 l 1,4,-1
 607 1160 l 1,5,-1
 745 1160 l 1,6,-1
 589 950 l 1,7,-1
 515 950 l 1,8,-1
 592 770 l 1,9,-1
 464 770 l 1,10,-1
 401 930 l 1,11,-1
 400 930 l 1,0,-1
28 0 m 1,12,-1
 143 730 l 1,13,-1
 589 730 l 1,14,-1
 574 632 l 1,15,-1
 236 632 l 1,16,-1
 204 430 l 1,17,-1
 522 430 l 1,18,-1
 507 335 l 1,19,-1
 189 335 l 1,20,-1
 151 98 l 1,21,-1
 489 98 l 1,22,-1
 474 0 l 1,23,-1
 28 0 l 1,12,-1
EndSplineSet
EndChar

StartChar: uni1EC0
Encoding: 7872 7872 49
Width: 582
GlyphClass: 2
Flags: W
AnchorPoint: "Anchor-6" 265 730 basechar 0
AnchorPoint: "Anchor-5" 490 0 basechar 0
AnchorPoint: "Anchor-4" 265 0 basechar 0
LayerCount: 2
Fore
SplineSet
297 950 m 1,0,-1
 224 950 l 1,1,-1
 135 1160 l 1,2,-1
 272 1160 l 1,3,-1
 323 980 l 1,4,-1
 508 980 l 1,5,-1
 598 770 l 1,6,-1
 470 770 l 1,7,-1
 407 930 l 1,8,-1
 405 930 l 1,9,-1
 292 770 l 1,10,-1
 164 770 l 1,11,-1
 297 950 l 1,0,-1
580 632 m 1,12,-1
 242 632 l 1,13,-1
 210 430 l 1,14,-1
 528 430 l 1,15,-1
 513 335 l 1,16,-1
 195 335 l 1,17,-1
 157 98 l 1,18,-1
 495 98 l 1,19,-1
 480 0 l 1,20,-1
 34 0 l 1,21,-1
 149 730 l 1,22,-1
 595 730 l 1,23,-1
 580 632 l 1,12,-1
EndSplineSet
EndChar

StartChar: uni1EC2
Encoding: 7874 7874 50
Width: 576
GlyphClass: 2
Flags: W
AnchorPoint: "Anchor-6" 315 1138 basechar 0
AnchorPoint: "Anchor-5" 490 0 basechar 0
AnchorPoint: "Anchor-4" 265 0 basechar 0
LayerCount: 2
Fore
SplineSet
495 980 m 1,0,1
 503 1006 503 1006 504 1014 c 0,2,3
 507 1036 507 1036 494 1043.5 c 128,-1,4
 481 1051 481 1051 443 1051 c 0,5,6
 380 1051 380 1051 319 1033 c 1,7,-1
 323 1120 l 1,8,9
 399 1138 399 1138 482 1138 c 0,10,11
 543 1138 543 1138 575 1130.5 c 128,-1,12
 607 1123 607 1123 618.5 1105.5 c 128,-1,13
 630 1088 630 1088 625 1055 c 0,14,15
 621 1031 621 1031 611 1001 c 128,-1,16
 601 971 601 971 589 948 c 1,17,-1
 516 948 l 1,18,-1
 592 770 l 1,19,-1
 464 770 l 1,20,-1
 401 930 l 1,21,-1
 400 930 l 1,22,-1
 286 770 l 1,23,-1
 159 770 l 1,24,-1
 313 980 l 1,25,-1
 495 980 l 1,0,1
574 632 m 1,26,-1
 236 632 l 1,27,-1
 204 430 l 1,28,-1
 522 430 l 1,29,-1
 507 335 l 1,30,-1
 189 335 l 1,31,-1
 151 98 l 1,32,-1
 489 98 l 1,33,-1
 474 0 l 1,34,-1
 28 0 l 1,35,-1
 143 730 l 1,36,-1
 589 730 l 1,37,-1
 574 632 l 1,26,-1
EndSplineSet
EndChar

StartChar: Eogonek
Encoding: 280 280 60
Width: 583
GlyphClass: 2
Flags: W
AnchorPoint: "Anchor-6" 265 730 basechar 0
AnchorPoint: "Anchor-5" 490 0 basechar 0
AnchorPoint: "Anchor-4" 265 0 basechar 0
LayerCount: 2
Fore
SplineSet
530 -196 m 1,0,1
 477 -217 477 -217 414 -217 c 0,2,3
 339 -217 339 -217 302 -189.5 c 128,-1,4
 265 -162 265 -162 273 -112 c 0,5,6
 282 -53 282 -53 348 0 c 1,7,-1
 28 0 l 1,8,-1
 143 730 l 1,9,-1
 589 730 l 1,10,-1
 574 632 l 1,11,-1
 236 632 l 1,12,-1
 204 430 l 1,13,-1
 522 430 l 1,14,-1
 507 335 l 1,15,-1
 189 335 l 1,16,-1
 151 98 l 1,17,-1
 489 98 l 1,18,-1
 474 0 l 1,19,20
 431 -24 431 -24 405 -48.5 c 128,-1,21
 379 -73 379 -73 376 -93 c 0,22,23
 373 -111 373 -111 388.5 -120.5 c 128,-1,24
 404 -130 404 -130 436 -130 c 0,25,26
 483 -130 483 -130 527 -111 c 1,27,-1
 530 -196 l 1,0,1
EndSplineSet
EndChar

StartChar: F
Encoding: 70 70 62
Width: 566
Flags: W
LayerCount: 2
Fore
SplineSet
143 730 m 1,0,-1
 589 730 l 1,1,-1
 573 630 l 1,2,-1
 235 630 l 1,3,-1
 201 415 l 1,4,-1
 520 415 l 1,5,-1
 504 317 l 1,6,-1
 186 317 l 1,7,-1
 136 0 l 1,8,-1
 28 0 l 1,9,-1
 143 730 l 1,0,-1
EndSplineSet
EndChar

StartChar: G
Encoding: 71 71 63
Width: 749
GlyphClass: 2
Flags: W
AnchorPoint: "Anchor-6" 360 730 basechar 0
AnchorPoint: "Anchor-4" 360 0 basechar 0
LayerCount: 2
Fore
SplineSet
711 427 m 1,0,-1
 651 47 l 1,1,2
 593 20 593 20 519.5 5 c 128,-1,3
 446 -10 446 -10 374 -10 c 0,4,5
 254 -10 254 -10 175 34.5 c 128,-1,6
 96 79 96 79 63.5 163.5 c 128,-1,7
 31 248 31 248 49 365 c 256,8,9
 68 482 68 482 127.5 566.5 c 128,-1,10
 187 651 187 651 280 695.5 c 128,-1,11
 373 740 373 740 493 740 c 0,12,13
 638 740 638 740 725 677 c 1,14,-1
 668 591 l 1,15,16
 587 642 587 642 477 642 c 0,17,18
 346 642 346 642 263.5 570 c 128,-1,19
 181 498 181 498 160 365 c 256,20,21
 139 232 139 232 198.5 160 c 128,-1,22
 258 88 258 88 389 88 c 0,23,24
 477 88 477 88 554 116 c 1,25,-1
 588 332 l 1,26,-1
 362 332 l 1,27,-1
 378 427 l 1,28,-1
 711 427 l 1,0,-1
EndSplineSet
EndChar

StartChar: H
Encoding: 72 72 69
Width: 689
GlyphClass: 2
Flags: W
AnchorPoint: "Anchor-6" 313 730 basechar 0
AnchorPoint: "Anchor-4" 313 0 basechar 0
LayerCount: 2
Fore
SplineSet
580 730 m 1,0,-1
 687 730 l 1,1,-1
 572 0 l 1,2,-1
 464 0 l 1,3,-1
 517 335 l 1,4,-1
 189 335 l 1,5,-1
 136 0 l 1,6,-1
 28 0 l 1,7,-1
 143 730 l 1,8,-1
 251 730 l 1,9,-1
 204 435 l 1,10,-1
 533 435 l 1,11,-1
 580 730 l 1,0,-1
EndSplineSet
EndChar

StartChar: Hbar
Encoding: 294 294 70
Width: 776
GlyphClass: 2
Flags: W
AnchorPoint: "Anchor-6" 353 730 basechar 0
AnchorPoint: "Anchor-4" 353 0 basechar 0
LayerCount: 2
Fore
SplineSet
807 641 m 1,0,-1
 793 551 l 1,1,-1
 702 551 l 1,2,-1
 615 0 l 1,3,-1
 507 0 l 1,4,-1
 560 335 l 1,5,-1
 231 335 l 1,6,-1
 178 0 l 1,7,-1
 71 0 l 1,8,-1
 158 551 l 1,9,-1
 68 551 l 1,10,-1
 82 641 l 1,11,-1
 172 641 l 1,12,-1
 186 730 l 1,13,-1
 294 730 l 1,14,-1
 280 641 l 1,15,-1
 608 641 l 1,16,-1
 622 730 l 1,17,-1
 730 730 l 1,18,-1
 716 641 l 1,19,-1
 807 641 l 1,0,-1
576 435 m 1,20,-1
 594 551 l 1,21,-1
 266 551 l 1,22,-1
 247 435 l 1,23,-1
 576 435 l 1,20,-1
EndSplineSet
EndChar

StartChar: I
Encoding: 73 73 72
Width: 271
GlyphClass: 2
Flags: W
AnchorPoint: "Anchor-6" 100 730 basechar 0
AnchorPoint: "Anchor-5" 157 0 basechar 0
AnchorPoint: "Anchor-4" 100 0 basechar 0
LayerCount: 2
Fore
SplineSet
151 730 m 1,0,-1
 262 730 l 1,1,-1
 147 0 l 1,2,-1
 35 0 l 1,3,-1
 151 730 l 1,0,-1
EndSplineSet
EndChar

StartChar: Iogonek
Encoding: 302 302 84
Width: 283
GlyphClass: 2
Flags: W
AnchorPoint: "Anchor-6" 100 730 basechar 0
AnchorPoint: "Anchor-5" 157 0 basechar 0
AnchorPoint: "Anchor-4" 100 0 basechar 0
LayerCount: 2
Fore
SplineSet
208 -196 m 1,0,1
 155 -217 155 -217 92 -217 c 0,2,3
 17 -217 17 -217 -20 -189.5 c 128,-1,4
 -57 -162 -57 -162 -49 -112 c 0,5,6
 -39 -47 -39 -47 42 12 c 1,7,-1
 156 730 l 1,8,-1
 268 730 l 1,9,-1
 152 0 l 1,10,11
 109 -24 109 -24 83 -48.5 c 128,-1,12
 57 -73 57 -73 54 -93 c 0,13,14
 51 -111 51 -111 66.5 -120.5 c 128,-1,15
 82 -130 82 -130 115 -130 c 0,16,17
 162 -130 162 -130 205 -111 c 1,18,-1
 208 -196 l 1,0,1
EndSplineSet
EndChar

StartChar: J
Encoding: 74 74 86
Width: 550
GlyphClass: 2
Flags: W
AnchorPoint: "Anchor-6" 239 730 basechar 0
AnchorPoint: "Anchor-4" 239 0 basechar 0
LayerCount: 2
Fore
SplineSet
-31 45 m 1,1,-1
 21 138 l 1,2,3
 100 90 100 90 186 90 c 0,4,5
 266 90 266 90 312 136.5 c 128,-1,6
 358 183 358 183 373 280 c 2,7,-1
 444 730 l 1,8,-1
 555 730 l 1,9,-1
 484 280 l 2,10,11
 460 131 460 131 386.5 60.5 c 128,-1,12
 313 -10 313 -10 180 -10 c 0,13,0
 56 -10 56 -10 -31 45 c 1,1,-1
EndSplineSet
EndChar

StartChar: K
Encoding: 75 75 88
Width: 634
GlyphClass: 2
Flags: W
AnchorPoint: "Anchor-6" 265 730 basechar 0
AnchorPoint: "Anchor-4" 265 0 basechar 0
LayerCount: 2
Fore
SplineSet
143 730 m 1,0,-1
 251 730 l 1,1,-1
 202 421 l 1,2,-1
 204 421 l 1,3,-1
 544 730 l 1,4,-1
 678 730 l 1,5,-1
 298 385 l 1,6,-1
 572 0 l 1,7,-1
 438 0 l 1,8,-1
 193 350 l 1,9,-1
 191 350 l 1,10,-1
 136 0 l 1,11,-1
 28 0 l 1,12,-1
 143 730 l 1,0,-1
EndSplineSet
EndChar

StartChar: L
Encoding: 76 76 90
Width: 566
GlyphClass: 2
Flags: W
AnchorPoint: "Anchor-7" 521 730 basechar 0
AnchorPoint: "Anchor-6" 248 730 basechar 0
AnchorPoint: "Anchor-4" 248 0 basechar 0
LayerCount: 2
Fore
SplineSet
143 730 m 1,0,-1
 254 730 l 1,1,-1
 154 100 l 1,2,-1
 504 100 l 1,3,-1
 488 0 l 1,4,-1
 28 0 l 1,5,-1
 143 730 l 1,0,-1
EndSplineSet
EndChar

StartChar: Lslash
Encoding: 321 321 97
Width: 658
GlyphClass: 2
Flags: W
AnchorPoint: "Anchor-7" 610 730 basechar 0
AnchorPoint: "Anchor-6" 337 730 basechar 0
AnchorPoint: "Anchor-4" 337 0 basechar 0
LayerCount: 2
Fore
SplineSet
247 100 m 1,0,-1
 596 100 l 1,1,-1
 581 0 l 1,2,-1
 120 0 l 1,3,-1
 166 291 l 1,4,-1
 36 239 l 1,5,-1
 14 323 l 1,6,-1
 182 390 l 1,7,-1
 236 730 l 1,8,-1
 346 730 l 1,9,-1
 300 438 l 1,10,-1
 433 491 l 1,11,-1
 455 407 l 1,12,-1
 284 339 l 1,13,-1
 247 100 l 1,0,-1
EndSplineSet
EndChar

StartChar: M
Encoding: 77 77 98
Width: 841
Flags: W
LayerCount: 2
Fore
SplineSet
143 730 m 1,0,-1
 281 730 l 1,1,-1
 420 283 l 1,2,-1
 422 283 l 1,3,-1
 702 730 l 1,4,-1
 839 730 l 1,5,-1
 724 0 l 1,6,-1
 616 0 l 1,7,-1
 704 555 l 1,8,-1
 702 555 l 1,9,-1
 451 155 l 1,10,-1
 349 155 l 1,11,-1
 225 555 l 1,12,-1
 224 555 l 1,13,-1
 136 0 l 1,14,-1
 28 0 l 1,15,-1
 143 730 l 1,0,-1
EndSplineSet
EndChar

StartChar: N
Encoding: 78 78 99
Width: 699
GlyphClass: 2
Flags: W
AnchorPoint: "Anchor-6" 318 730 basechar 0
AnchorPoint: "Anchor-4" 318 0 basechar 0
LayerCount: 2
Fore
SplineSet
143 730 m 1,0,-1
 262 730 l 1,1,-1
 500 180 l 1,2,-1
 502 180 l 1,3,-1
 589 730 l 1,4,-1
 697 730 l 1,5,-1
 581 0 l 1,6,-1
 463 0 l 1,7,-1
 225 550 l 1,8,-1
 223 550 l 1,9,-1
 136 0 l 1,10,-1
 28 0 l 1,11,-1
 143 730 l 1,0,-1
EndSplineSet
EndChar

StartChar: Eng
Encoding: 330 330 104
Width: 699
GlyphClass: 2
Flags: W
AnchorPoint: "Anchor-6" 318 730 basechar 0
AnchorPoint: "Anchor-4" 318 0 basechar 0
LayerCount: 2
Fore
SplineSet
697 730 m 1,0,-1
 577 -26 l 2,1,2
 561 -129 561 -129 513 -175 c 128,-1,3
 465 -221 465 -221 374 -221 c 0,4,5
 316 -221 316 -221 265 -205 c 1,6,-1
 296 -114 l 1,7,8
 329 -126 329 -126 368 -126 c 0,9,10
 415 -126 415 -126 439 -102.5 c 128,-1,11
 463 -79 463 -79 472 -26 c 2,12,-1
 472 -20 l 1,13,-1
 223 540 l 1,14,-1
 221 540 l 1,15,-1
 136 0 l 1,16,-1
 28 0 l 1,17,-1
 143 730 l 1,18,-1
 262 730 l 1,19,-1
 502 190 l 1,20,-1
 504 190 l 1,21,-1
 589 730 l 1,22,-1
 697 730 l 1,0,-1
EndSplineSet
EndChar

StartChar: O
Encoding: 79 79 107
Width: 784
GlyphClass: 2
Flags: W
AnchorPoint: "Anchor-7" 549 690 basechar 0
AnchorPoint: "Anchor-6" 358 730 basechar 0
AnchorPoint: "Anchor-5" 418 0 basechar 0
AnchorPoint: "Anchor-4" 358 0 basechar 0
LayerCount: 2
Fore
SplineSet
163.5 35.5 m 128,-1,1
 90 81 90 81 60.5 166 c 128,-1,2
 31 251 31 251 49 365 c 256,3,4
 67 479 67 479 123.5 564 c 128,-1,5
 180 649 180 649 268 694.5 c 128,-1,6
 356 740 356 740 464 740 c 256,7,8
 573 740 573 740 646 694.5 c 128,-1,9
 719 649 719 649 749 564 c 128,-1,10
 779 479 779 479 761 365 c 256,11,12
 743 251 743 251 686 166 c 128,-1,13
 629 81 629 81 541.5 35.5 c 128,-1,14
 454 -10 454 -10 346 -10 c 256,15,0
 237 -10 237 -10 163.5 35.5 c 128,-1,1
553 163 m 128,-1,17
 630 236 630 236 650 365 c 256,18,19
 670 494 670 494 616.5 567 c 128,-1,20
 563 640 563 640 449 640 c 256,21,22
 334 640 334 640 257 567 c 128,-1,23
 180 494 180 494 160 365 c 256,24,25
 140 236 140 236 193.5 163 c 128,-1,26
 247 90 247 90 361 90 c 256,27,16
 476 90 476 90 553 163 c 128,-1,17
EndSplineSet
Substitution2: "Single Substitution lookup 21 subtable" ordmasculine
Substitution2: "'aalt' Access All Alternates in Latin lookup 0 subtable" ordmasculine
EndChar

StartChar: uni1ED0
Encoding: 7888 7888 111
Width: 784
GlyphClass: 2
Flags: W
AnchorPoint: "Anchor-7" 549 690 basechar 0
AnchorPoint: "Anchor-6" 358 730 basechar 0
AnchorPoint: "Anchor-5" 418 0 basechar 0
AnchorPoint: "Anchor-4" 358 0 basechar 0
LayerCount: 2
Fore
SplineSet
493 930 m 1,0,-1
 380 770 l 1,1,-1
 253 770 l 1,2,-1
 407 980 l 1,3,-1
 593 980 l 1,4,-1
 701 1160 l 1,5,-1
 839 1160 l 1,6,-1
 683 950 l 1,7,-1
 609 950 l 1,8,-1
 686 770 l 1,9,-1
 558 770 l 1,10,-1
 495 930 l 1,11,-1
 493 930 l 1,0,-1
646 694.5 m 128,-1,13
 719 649 719 649 749 564 c 128,-1,14
 779 479 779 479 761 365 c 256,15,16
 743 251 743 251 686 166 c 128,-1,17
 629 81 629 81 541.5 35.5 c 128,-1,18
 454 -10 454 -10 346 -10 c 256,19,20
 237 -10 237 -10 163.5 35.5 c 128,-1,21
 90 81 90 81 60.5 166 c 128,-1,22
 31 251 31 251 49 365 c 256,23,24
 67 479 67 479 123.5 564 c 128,-1,25
 180 649 180 649 268 694.5 c 128,-1,26
 356 740 356 740 464 740 c 256,27,12
 573 740 573 740 646 694.5 c 128,-1,13
553 163 m 128,-1,29
 630 236 630 236 650 365 c 256,30,31
 670 494 670 494 616.5 567 c 128,-1,32
 563 640 563 640 449 640 c 256,33,34
 334 640 334 640 257 567 c 128,-1,35
 180 494 180 494 160 365 c 256,36,37
 140 236 140 236 193.5 163 c 128,-1,38
 247 90 247 90 361 90 c 256,39,28
 476 90 476 90 553 163 c 128,-1,29
EndSplineSet
EndChar

StartChar: uni1ED2
Encoding: 7890 7890 113
Width: 784
GlyphClass: 2
Flags: W
AnchorPoint: "Anchor-7" 549 690 basechar 0
AnchorPoint: "Anchor-6" 358 730 basechar 0
AnchorPoint: "Anchor-5" 418 0 basechar 0
AnchorPoint: "Anchor-4" 358 0 basechar 0
LayerCount: 2
Fore
SplineSet
385 950 m 1,0,-1
 312 950 l 1,1,-1
 223 1160 l 1,2,-1
 360 1160 l 1,3,-1
 411 980 l 1,4,-1
 596 980 l 1,5,-1
 686 770 l 1,6,-1
 558 770 l 1,7,-1
 495 930 l 1,8,-1
 493 930 l 1,9,-1
 380 770 l 1,10,-1
 253 770 l 1,11,-1
 385 950 l 1,0,-1
646 694.5 m 128,-1,13
 719 649 719 649 749 564 c 128,-1,14
 779 479 779 479 761 365 c 256,15,16
 743 251 743 251 686 166 c 128,-1,17
 629 81 629 81 541.5 35.5 c 128,-1,18
 454 -10 454 -10 346 -10 c 256,19,20
 237 -10 237 -10 163.5 35.5 c 128,-1,21
 90 81 90 81 60.5 166 c 128,-1,22
 31 251 31 251 49 365 c 256,23,24
 67 479 67 479 123.5 564 c 128,-1,25
 180 649 180 649 268 694.5 c 128,-1,26
 356 740 356 740 464 740 c 256,27,12
 573 740 573 740 646 694.5 c 128,-1,13
553 163 m 128,-1,29
 630 236 630 236 650 365 c 256,30,31
 670 494 670 494 616.5 567 c 128,-1,32
 563 640 563 640 449 640 c 256,33,34
 334 640 334 640 257 567 c 128,-1,35
 180 494 180 494 160 365 c 256,36,37
 140 236 140 236 193.5 163 c 128,-1,38
 247 90 247 90 361 90 c 256,39,28
 476 90 476 90 553 163 c 128,-1,29
EndSplineSet
EndChar

StartChar: uni1ED4
Encoding: 7892 7892 114
Width: 784
GlyphClass: 2
Flags: W
AnchorPoint: "Anchor-7" 549 690 basechar 0
AnchorPoint: "Anchor-6" 408 1138 basechar 0
AnchorPoint: "Anchor-5" 418 0 basechar 0
AnchorPoint: "Anchor-4" 358 0 basechar 0
LayerCount: 2
Fore
SplineSet
589 980 m 1,0,1
 597 1006 597 1006 598 1014 c 0,2,3
 601 1036 601 1036 588 1043.5 c 128,-1,4
 575 1051 575 1051 537 1051 c 0,5,6
 474 1051 474 1051 413 1033 c 1,7,-1
 417 1120 l 1,8,9
 493 1138 493 1138 576 1138 c 0,10,11
 637 1138 637 1138 669 1130.5 c 128,-1,12
 701 1123 701 1123 712.5 1105.5 c 128,-1,13
 724 1088 724 1088 719 1055 c 0,14,15
 715 1031 715 1031 705 1001 c 128,-1,16
 695 971 695 971 683 948 c 1,17,-1
 610 948 l 1,18,-1
 686 770 l 1,19,-1
 558 770 l 1,20,-1
 495 930 l 1,21,-1
 493 930 l 1,22,-1
 380 770 l 1,23,-1
 253 770 l 1,24,-1
 407 980 l 1,25,-1
 589 980 l 1,0,1
646 694.5 m 128,-1,27
 719 649 719 649 749 564 c 128,-1,28
 779 479 779 479 761 365 c 256,29,30
 743 251 743 251 686 166 c 128,-1,31
 629 81 629 81 541.5 35.5 c 128,-1,32
 454 -10 454 -10 346 -10 c 256,33,34
 237 -10 237 -10 163.5 35.5 c 128,-1,35
 90 81 90 81 60.5 166 c 128,-1,36
 31 251 31 251 49 365 c 256,37,38
 67 479 67 479 123.5 564 c 128,-1,39
 180 649 180 649 268 694.5 c 128,-1,40
 356 740 356 740 464 740 c 256,41,26
 573 740 573 740 646 694.5 c 128,-1,27
553 163 m 128,-1,43
 630 236 630 236 650 365 c 256,44,45
 670 494 670 494 616.5 567 c 128,-1,46
 563 640 563 640 449 640 c 256,47,48
 334 640 334 640 257 567 c 128,-1,49
 180 494 180 494 160 365 c 256,50,51
 140 236 140 236 193.5 163 c 128,-1,52
 247 90 247 90 361 90 c 256,53,42
 476 90 476 90 553 163 c 128,-1,43
EndSplineSet
EndChar

StartChar: Ohorn
Encoding: 416 416 123
Width: 805
GlyphClass: 2
Flags: W
AnchorPoint: "Anchor-7" 787 840 basechar 0
AnchorPoint: "Anchor-6" 358 730 basechar 0
AnchorPoint: "Anchor-5" 418 0 basechar 0
AnchorPoint: "Anchor-4" 358 0 basechar 0
LayerCount: 2
Fore
SplineSet
821.5 624 m 128,-1,1
 791 587 791 587 743 578 c 1,2,3
 780 489 780 489 761 365 c 0,4,5
 743 251 743 251 686 166 c 128,-1,6
 629 81 629 81 541.5 35.5 c 128,-1,7
 454 -10 454 -10 346 -10 c 256,8,9
 237 -10 237 -10 163.5 35.5 c 128,-1,10
 90 81 90 81 60.5 166 c 128,-1,11
 31 251 31 251 49 365 c 256,12,13
 67 479 67 479 123.5 564 c 128,-1,14
 180 649 180 649 268 694.5 c 128,-1,15
 356 740 356 740 464 740 c 0,16,17
 600 740 600 740 680 669 c 0,18,19
 683 668 683 668 689 668 c 0,20,21
 714 668 714 668 731.5 685.5 c 128,-1,22
 749 703 749 703 753 734 c 0,23,24
 757 757 757 757 756 789 c 128,-1,25
 755 821 755 821 750 840 c 1,26,-1
 860 840 l 1,27,28
 870 778 870 778 861 720 c 0,29,0
 852 661 852 661 821.5 624 c 128,-1,1
553 163 m 128,-1,31
 630 236 630 236 650 365 c 256,32,33
 670 494 670 494 616.5 567 c 128,-1,34
 563 640 563 640 449 640 c 256,35,36
 334 640 334 640 257 567 c 128,-1,37
 180 494 180 494 160 365 c 256,38,39
 140 236 140 236 193.5 163 c 128,-1,40
 247 90 247 90 361 90 c 256,41,30
 476 90 476 90 553 163 c 128,-1,31
EndSplineSet
EndChar

StartChar: uni01EA
Encoding: 490 490 132
Width: 784
GlyphClass: 2
Flags: W
AnchorPoint: "Anchor-7" 549 690 basechar 0
AnchorPoint: "Anchor-6" 358 730 basechar 0
AnchorPoint: "Anchor-5" 418 0 basechar 0
AnchorPoint: "Anchor-4" 358 0 basechar 0
LayerCount: 2
Fore
SplineSet
333 -52 m 128,-1,1
 311 -74 311 -74 308 -93 c 0,2,3
 305 -111 305 -111 320.5 -120.5 c 128,-1,4
 336 -130 336 -130 369 -130 c 0,5,6
 416 -130 416 -130 459 -111 c 1,7,-1
 462 -196 l 1,8,9
 409 -217 409 -217 346 -217 c 0,10,11
 271 -217 271 -217 234 -189.5 c 128,-1,12
 197 -162 197 -162 205 -112 c 0,13,14
 214 -55 214 -55 275 -4 c 1,15,16
 146 17 146 17 85.5 115 c 128,-1,17
 25 213 25 213 49 365 c 0,18,19
 67 479 67 479 123.5 564 c 128,-1,20
 180 649 180 649 268 694.5 c 128,-1,21
 356 740 356 740 464 740 c 256,22,23
 573 740 573 740 646 694.5 c 128,-1,24
 719 649 719 649 749 564 c 128,-1,25
 779 479 779 479 761 365 c 0,26,27
 744 259 744 259 694 178.5 c 128,-1,28
 644 98 644 98 567 50 c 128,-1,29
 490 2 490 2 393 -8 c 1,30,0
 355 -30 355 -30 333 -52 c 128,-1,1
193.5 163 m 128,-1,32
 247 90 247 90 361 90 c 256,33,34
 476 90 476 90 553 163 c 128,-1,35
 630 236 630 236 650 365 c 256,36,37
 670 494 670 494 616.5 567 c 128,-1,38
 563 640 563 640 449 640 c 256,39,40
 334 640 334 640 257 567 c 128,-1,41
 180 494 180 494 160 365 c 256,42,31
 140 236 140 236 193.5 163 c 128,-1,32
EndSplineSet
EndChar

StartChar: Oslash
Encoding: 216 216 133
Width: 784
GlyphClass: 2
Flags: W
AnchorPoint: "Anchor-7" 549 690 basechar 0
AnchorPoint: "Anchor-6" 358 730 basechar 0
AnchorPoint: "Anchor-5" 418 0 basechar 0
AnchorPoint: "Anchor-4" 358 0 basechar 0
LayerCount: 2
Fore
SplineSet
760.5 522 m 128,-1,1
 774 452 774 452 761 365 c 0,2,3
 743 251 743 251 686 166 c 128,-1,4
 629 81 629 81 541.5 35.5 c 128,-1,5
 454 -10 454 -10 346 -10 c 0,6,7
 241 -10 241 -10 166 35 c 1,8,-1
 102 -37 l 1,9,-1
 40 17 l 1,10,-1
 103 89 l 1,11,12
 63 138 63 138 49 208 c 128,-1,13
 35 278 35 278 49 365 c 0,14,15
 67 479 67 479 123.5 564 c 128,-1,16
 180 649 180 649 268 694.5 c 128,-1,17
 356 740 356 740 464 740 c 0,18,19
 569 740 569 740 644 695 c 1,20,-1
 708 767 l 1,21,-1
 770 713 l 1,22,-1
 706 641 l 1,23,0
 747 592 747 592 760.5 522 c 128,-1,1
183 178 m 1,25,-1
 568 611 l 1,26,27
 521 640 521 640 449 640 c 0,28,29
 334 640 334 640 257 567 c 128,-1,30
 180 494 180 494 160 365 c 0,31,24
 141 249 141 249 183 178 c 1,25,-1
553 163 m 128,-1,33
 630 236 630 236 650 365 c 0,34,35
 668 481 668 481 627 552 c 1,36,-1
 242 119 l 1,37,38
 289 90 289 90 361 90 c 0,39,32
 476 90 476 90 553 163 c 128,-1,33
EndSplineSet
EndChar

StartChar: OE
Encoding: 338 338 137
Width: 990
GlyphClass: 2
Flags: W
AnchorPoint: "Anchor-6" 684 730 basechar 0
AnchorPoint: "Anchor-5" 909 0 basechar 0
AnchorPoint: "Anchor-4" 684 0 basechar 0
LayerCount: 2
Fore
SplineSet
649 632 m 1,0,-1
 617 430 l 1,1,-1
 936 430 l 1,2,-1
 921 335 l 1,3,-1
 602 335 l 1,4,-1
 565 98 l 1,5,-1
 903 98 l 1,6,-1
 887 0 l 1,7,-1
 442 0 l 1,8,9
 398 -10 398 -10 346 -10 c 0,10,11
 237 -10 237 -10 163.5 35.5 c 128,-1,12
 90 81 90 81 60.5 166 c 128,-1,13
 31 251 31 251 49 365 c 256,14,15
 67 479 67 479 123.5 564 c 128,-1,16
 180 649 180 649 268 694.5 c 128,-1,17
 356 740 356 740 464 740 c 0,18,19
 517 740 517 740 558 730 c 1,20,-1
 1003 730 l 1,21,-1
 987 632 l 1,22,-1
 649 632 l 1,0,-1
193.5 163 m 128,-1,24
 247 90 247 90 361 90 c 0,25,26
 414 90 414 90 458 106 c 1,27,-1
 540 624 l 1,28,29
 501 640 501 640 449 640 c 0,30,31
 334 640 334 640 257 567 c 128,-1,32
 180 494 180 494 160 365 c 256,33,23
 140 236 140 236 193.5 163 c 128,-1,24
EndSplineSet
EndChar

StartChar: P
Encoding: 80 80 138
Width: 593
Flags: W
LayerCount: 2
Fore
SplineSet
553.5 673 m 128,-1,1
 620 616 620 616 601 497 c 0,2,3
 582 379 582 379 501.5 321.5 c 128,-1,4
 421 264 421 264 275 264 c 2,5,-1
 177 264 l 1,6,-1
 136 0 l 1,7,-1
 28 0 l 1,8,-1
 143 730 l 1,9,-1
 330 730 l 2,10,0
 487 730 487 730 553.5 673 c 128,-1,1
428.5 394 m 128,-1,12
 480 426 480 426 491 496 c 256,13,14
 502 566 502 566 461 598 c 128,-1,15
 420 630 420 630 319 630 c 2,16,-1
 235 630 l 1,17,-1
 193 362 l 1,18,-1
 276 362 l 2,19,11
 377 362 377 362 428.5 394 c 128,-1,12
EndSplineSet
EndChar

StartChar: Thorn
Encoding: 222 222 139
Width: 593
Flags: W
LayerCount: 2
Fore
SplineSet
534.5 551 m 128,-1,1
 601 494 601 494 582 375 c 0,2,3
 563 257 563 257 482.5 199.5 c 128,-1,4
 402 142 402 142 256 142 c 2,5,-1
 158 142 l 1,6,-1
 136 0 l 1,7,-1
 28 0 l 1,8,-1
 143 730 l 1,9,-1
 251 730 l 1,10,-1
 232 608 l 1,11,-1
 310 608 l 2,12,0
 468 608 468 608 534.5 551 c 128,-1,1
409.5 272 m 128,-1,14
 461 304 461 304 472 374 c 256,15,16
 483 444 483 444 441.5 476 c 128,-1,17
 400 508 400 508 299 508 c 2,18,-1
 216 508 l 1,19,-1
 174 240 l 1,20,-1
 257 240 l 2,21,13
 358 240 358 240 409.5 272 c 128,-1,14
EndSplineSet
EndChar

StartChar: Q
Encoding: 81 81 140
Width: 787
Flags: W
LayerCount: 2
Fore
SplineSet
705 -71 m 1,1,-1
 610 -133 l 1,2,3
 574 -74 574 -74 505.5 -42 c 128,-1,4
 437 -10 437 -10 346 -10 c 0,5,6
 237 -10 237 -10 163.5 35.5 c 128,-1,7
 90 81 90 81 60.5 166 c 128,-1,8
 31 251 31 251 49 365 c 256,9,10
 67 479 67 479 123.5 564 c 128,-1,11
 180 649 180 649 268 694.5 c 128,-1,12
 356 740 356 740 464 740 c 256,13,14
 573 740 573 740 646 694.5 c 128,-1,15
 719 649 719 649 749 564 c 128,-1,16
 779 479 779 479 761 365 c 0,17,18
 743 252 743 252 684.5 169 c 128,-1,19
 626 86 626 86 537 42 c 1,20,0
 649 4 649 4 705 -71 c 1,1,-1
193.5 163 m 128,-1,22
 247 90 247 90 361 90 c 256,23,24
 476 90 476 90 553 163 c 128,-1,25
 630 236 630 236 650 365 c 256,26,27
 670 494 670 494 616.5 567 c 128,-1,28
 563 640 563 640 449 640 c 256,29,30
 334 640 334 640 257 567 c 128,-1,31
 180 494 180 494 160 365 c 256,32,21
 140 236 140 236 193.5 163 c 128,-1,22
EndSplineSet
EndChar

StartChar: R
Encoding: 82 82 141
Width: 621
GlyphClass: 2
Flags: W
AnchorPoint: "Anchor-6" 265 730 basechar 0
AnchorPoint: "Anchor-4" 265 0 basechar 0
LayerCount: 2
Fore
SplineSet
237 302 m 1,0,-1
 183 302 l 1,1,-1
 136 0 l 1,2,-1
 28 0 l 1,3,-1
 143 730 l 1,4,-1
 339 730 l 2,5,6
 494 730 494 730 558 678.5 c 128,-1,7
 622 627 622 627 605 518 c 0,8,9
 590 423 590 423 529.5 370.5 c 128,-1,10
 469 318 469 318 361 306 c 1,11,-1
 547 0 l 1,12,-1
 420 0 l 1,13,-1
 237 302 l 1,0,-1
199 398 m 1,14,-1
 292 398 l 2,15,16
 389 398 389 398 437 425 c 128,-1,17
 485 452 485 452 494 513 c 0,18,19
 504 575 504 575 465 602.5 c 128,-1,20
 426 630 426 630 328 630 c 2,21,-1
 235 630 l 1,22,-1
 199 398 l 1,14,-1
EndSplineSet
EndChar

StartChar: S
Encoding: 83 83 147
Width: 596
GlyphClass: 2
Flags: W
AnchorPoint: "Anchor-6" 261 730 basechar 0
AnchorPoint: "Anchor-4" 261 0 basechar 0
LayerCount: 2
Fore
SplineSet
112 5.5 m 128,-1,1
 53 21 53 21 10 51 c 1,2,-1
 63 145 l 1,3,4
 104 119 104 119 155 104.5 c 128,-1,5
 206 90 206 90 258 90 c 0,6,7
 330 90 330 90 372.5 117.5 c 128,-1,8
 415 145 415 145 424 197 c 0,9,10
 430 232 430 232 415 254 c 128,-1,11
 400 276 400 276 372.5 289 c 128,-1,12
 345 302 345 302 296 319 c 0,13,14
 218 345 218 345 171.5 373 c 128,-1,15
 125 401 125 401 103.5 442 c 128,-1,16
 82 483 82 483 91 543 c 0,17,18
 106 637 106 637 180 688.5 c 128,-1,19
 254 740 254 740 375 740 c 0,20,21
 437 740 437 740 497.5 726.5 c 128,-1,22
 558 713 558 713 597 691 c 1,23,-1
 545 597 l 1,24,25
 511 617 511 617 461.5 628.5 c 128,-1,26
 412 640 412 640 364 640 c 0,27,28
 293 640 293 640 252 615.5 c 128,-1,29
 211 591 211 591 203 543 c 0,30,31
 198 511 198 511 212.5 490 c 128,-1,32
 227 469 227 469 254.5 455.5 c 128,-1,33
 282 442 282 442 330 426 c 0,34,35
 408 398 408 398 454.5 370 c 128,-1,36
 501 342 501 342 523 300.5 c 128,-1,37
 545 259 545 259 535 197 c 0,38,39
 520 99 520 99 443 44.5 c 128,-1,40
 366 -10 366 -10 242 -10 c 0,41,0
 171 -10 171 -10 112 5.5 c 128,-1,1
EndSplineSet
EndChar

StartChar: Scedilla
Encoding: 350 350 150
Width: 596
GlyphClass: 2
Flags: W
AnchorPoint: "Anchor-6" 261 730 basechar 0
AnchorPoint: "Anchor-4" 261 0 basechar 0
LayerCount: 2
Fore
SplineSet
471 67.5 m 128,-1,1
 418 16 418 16 333 -1 c 1,2,3
 382 -53 382 -53 373 -112 c 0,4,5
 365 -162 365 -162 319.5 -189.5 c 128,-1,6
 274 -217 274 -217 198 -217 c 0,7,8
 135 -217 135 -217 89 -196 c 1,9,-1
 119 -111 l 1,10,11
 156 -130 156 -130 203 -130 c 0,12,13
 235 -130 235 -130 254 -120.5 c 128,-1,14
 273 -111 273 -111 276 -93 c 256,15,16
 279 -75 279 -75 264.5 -53.5 c 128,-1,17
 250 -32 250 -32 220 -10 c 1,18,19
 157 -8 157 -8 103 7.5 c 128,-1,20
 49 23 49 23 10 51 c 1,21,-1
 63 145 l 1,22,23
 104 119 104 119 155 104.5 c 128,-1,24
 206 90 206 90 258 90 c 0,25,26
 330 90 330 90 372.5 117.5 c 128,-1,27
 415 145 415 145 424 197 c 0,28,29
 430 232 430 232 415 254 c 128,-1,30
 400 276 400 276 372.5 289 c 128,-1,31
 345 302 345 302 296 319 c 0,32,33
 218 345 218 345 171.5 373 c 128,-1,34
 125 401 125 401 103.5 442 c 128,-1,35
 82 483 82 483 91 543 c 0,36,37
 106 637 106 637 180 688.5 c 128,-1,38
 254 740 254 740 375 740 c 0,39,40
 437 740 437 740 497.5 726.5 c 128,-1,41
 558 713 558 713 597 691 c 1,42,-1
 545 597 l 1,43,44
 511 617 511 617 461.5 628.5 c 128,-1,45
 412 640 412 640 364 640 c 0,46,47
 293 640 293 640 252 615.5 c 128,-1,48
 211 591 211 591 203 543 c 0,49,50
 198 511 198 511 212.5 490 c 128,-1,51
 227 469 227 469 254.5 455.5 c 128,-1,52
 282 442 282 442 330 426 c 0,53,54
 408 398 408 398 454.5 370 c 128,-1,55
 501 342 501 342 523 300.5 c 128,-1,56
 545 259 545 259 535 197 c 0,57,0
 524 119 524 119 471 67.5 c 128,-1,1
EndSplineSet
Substitution2: "'locl' Localized Forms in Latin lookup 4 subtable" uni0218
Substitution2: "'aalt' Access All Alternates in Latin lookup 0 subtable" uni0218
EndChar

StartChar: uni1E9E
Encoding: 7838 7838 153
Width: 659
Flags: W
LayerCount: 2
Fore
SplineSet
224 11 m 1,1,-1
 255 108 l 1,2,3
 304 90 304 90 352 90 c 0,4,5
 421 90 421 90 463 117.5 c 128,-1,6
 505 145 505 145 512 195 c 0,7,8
 521 249 521 249 483 274.5 c 128,-1,9
 445 300 445 300 355 300 c 2,10,-1
 345 300 l 1,11,-1
 361 400 l 1,12,-1
 501 561 l 1,13,14
 505 600 505 600 475 620 c 128,-1,15
 445 640 445 640 381 640 c 0,16,17
 303 640 303 640 265 608.5 c 128,-1,18
 227 577 227 577 215 503 c 2,19,-1
 136 0 l 1,20,-1
 28 0 l 1,21,-1
 107 503 l 2,22,23
 126 622 126 622 197.5 681 c 128,-1,24
 269 740 269 740 397 740 c 0,25,26
 637 740 637 740 604 533 c 1,27,-1
 475 385 l 1,28,-1
 475 383 l 1,29,30
 560 376 560 376 597.5 327.5 c 128,-1,31
 635 279 635 279 622 195 c 0,32,33
 606 96 606 96 536 43 c 128,-1,34
 466 -10 466 -10 351 -10 c 0,35,0
 284 -10 284 -10 224 11 c 1,1,-1
EndSplineSet
EndChar

StartChar: uni018F
Encoding: 399 399 154
Width: 737
Flags: W
LayerCount: 2
Fore
SplineSet
660 643 m 128,-1,1
 742 546 742 546 714 365 c 0,2,3
 695 248 695 248 641.5 163.5 c 128,-1,4
 588 79 588 79 505.5 34.5 c 128,-1,5
 423 -10 423 -10 318 -10 c 0,6,7
 215 -10 215 -10 147.5 33.5 c 128,-1,8
 80 77 80 77 54 160 c 128,-1,9
 28 243 28 243 46 358 c 0,10,11
 52 398 52 398 58 413 c 1,12,-1
 614 413 l 1,13,14
 627 527 627 527 571 583.5 c 128,-1,15
 515 640 515 640 387 640 c 0,16,17
 265 640 265 640 145 593 c 1,18,-1
 139 688 l 1,19,20
 194 712 194 712 261.5 726 c 128,-1,21
 329 740 329 740 396 740 c 0,22,0
 578 740 578 740 660 643 c 128,-1,1
505 146.5 m 128,-1,24
 571 203 571 203 596 314 c 1,25,-1
 149 314 l 1,26,27
 139 203 139 203 187 146.5 c 128,-1,28
 235 90 235 90 337 90 c 256,29,23
 439 90 439 90 505 146.5 c 128,-1,24
EndSplineSet
EndChar

StartChar: T
Encoding: 84 84 155
Width: 618
GlyphClass: 2
Flags: W
AnchorPoint: "Anchor-8" 216 0 basechar 0
AnchorPoint: "Anchor-6" 273 730 basechar 0
AnchorPoint: "Anchor-4" 273 0 basechar 0
LayerCount: 2
Fore
SplineSet
309 630 m 1,0,-1
 80 630 l 1,1,-1
 96 730 l 1,2,-1
 664 730 l 1,3,-1
 648 630 l 1,4,-1
 419 630 l 1,5,-1
 320 0 l 1,6,-1
 209 0 l 1,7,-1
 309 630 l 1,0,-1
EndSplineSet
EndChar

StartChar: Tbar
Encoding: 358 358 156
Width: 669
GlyphClass: 2
Flags: W
AnchorPoint: "Anchor-8" 244 0 basechar 0
AnchorPoint: "Anchor-6" 301 730 basechar 0
AnchorPoint: "Anchor-4" 301 0 basechar 0
LayerCount: 2
Fore
SplineSet
673 630 m 1,0,-1
 445 630 l 1,1,-1
 402 360 l 1,2,-1
 573 360 l 1,3,-1
 558 270 l 1,4,-1
 388 270 l 1,5,-1
 345 0 l 1,6,-1
 234 0 l 1,7,-1
 277 270 l 1,8,-1
 108 270 l 1,9,-1
 122 360 l 1,10,-1
 291 360 l 1,11,-1
 334 630 l 1,12,-1
 106 630 l 1,13,-1
 122 730 l 1,14,-1
 689 730 l 1,15,-1
 673 630 l 1,0,-1
EndSplineSet
EndChar

StartChar: uni0162
Encoding: 354 354 158
Width: 618
GlyphClass: 2
Flags: W
AnchorPoint: "Anchor-8" 216 0 basechar 0
AnchorPoint: "Anchor-6" 273 730 basechar 0
AnchorPoint: "Anchor-4" 273 0 basechar 0
LayerCount: 2
Fore
SplineSet
419 630 m 1,0,-1
 322 13 l 1,1,2
 385 -46 385 -46 374 -112 c 0,3,4
 366 -162 366 -162 320.5 -189.5 c 128,-1,5
 275 -217 275 -217 200 -217 c 0,6,7
 137 -217 137 -217 91 -196 c 1,8,-1
 121 -111 l 1,9,10
 158 -130 158 -130 205 -130 c 0,11,12
 237 -130 237 -130 256 -120.5 c 128,-1,13
 275 -111 275 -111 277 -93 c 0,14,15
 280 -73 280 -73 262 -48.5 c 128,-1,16
 244 -24 244 -24 209 0 c 1,17,-1
 309 630 l 1,18,-1
 80 630 l 1,19,-1
 96 730 l 1,20,-1
 664 730 l 1,21,-1
 648 630 l 1,22,-1
 419 630 l 1,0,-1
EndSplineSet
Substitution2: "'locl' Localized Forms in Latin lookup 4 subtable" uni021A
Substitution2: "'aalt' Access All Alternates in Latin lookup 0 subtable" uni021A
EndChar

StartChar: U
Encoding: 85 85 160
Width: 679
GlyphClass: 2
Flags: W
AnchorPoint: "Anchor-7" 572 690 basechar 0
AnchorPoint: "Anchor-6" 307 730 basechar 0
AnchorPoint: "Anchor-5" 433 10 basechar 0
AnchorPoint: "Anchor-4" 307 0 basechar 0
LayerCount: 2
Fore
SplineSet
100.5 61.5 m 128,-1,1
 42 133 42 133 63 270 c 2,2,-1
 136 730 l 1,3,-1
 244 730 l 1,4,-1
 173 283 l 2,5,6
 157 183 157 183 189.5 136.5 c 128,-1,7
 222 90 222 90 309 90 c 256,8,9
 396 90 396 90 443.5 136.5 c 128,-1,10
 491 183 491 183 506 283 c 2,11,-1
 577 730 l 1,12,-1
 685 730 l 1,13,-1
 612 270 l 2,14,15
 590 133 590 133 509 61.5 c 128,-1,16
 428 -10 428 -10 293 -10 c 256,17,0
 159 -10 159 -10 100.5 61.5 c 128,-1,1
EndSplineSet
EndChar

StartChar: Uhorn
Encoding: 431 431 169
Width: 784
GlyphClass: 2
Flags: W
AnchorPoint: "Anchor-7" 810 840 basechar 0
AnchorPoint: "Anchor-6" 307 730 basechar 0
AnchorPoint: "Anchor-5" 433 10 basechar 0
AnchorPoint: "Anchor-4" 307 0 basechar 0
LayerCount: 2
Fore
SplineSet
881 720 m 0,1,2
 870 652 870 652 831.5 613.5 c 128,-1,3
 793 575 793 575 733 575 c 0,4,5
 699 575 699 575 663 589 c 1,6,-1
 612 270 l 2,7,8
 590 133 590 133 509 61.5 c 128,-1,9
 428 -10 428 -10 293 -10 c 256,10,11
 159 -10 159 -10 100.5 61.5 c 128,-1,12
 42 133 42 133 63 270 c 2,13,-1
 136 730 l 1,14,-1
 244 730 l 1,15,-1
 173 283 l 2,16,17
 157 183 157 183 189.5 136.5 c 128,-1,18
 222 90 222 90 309 90 c 256,19,20
 396 90 396 90 443.5 136.5 c 128,-1,21
 491 183 491 183 506 283 c 2,22,-1
 577 730 l 1,23,-1
 685 730 l 1,24,-1
 677 677 l 1,25,26
 690 668 690 668 709 668 c 0,27,28
 734 668 734 668 751.5 685.5 c 128,-1,29
 769 703 769 703 774 734 c 0,30,31
 778 757 778 757 776.5 789 c 128,-1,32
 775 821 775 821 770 840 c 1,33,-1
 881 840 l 1,34,0
 890 778 890 778 881 720 c 0,1,2
EndSplineSet
EndChar

StartChar: Uogonek
Encoding: 370 370 178
Width: 679
GlyphClass: 2
Flags: W
AnchorPoint: "Anchor-7" 572 690 basechar 0
AnchorPoint: "Anchor-6" 307 730 basechar 0
AnchorPoint: "Anchor-5" 433 10 basechar 0
AnchorPoint: "Anchor-4" 307 0 basechar 0
LayerCount: 2
Fore
SplineSet
350.5 -38.5 m 128,-1,1
 325 -63 325 -63 322 -83 c 0,2,3
 319 -101 319 -101 334.5 -110.5 c 128,-1,4
 350 -120 350 -120 383 -120 c 0,5,6
 430 -120 430 -120 473 -101 c 1,7,-1
 476 -186 l 1,8,9
 423 -207 423 -207 360 -207 c 0,10,11
 285 -207 285 -207 248 -179.5 c 128,-1,12
 211 -152 211 -152 219 -102 c 0,13,14
 227 -54 227 -54 272 -10 c 1,15,16
 148 -4 148 -4 95 67 c 128,-1,17
 42 138 42 138 63 270 c 2,18,-1
 136 730 l 1,19,-1
 244 730 l 1,20,-1
 173 283 l 2,21,22
 157 183 157 183 189.5 136.5 c 128,-1,23
 222 90 222 90 309 90 c 256,24,25
 396 90 396 90 443.5 136.5 c 128,-1,26
 491 183 491 183 506 283 c 2,27,-1
 577 730 l 1,28,-1
 685 730 l 1,29,-1
 612 270 l 2,30,31
 596 169 596 169 547.5 103 c 128,-1,32
 499 37 499 37 419 9 c 1,33,0
 376 -14 376 -14 350.5 -38.5 c 128,-1,1
EndSplineSet
EndChar

StartChar: V
Encoding: 86 86 181
Width: 658
Flags: W
LayerCount: 2
Fore
SplineSet
82 730 m 1,0,-1
 200 730 l 1,1,-1
 301 110 l 1,2,-1
 303 110 l 1,3,-1
 600 730 l 1,4,-1
 719 730 l 1,5,-1
 356 0 l 1,6,-1
 214 0 l 1,7,-1
 82 730 l 1,0,-1
EndSplineSet
EndChar

StartChar: W
Encoding: 87 87 182
Width: 908
GlyphClass: 2
Flags: W
AnchorPoint: "Anchor-6" 420 730 basechar 0
AnchorPoint: "Anchor-4" 420 0 basechar 0
LayerCount: 2
Fore
SplineSet
205 730 m 1,0,-1
 235 120 l 1,1,-1
 237 120 l 1,2,-1
 460 730 l 1,3,-1
 597 730 l 1,4,-1
 627 120 l 1,5,-1
 629 120 l 1,6,-1
 852 730 l 1,7,-1
 958 730 l 1,8,-1
 670 0 l 1,9,-1
 538 0 l 1,10,-1
 508 610 l 1,11,-1
 506 610 l 1,12,-1
 283 0 l 1,13,-1
 151 0 l 1,14,-1
 95 730 l 1,15,-1
 205 730 l 1,0,-1
EndSplineSet
EndChar

StartChar: X
Encoding: 88 88 187
Width: 668
Flags: W
LayerCount: 2
Fore
SplineSet
268 367 m 1,0,-1
 114 730 l 1,1,-1
 236 730 l 1,2,-1
 356 431 l 1,3,-1
 358 431 l 1,4,-1
 573 730 l 1,5,-1
 696 730 l 1,6,-1
 427 367 l 1,7,-1
 583 0 l 1,8,-1
 461 0 l 1,9,-1
 338 304 l 1,10,-1
 336 304 l 1,11,-1
 118 0 l 1,12,-1
 -5 0 l 1,13,-1
 268 367 l 1,0,-1
EndSplineSet
EndChar

StartChar: Y
Encoding: 89 89 188
Width: 639
GlyphClass: 2
Flags: W
AnchorPoint: "Anchor-6" 282 730 basechar 0
AnchorPoint: "Anchor-4" 282 0 basechar 0
LayerCount: 2
Fore
SplineSet
266 294 m 1,0,-1
 77 730 l 1,1,-1
 200 730 l 1,2,-1
 337 396 l 1,3,-1
 339 396 l 1,4,-1
 581 730 l 1,5,-1
 704 730 l 1,6,-1
 377 294 l 1,7,-1
 331 0 l 1,8,-1
 219 0 l 1,9,-1
 266 294 l 1,0,-1
EndSplineSet
EndChar

StartChar: Z
Encoding: 90 90 197
Width: 616
GlyphClass: 2
Flags: W
AnchorPoint: "Anchor-6" 274 730 basechar 0
AnchorPoint: "Anchor-4" 274 0 basechar 0
LayerCount: 2
Fore
SplineSet
29 100 m 1,0,-1
 480 628 l 1,1,-1
 481 630 l 1,2,-1
 113 630 l 1,3,-1
 129 730 l 1,4,-1
 629 730 l 1,5,-1
 613 630 l 1,6,-1
 162 102 l 1,7,-1
 161 100 l 1,8,-1
 529 100 l 1,9,-1
 513 0 l 1,10,-1
 13 0 l 1,11,-1
 29 100 l 1,0,-1
EndSplineSet
EndChar

StartChar: a
Encoding: 97 97 201
Width: 513
GlyphClass: 2
Flags: W
AnchorPoint: "Anchor-6" 217 520 basechar 0
AnchorPoint: "Anchor-5" 440 0 basechar 0
AnchorPoint: "Anchor-4" 217 0 basechar 0
LayerCount: 2
Fore
SplineSet
409 509.5 m 128,-1,1
 448 489 448 489 460.5 444.5 c 128,-1,2
 473 400 473 400 461 325 c 2,3,-1
 410 0 l 1,4,-1
 313 0 l 1,5,-1
 323 69 l 1,6,-1
 321 69 l 1,7,8
 289 32 289 32 241.5 11 c 128,-1,9
 194 -10 194 -10 141 -10 c 0,10,11
 66 -10 66 -10 29.5 32 c 128,-1,12
 -7 74 -7 74 4 145 c 0,13,14
 19 238 19 238 102 288 c 128,-1,15
 185 338 185 338 323 338 c 2,16,-1
 362 338 l 1,17,18
 370 397 370 397 351.5 418.5 c 128,-1,19
 333 440 333 440 276 440 c 0,20,21
 181 440 181 440 88 397 c 1,22,-1
 74 481 l 1,23,24
 177 530 177 530 298 530 c 0,25,0
 370 530 370 530 409 509.5 c 128,-1,1
251 95.5 m 128,-1,27
 286 113 286 113 310.5 142 c 128,-1,28
 335 171 335 171 340 203 c 2,29,-1
 348 253 l 1,30,-1
 309 253 l 2,31,32
 218 253 218 253 166.5 227.5 c 128,-1,33
 115 202 115 202 107 154 c 0,34,35
 102 120 102 120 122 99 c 128,-1,36
 142 78 142 78 181 78 c 0,37,26
 216 78 216 78 251 95.5 c 128,-1,27
EndSplineSet
Substitution2: "Single Substitution lookup 21 subtable" ordfeminine
Substitution2: "'aalt' Access All Alternates in Latin lookup 0 subtable" ordfeminine
EndChar

StartChar: uni1EAF
Encoding: 7855 7855 204
Width: 513
GlyphClass: 2
Flags: W
AnchorPoint: "Anchor-6" 217 520 basechar 0
AnchorPoint: "Anchor-5" 440 0 basechar 0
AnchorPoint: "Anchor-4" 217 0 basechar 0
LayerCount: 2
Fore
SplineSet
197 594.5 m 128,-1,1
 157 616 157 616 138 655 c 128,-1,2
 119 694 119 694 124 743 c 1,3,-1
 228 743 l 1,4,-1
 344 940 l 1,5,-1
 477 940 l 1,6,-1
 325 730 l 1,7,-1
 234 730 l 1,8,9
 237 659 237 659 304 659 c 0,10,11
 340 659 340 659 365 680.5 c 128,-1,12
 390 702 390 702 401 743 c 1,13,-1
 511 743 l 1,14,15
 500 694 500 694 468.5 655 c 128,-1,16
 437 616 437 616 390.5 594.5 c 128,-1,17
 344 573 344 573 290 573 c 256,18,0
 237 573 237 573 197 594.5 c 128,-1,1
409 509.5 m 128,-1,20
 448 489 448 489 460.5 444.5 c 128,-1,21
 473 400 473 400 461 325 c 2,22,-1
 410 0 l 1,23,-1
 313 0 l 1,24,-1
 323 69 l 1,25,-1
 321 69 l 1,26,27
 289 32 289 32 241.5 11 c 128,-1,28
 194 -10 194 -10 141 -10 c 0,29,30
 66 -10 66 -10 29.5 32 c 128,-1,31
 -7 74 -7 74 4 145 c 0,32,33
 19 238 19 238 102 288 c 128,-1,34
 185 338 185 338 323 338 c 2,35,-1
 362 338 l 1,36,37
 370 397 370 397 351.5 418.5 c 128,-1,38
 333 440 333 440 276 440 c 0,39,40
 181 440 181 440 88 397 c 1,41,-1
 74 481 l 1,42,43
 177 530 177 530 298 530 c 0,44,19
 370 530 370 530 409 509.5 c 128,-1,20
251 95.5 m 128,-1,46
 286 113 286 113 310.5 142 c 128,-1,47
 335 171 335 171 340 203 c 2,48,-1
 348 253 l 1,49,-1
 309 253 l 2,50,51
 218 253 218 253 166.5 227.5 c 128,-1,52
 115 202 115 202 107 154 c 0,53,54
 102 120 102 120 122 99 c 128,-1,55
 142 78 142 78 181 78 c 0,56,45
 216 78 216 78 251 95.5 c 128,-1,46
EndSplineSet
EndChar

StartChar: uni1EB1
Encoding: 7857 7857 206
Width: 513
GlyphClass: 2
Flags: W
AnchorPoint: "Anchor-6" 217 520 basechar 0
AnchorPoint: "Anchor-5" 440 0 basechar 0
AnchorPoint: "Anchor-4" 217 0 basechar 0
LayerCount: 2
Fore
SplineSet
397 730 m 1,1,-1
 306 730 l 1,2,-1
 221 940 l 1,3,-1
 353 940 l 1,4,-1
 407 743 l 1,5,-1
 511 743 l 1,6,7
 500 694 500 694 468.5 655 c 128,-1,8
 437 616 437 616 390.5 594.5 c 128,-1,9
 344 573 344 573 290 573 c 256,10,11
 236 573 236 573 196.5 594.5 c 128,-1,12
 157 616 157 616 138 655 c 128,-1,13
 119 694 119 694 124 743 c 1,14,-1
 234 743 l 1,15,16
 232 702 232 702 250 680.5 c 128,-1,17
 268 659 268 659 304 659 c 0,18,0
 372 659 372 659 397 730 c 1,1,-1
409 509.5 m 128,-1,20
 448 489 448 489 460.5 444.5 c 128,-1,21
 473 400 473 400 461 325 c 2,22,-1
 410 0 l 1,23,-1
 313 0 l 1,24,-1
 323 69 l 1,25,-1
 321 69 l 1,26,27
 289 32 289 32 241.5 11 c 128,-1,28
 194 -10 194 -10 141 -10 c 0,29,30
 66 -10 66 -10 29.5 32 c 128,-1,31
 -7 74 -7 74 4 145 c 0,32,33
 19 238 19 238 102 288 c 128,-1,34
 185 338 185 338 323 338 c 2,35,-1
 362 338 l 1,36,37
 370 397 370 397 351.5 418.5 c 128,-1,38
 333 440 333 440 276 440 c 0,39,40
 181 440 181 440 88 397 c 1,41,-1
 74 481 l 1,42,43
 177 530 177 530 298 530 c 0,44,19
 370 530 370 530 409 509.5 c 128,-1,20
251 95.5 m 128,-1,46
 286 113 286 113 310.5 142 c 128,-1,47
 335 171 335 171 340 203 c 2,48,-1
 348 253 l 1,49,-1
 309 253 l 2,50,51
 218 253 218 253 166.5 227.5 c 128,-1,52
 115 202 115 202 107 154 c 0,53,54
 102 120 102 120 122 99 c 128,-1,55
 142 78 142 78 181 78 c 0,56,45
 216 78 216 78 251 95.5 c 128,-1,46
EndSplineSet
EndChar

StartChar: uni1EB3
Encoding: 7859 7859 207
Width: 513
GlyphClass: 2
Flags: W
AnchorPoint: "Anchor-6" 218 923 basechar 0
AnchorPoint: "Anchor-5" 439 0 basechar 0
AnchorPoint: "Anchor-4" 217 0 basechar 0
LayerCount: 2
Fore
SplineSet
397 733 m 1,1,-1
 344 733 l 1,2,3
 351 747 351 747 358 766.5 c 128,-1,4
 365 786 365 786 367 799 c 0,5,6
 370 821 370 821 358 828.5 c 128,-1,7
 346 836 346 836 309 836 c 0,8,9
 248 836 248 836 188 818 c 1,10,-1
 192 905 l 1,11,12
 266 923 266 923 346 923 c 0,13,14
 405 923 405 923 436 915.5 c 128,-1,15
 467 908 467 908 478 890.5 c 128,-1,16
 489 873 489 873 484 840 c 0,17,18
 481 819 481 819 472 792 c 128,-1,19
 463 765 463 765 453 743 c 1,20,-1
 511 743 l 1,21,22
 500 694 500 694 468.5 655 c 128,-1,23
 437 616 437 616 390.5 594.5 c 128,-1,24
 344 573 344 573 290 573 c 256,25,26
 236 573 236 573 196.5 594.5 c 128,-1,27
 157 616 157 616 138 655 c 128,-1,28
 119 694 119 694 124 743 c 1,29,-1
 234 743 l 1,30,31
 232 702 232 702 250 680.5 c 128,-1,32
 268 659 268 659 304 659 c 0,33,0
 372 659 372 659 397 733 c 1,1,-1
408.5 509.5 m 128,-1,35
 448 489 448 489 460 444.5 c 128,-1,36
 472 400 472 400 460 325 c 2,37,-1
 409 0 l 1,38,-1
 312 0 l 1,39,-1
 322 69 l 1,40,-1
 320 69 l 1,41,42
 288 32 288 32 240.5 11 c 128,-1,43
 193 -10 193 -10 140 -10 c 0,44,45
 65 -10 65 -10 29 32 c 128,-1,46
 -7 74 -7 74 4 145 c 0,47,48
 19 238 19 238 101.5 288 c 128,-1,49
 184 338 184 338 322 338 c 2,50,-1
 361 338 l 1,51,52
 369 397 369 397 351 418.5 c 128,-1,53
 333 440 333 440 276 440 c 0,54,55
 181 440 181 440 88 397 c 1,56,-1
 74 481 l 1,57,58
 177 530 177 530 297 530 c 0,59,34
 369 530 369 530 408.5 509.5 c 128,-1,35
250.5 95.5 m 128,-1,61
 285 113 285 113 309.5 142 c 128,-1,62
 334 171 334 171 340 203 c 2,63,-1
 347 253 l 1,64,-1
 309 253 l 2,65,66
 218 253 218 253 166.5 227.5 c 128,-1,67
 115 202 115 202 107 154 c 0,68,69
 102 120 102 120 122 99 c 128,-1,70
 142 78 142 78 180 78 c 0,71,60
 216 78 216 78 250.5 95.5 c 128,-1,61
EndSplineSet
EndChar

StartChar: uni1EA5
Encoding: 7845 7845 210
Width: 517
GlyphClass: 2
Flags: W
AnchorPoint: "Anchor-6" 217 520 basechar 0
AnchorPoint: "Anchor-5" 440 0 basechar 0
AnchorPoint: "Anchor-4" 217 0 basechar 0
LayerCount: 2
Fore
SplineSet
313 720 m 1,0,-1
 202 560 l 1,1,-1
 79 560 l 1,2,-1
 230 770 l 1,3,-1
 410 770 l 1,4,-1
 515 950 l 1,5,-1
 647 950 l 1,6,-1
 496 740 l 1,7,-1
 425 740 l 1,8,-1
 497 560 l 1,9,-1
 375 560 l 1,10,-1
 315 720 l 1,11,-1
 313 720 l 1,0,-1
409 509.5 m 128,-1,13
 448 489 448 489 460.5 444.5 c 128,-1,14
 473 400 473 400 461 325 c 2,15,-1
 410 0 l 1,16,-1
 313 0 l 1,17,-1
 323 69 l 1,18,-1
 321 69 l 1,19,20
 289 32 289 32 241.5 11 c 128,-1,21
 194 -10 194 -10 141 -10 c 0,22,23
 66 -10 66 -10 29.5 32 c 128,-1,24
 -7 74 -7 74 4 145 c 0,25,26
 19 238 19 238 102 288 c 128,-1,27
 185 338 185 338 323 338 c 2,28,-1
 362 338 l 1,29,30
 370 397 370 397 351.5 418.5 c 128,-1,31
 333 440 333 440 276 440 c 0,32,33
 181 440 181 440 88 397 c 1,34,-1
 74 481 l 1,35,36
 177 530 177 530 298 530 c 0,37,12
 370 530 370 530 409 509.5 c 128,-1,13
251 95.5 m 128,-1,39
 286 113 286 113 310.5 142 c 128,-1,40
 335 171 335 171 340 203 c 2,41,-1
 348 253 l 1,42,-1
 309 253 l 2,43,44
 218 253 218 253 166.5 227.5 c 128,-1,45
 115 202 115 202 107 154 c 0,46,47
 102 120 102 120 122 99 c 128,-1,48
 142 78 142 78 181 78 c 0,49,38
 216 78 216 78 251 95.5 c 128,-1,39
EndSplineSet
EndChar

StartChar: uni1EA7
Encoding: 7847 7847 212
Width: 517
GlyphClass: 2
Flags: W
AnchorPoint: "Anchor-6" 217 520 basechar 0
AnchorPoint: "Anchor-5" 440 0 basechar 0
AnchorPoint: "Anchor-4" 217 0 basechar 0
LayerCount: 2
Fore
SplineSet
211 740 m 1,0,-1
 141 740 l 1,1,-1
 56 950 l 1,2,-1
 189 950 l 1,3,-1
 237 770 l 1,4,-1
 416 770 l 1,5,-1
 501 560 l 1,6,-1
 378 560 l 1,7,-1
 318 720 l 1,8,-1
 316 720 l 1,9,-1
 205 560 l 1,10,-1
 83 560 l 1,11,-1
 211 740 l 1,0,-1
412.5 509.5 m 128,-1,13
 452 489 452 489 464 444.5 c 128,-1,14
 476 400 476 400 464 325 c 2,15,-1
 413 0 l 1,16,-1
 316 0 l 1,17,-1
 326 69 l 1,18,-1
 324 69 l 1,19,20
 292 32 292 32 244.5 11 c 128,-1,21
 197 -10 197 -10 144 -10 c 0,22,23
 69 -10 69 -10 32.5 32 c 128,-1,24
 -4 74 -4 74 8 145 c 0,25,26
 23 238 23 238 105.5 288 c 128,-1,27
 188 338 188 338 326 338 c 2,28,-1
 365 338 l 1,29,30
 373 397 373 397 355 418.5 c 128,-1,31
 337 440 337 440 280 440 c 0,32,33
 185 440 185 440 91 397 c 1,34,-1
 78 481 l 1,35,36
 181 530 181 530 301 530 c 0,37,12
 373 530 373 530 412.5 509.5 c 128,-1,13
254 95.5 m 128,-1,39
 289 113 289 113 313.5 142 c 128,-1,40
 338 171 338 171 344 203 c 2,41,-1
 351 253 l 1,42,-1
 313 253 l 2,43,44
 222 253 222 253 170 227.5 c 128,-1,45
 118 202 118 202 111 154 c 0,46,47
 106 120 106 120 125.5 99 c 128,-1,48
 145 78 145 78 184 78 c 0,49,38
 219 78 219 78 254 95.5 c 128,-1,39
EndSplineSet
EndChar

StartChar: uni1EA9
Encoding: 7849 7849 213
Width: 513
GlyphClass: 2
Flags: W
AnchorPoint: "Anchor-6" 267 928 basechar 0
AnchorPoint: "Anchor-5" 439 0 basechar 0
AnchorPoint: "Anchor-4" 217 0 basechar 0
LayerCount: 2
Fore
SplineSet
405 770 m 1,0,1
 413 796 413 796 415 804 c 0,2,3
 418 826 418 826 405.5 833.5 c 128,-1,4
 393 841 393 841 356 841 c 0,5,6
 295 841 295 841 235 823 c 1,7,-1
 239 910 l 1,8,9
 313 928 313 928 394 928 c 0,10,11
 453 928 453 928 483.5 920.5 c 128,-1,12
 514 913 514 913 525 895.5 c 128,-1,13
 536 878 536 878 531 845 c 0,14,15
 527 821 527 821 517 791 c 128,-1,16
 507 761 507 761 495 738 c 1,17,-1
 426 738 l 1,18,-1
 497 560 l 1,19,-1
 375 560 l 1,20,-1
 315 720 l 1,21,-1
 313 720 l 1,22,-1
 202 560 l 1,23,-1
 79 560 l 1,24,-1
 230 770 l 1,25,-1
 405 770 l 1,0,1
409 509.5 m 128,-1,27
 448 489 448 489 460.5 444.5 c 128,-1,28
 473 400 473 400 461 325 c 2,29,-1
 409 0 l 1,30,-1
 313 0 l 1,31,-1
 323 69 l 1,32,-1
 321 69 l 1,33,34
 289 32 289 32 241.5 11 c 128,-1,35
 194 -10 194 -10 141 -10 c 0,36,37
 66 -10 66 -10 29.5 32 c 128,-1,38
 -7 74 -7 74 4 145 c 0,39,40
 19 238 19 238 101.5 288 c 128,-1,41
 184 338 184 338 323 338 c 2,42,-1
 361 338 l 1,43,44
 369 397 369 397 351 418.5 c 128,-1,45
 333 440 333 440 276 440 c 0,46,47
 181 440 181 440 88 397 c 1,48,-1
 74 481 l 1,49,50
 177 530 177 530 298 530 c 0,51,26
 370 530 370 530 409 509.5 c 128,-1,27
251 95.5 m 128,-1,53
 286 113 286 113 310.5 142 c 128,-1,54
 335 171 335 171 340 203 c 2,55,-1
 348 253 l 1,56,-1
 309 253 l 2,57,58
 218 253 218 253 166.5 227.5 c 128,-1,59
 115 202 115 202 107 154 c 0,60,61
 102 120 102 120 122 99 c 128,-1,62
 142 78 142 78 181 78 c 0,63,52
 216 78 216 78 251 95.5 c 128,-1,53
EndSplineSet
EndChar

StartChar: aogonek
Encoding: 261 261 222
Width: 516
GlyphClass: 2
Flags: W
AnchorPoint: "Anchor-6" 217 520 basechar 0
AnchorPoint: "Anchor-5" 439 0 basechar 0
AnchorPoint: "Anchor-4" 217 0 basechar 0
LayerCount: 2
Fore
SplineSet
462 -196 m 1,0,1
 411 -217 411 -217 351 -217 c 0,2,3
 278 -217 278 -217 242.5 -189.5 c 128,-1,4
 207 -162 207 -162 215 -112 c 0,5,6
 226 -42 226 -42 315 20 c 1,7,-1
 322 69 l 1,8,-1
 320 69 l 1,9,10
 288 32 288 32 240.5 11 c 128,-1,11
 193 -10 193 -10 140 -10 c 0,12,13
 65 -10 65 -10 29 32 c 128,-1,14
 -7 74 -7 74 4 145 c 0,15,16
 19 238 19 238 101.5 288 c 128,-1,17
 184 338 184 338 322 338 c 2,18,-1
 361 338 l 1,19,20
 369 397 369 397 351 418.5 c 128,-1,21
 333 440 333 440 276 440 c 0,22,23
 181 440 181 440 88 397 c 1,24,-1
 74 481 l 1,25,26
 177 530 177 530 297 530 c 0,27,28
 369 530 369 530 408.5 509.5 c 128,-1,29
 448 489 448 489 460 444.5 c 128,-1,30
 472 400 472 400 460 325 c 2,31,-1
 409 0 l 1,32,33
 368 -24 368 -24 342.5 -48.5 c 128,-1,34
 317 -73 317 -73 314 -93 c 0,35,36
 311 -111 311 -111 326 -120.5 c 128,-1,37
 341 -130 341 -130 373 -130 c 0,38,39
 418 -130 418 -130 460 -111 c 1,40,-1
 462 -196 l 1,0,1
250 95.5 m 128,-1,42
 285 113 285 113 309.5 142 c 128,-1,43
 334 171 334 171 339 203 c 2,44,-1
 347 253 l 1,45,-1
 309 253 l 2,46,47
 218 253 218 253 166.5 227.5 c 128,-1,48
 115 202 115 202 107 154 c 0,49,50
 102 120 102 120 122 99 c 128,-1,51
 142 78 142 78 180 78 c 0,52,41
 215 78 215 78 250 95.5 c 128,-1,42
EndSplineSet
EndChar

StartChar: aring
Encoding: 229 229 223
Width: 512
GlyphClass: 2
Flags: W
AnchorPoint: "Anchor-6" 216 730 basechar 0
AnchorPoint: "Anchor-5" 439 0 basechar 0
AnchorPoint: "Anchor-4" 216 0 basechar 0
LayerCount: 2
Fore
SplineSet
448.5 471.5 m 128,-1,1
 476 424 476 424 460 325 c 2,2,-1
 409 0 l 1,3,-1
 312 0 l 1,4,-1
 322 69 l 1,5,-1
 320 69 l 1,6,7
 288 32 288 32 240.5 11 c 128,-1,8
 193 -10 193 -10 140 -10 c 0,9,10
 65 -10 65 -10 29 32 c 128,-1,11
 -7 74 -7 74 4 145 c 0,12,13
 19 238 19 238 101.5 288 c 128,-1,14
 184 338 184 338 322 338 c 2,15,-1
 361 338 l 1,16,17
 369 397 369 397 350.5 418.5 c 128,-1,18
 332 440 332 440 276 440 c 0,19,20
 182 440 182 440 88 397 c 1,21,-1
 74 481 l 1,22,23
 145 515 145 515 230 526 c 1,24,25
 193 543 193 543 174.5 580.5 c 128,-1,26
 156 618 156 618 164 665 c 0,27,28
 170 706 170 706 194.5 740.5 c 128,-1,29
 219 775 219 775 255 795 c 128,-1,30
 291 815 291 815 329 815 c 256,31,32
 368 815 368 815 397.5 795 c 128,-1,33
 427 775 427 775 440.5 740.5 c 128,-1,34
 454 706 454 706 447 665 c 0,35,36
 440 620 440 620 411 583 c 128,-1,37
 382 546 382 546 342 528 c 1,38,0
 421 519 421 519 448.5 471.5 c 128,-1,1
266.5 714.5 m 128,-1,40
 244 694 244 694 239 665 c 256,41,42
 234 636 234 636 250.5 615.5 c 128,-1,43
 267 595 267 595 294 595 c 256,44,45
 322 595 322 595 344.5 615.5 c 128,-1,46
 367 636 367 636 372 665 c 256,47,48
 377 694 377 694 360.5 714.5 c 128,-1,49
 344 735 344 735 317 735 c 256,50,39
 289 735 289 735 266.5 714.5 c 128,-1,40
250 95.5 m 128,-1,52
 285 113 285 113 309.5 142 c 128,-1,53
 334 171 334 171 339 203 c 2,54,-1
 347 253 l 1,55,-1
 308 253 l 2,56,57
 217 253 217 253 166 227.5 c 128,-1,58
 115 202 115 202 107 154 c 0,59,60
 102 120 102 120 122 99 c 128,-1,61
 142 78 142 78 180 78 c 0,62,51
 215 78 215 78 250 95.5 c 128,-1,52
EndSplineSet
EndChar

StartChar: aringacute
Encoding: 507 507 224
Width: 512
GlyphClass: 2
Flags: W
AnchorPoint: "Anchor-6" 216 730 basechar 0
AnchorPoint: "Anchor-5" 439 0 basechar 0
AnchorPoint: "Anchor-4" 216 0 basechar 0
LayerCount: 2
Fore
SplineSet
448.5 471.5 m 128,-1,1
 476 424 476 424 460 325 c 2,2,-1
 409 0 l 1,3,-1
 312 0 l 1,4,-1
 322 69 l 1,5,-1
 320 69 l 1,6,7
 288 32 288 32 240.5 11 c 128,-1,8
 193 -10 193 -10 140 -10 c 0,9,10
 65 -10 65 -10 29 32 c 128,-1,11
 -7 74 -7 74 4 145 c 0,12,13
 19 238 19 238 101.5 288 c 128,-1,14
 184 338 184 338 322 338 c 2,15,-1
 361 338 l 1,16,17
 369 397 369 397 350.5 418.5 c 128,-1,18
 332 440 332 440 276 440 c 0,19,20
 182 440 182 440 88 397 c 1,21,-1
 74 481 l 1,22,23
 145 515 145 515 230 526 c 1,24,25
 193 543 193 543 174.5 580.5 c 128,-1,26
 156 618 156 618 164 665 c 0,27,28
 169 699 169 699 187.5 729 c 128,-1,29
 206 759 206 759 233 780 c 1,30,-1
 350 980 l 1,31,-1
 482 980 l 1,32,-1
 361 811 l 1,33,34
 406 800 406 800 431 759 c 128,-1,35
 456 718 456 718 447 665 c 0,36,37
 440 620 440 620 411 583 c 128,-1,38
 382 546 382 546 342 528 c 1,39,0
 421 519 421 519 448.5 471.5 c 128,-1,1
266.5 714.5 m 128,-1,41
 244 694 244 694 239 665 c 256,42,43
 234 636 234 636 250.5 615.5 c 128,-1,44
 267 595 267 595 294 595 c 256,45,46
 322 595 322 595 344.5 615.5 c 128,-1,47
 367 636 367 636 372 665 c 256,48,49
 377 694 377 694 360.5 714.5 c 128,-1,50
 344 735 344 735 317 735 c 256,51,40
 289 735 289 735 266.5 714.5 c 128,-1,41
250 95.5 m 128,-1,53
 285 113 285 113 309.5 142 c 128,-1,54
 334 171 334 171 339 203 c 2,55,-1
 347 253 l 1,56,-1
 308 253 l 2,57,58
 217 253 217 253 166 227.5 c 128,-1,59
 115 202 115 202 107 154 c 0,60,61
 102 120 102 120 122 99 c 128,-1,62
 142 78 142 78 180 78 c 0,63,52
 215 78 215 78 250 95.5 c 128,-1,53
EndSplineSet
EndChar

StartChar: ae
Encoding: 230 230 226
Width: 843
GlyphClass: 2
Flags: W
AnchorPoint: "Anchor-6" 405 520 basechar 0
AnchorPoint: "Anchor-4" 405 0 basechar 0
LayerCount: 2
Fore
SplineSet
800 215 m 1,1,-1
 442 215 l 1,2,3
 432 80 432 80 575 80 c 0,4,5
 614 80 614 80 656 89.5 c 128,-1,6
 698 99 698 99 730 115 c 1,7,-1
 740 32 l 1,8,9
 699 12 699 12 651 1 c 128,-1,10
 603 -10 603 -10 556 -10 c 0,11,12
 422 -10 422 -10 371 76 c 1,13,14
 293 -10 293 -10 162 -10 c 0,15,16
 75 -10 75 -10 34 31 c 128,-1,17
 -7 72 -7 72 4 145 c 0,18,19
 19 238 19 238 102 288 c 128,-1,20
 185 338 185 338 323 338 c 2,21,-1
 362 338 l 1,22,23
 370 397 370 397 351.5 418.5 c 128,-1,24
 333 440 333 440 276 440 c 0,25,26
 181 440 181 440 88 397 c 1,27,-1
 74 481 l 1,28,29
 177 530 177 530 298 530 c 0,30,31
 359 530 359 530 396 515 c 128,-1,32
 433 500 433 500 450 467 c 1,33,34
 522 530 522 530 626 530 c 0,35,36
 736 530 736 530 783 460.5 c 128,-1,37
 830 391 830 391 809 260 c 0,38,0
 806 239 806 239 800 215 c 1,1,-1
510 407 m 128,-1,40
 471 372 471 372 455 300 c 1,41,-1
 718 300 l 1,42,43
 725 374 725 374 699 408 c 128,-1,44
 673 442 673 442 612 442 c 0,45,39
 549 442 549 442 510 407 c 128,-1,40
251 95.5 m 128,-1,47
 286 113 286 113 310.5 142 c 128,-1,48
 335 171 335 171 340 203 c 2,49,-1
 348 253 l 1,50,-1
 309 253 l 2,51,52
 218 253 218 253 166.5 227.5 c 128,-1,53
 115 202 115 202 107 154 c 0,54,55
 102 120 102 120 122 99 c 128,-1,56
 142 78 142 78 181 78 c 0,57,46
 216 78 216 78 251 95.5 c 128,-1,47
EndSplineSet
EndChar

StartChar: b
Encoding: 98 98 228
Width: 558
Flags: W
LayerCount: 2
Fore
SplineSet
501 460 m 128,-1,1
 539 390 539 390 518 260 c 256,2,3
 497 130 497 130 437 60 c 128,-1,4
 377 -10 377 -10 284 -10 c 0,5,6
 233 -10 233 -10 193 11.5 c 128,-1,7
 153 33 153 33 131 71 c 1,8,-1
 130 71 l 1,9,-1
 117 0 l 1,10,-1
 21 0 l 1,11,-1
 139 750 l 1,12,-1
 241 750 l 1,13,-1
 193 449 l 1,14,-1
 195 449 l 1,15,16
 228 488 228 488 274 509 c 128,-1,17
 320 530 320 530 370 530 c 0,18,0
 463 530 463 530 501 460 c 128,-1,1
364.5 128.5 m 128,-1,20
 404 177 404 177 417 260 c 256,21,22
 430 343 430 343 406 391.5 c 128,-1,23
 382 440 382 440 327 440 c 0,24,25
 291 440 291 440 256 419 c 128,-1,26
 221 398 221 398 197.5 362 c 128,-1,27
 174 326 174 326 167 283 c 2,28,-1
 160 237 l 2,29,30
 153 194 153 194 165 158 c 128,-1,31
 177 122 177 122 205.5 101 c 128,-1,32
 234 80 234 80 270 80 c 0,33,19
 325 80 325 80 364.5 128.5 c 128,-1,20
EndSplineSet
EndChar

StartChar: c
Encoding: 99 99 229
Width: 498
GlyphClass: 2
Flags: W
AnchorPoint: "Anchor-6" 237 520 basechar 0
AnchorPoint: "Anchor-4" 237 0 basechar 0
LayerCount: 2
Fore
SplineSet
65 60.5 m 128,-1,1
 9 131 9 131 29 260 c 256,2,3
 49 389 49 389 127.5 459.5 c 128,-1,4
 206 530 206 530 328 530 c 0,5,6
 414 530 414 530 478 492 c 1,7,-1
 435 410 l 1,8,9
 380 440 380 440 319 440 c 0,10,11
 242 440 242 440 193 393.5 c 128,-1,12
 144 347 144 347 130 260 c 256,13,14
 116 173 116 173 150.5 126.5 c 128,-1,15
 185 80 185 80 262 80 c 0,16,17
 324 80 324 80 388 110 c 1,18,-1
 404 28 l 1,19,20
 329 -10 329 -10 243 -10 c 0,21,0
 121 -10 121 -10 65 60.5 c 128,-1,1
EndSplineSet
EndChar

StartChar: ccedilla
Encoding: 231 231 232
Width: 497
GlyphClass: 2
Flags: W
AnchorPoint: "Anchor-6" 237 520 basechar 0
AnchorPoint: "Anchor-4" 237 0 basechar 0
LayerCount: 2
Fore
SplineSet
403 28 m 1,0,1
 355 4 355 4 307 -5 c 1,2,3
 350 -56 350 -56 340 -112 c 0,4,5
 332 -162 332 -162 288 -189.5 c 128,-1,6
 244 -217 244 -217 171 -217 c 0,7,8
 110 -217 110 -217 66 -196 c 1,9,-1
 95 -111 l 1,10,11
 131 -130 131 -130 177 -130 c 0,12,13
 208 -130 208 -130 226.5 -120.5 c 128,-1,14
 245 -111 245 -111 247 -93 c 0,15,16
 250 -74 250 -74 235.5 -51 c 128,-1,17
 221 -28 221 -28 190 -6 c 1,18,19
 95 8 95 8 53 77 c 128,-1,20
 11 146 11 146 29 260 c 0,21,22
 49 389 49 389 127.5 459.5 c 128,-1,23
 206 530 206 530 328 530 c 0,24,25
 414 530 414 530 477 492 c 1,26,-1
 434 410 l 1,27,28
 379 440 379 440 318 440 c 0,29,30
 241 440 241 440 192.5 393.5 c 128,-1,31
 144 347 144 347 130 260 c 256,32,33
 116 173 116 173 150 126.5 c 128,-1,34
 184 80 184 80 261 80 c 0,35,36
 323 80 323 80 387 110 c 1,37,-1
 403 28 l 1,0,1
EndSplineSet
EndChar

StartChar: d
Encoding: 100 100 235
Width: 558
Flags: W
LayerCount: 2
Fore
SplineSet
567 750 m 1,0,-1
 448 0 l 1,1,-1
 351 0 l 1,2,-1
 362 71 l 1,3,-1
 360 71 l 1,4,5
 327 33 327 33 279.5 11.5 c 128,-1,6
 232 -10 232 -10 181 -10 c 0,7,8
 88 -10 88 -10 50 60 c 128,-1,9
 12 130 12 130 33 260 c 256,10,11
 54 390 54 390 114 460 c 128,-1,12
 174 530 174 530 267 530 c 0,13,14
 317 530 317 530 356 509 c 128,-1,15
 395 488 395 488 416 449 c 1,16,-1
 418 449 l 1,17,-1
 465 750 l 1,18,-1
 567 750 l 1,0,-1
295 101 m 128,-1,20
 330 122 330 122 353.5 158 c 128,-1,21
 377 194 377 194 384 237 c 2,22,-1
 391 283 l 2,23,24
 398 326 398 326 386 362 c 128,-1,25
 374 398 374 398 345.5 419 c 128,-1,26
 317 440 317 440 281 440 c 0,27,28
 226 440 226 440 186.5 391.5 c 128,-1,29
 147 343 147 343 134 260 c 256,30,31
 121 177 121 177 145 128.5 c 128,-1,32
 169 80 169 80 224 80 c 0,33,19
 260 80 260 80 295 101 c 128,-1,20
EndSplineSet
EndChar

StartChar: eth
Encoding: 240 240 236
Width: 557
Flags: W
LayerCount: 2
Fore
SplineSet
464 617 m 1,0,1
 503 547 503 547 515.5 456.5 c 128,-1,2
 528 366 528 366 512 263 c 0,3,4
 491 132 491 132 417.5 61 c 128,-1,5
 344 -10 344 -10 227 -10 c 0,6,7
 114 -10 114 -10 60.5 57 c 128,-1,8
 7 124 7 124 26 243 c 0,9,10
 44 354 44 354 114.5 417 c 128,-1,11
 185 480 185 480 291 480 c 0,12,13
 374 480 374 480 414 434 c 1,14,-1
 416 435 l 1,15,16
 407 515 407 515 365 578 c 1,17,-1
 141 490 l 1,18,-1
 120 574 l 1,19,-1
 304 646 l 1,20,21
 249 690 249 690 179 700 c 1,22,-1
 212 790 l 1,23,24
 333 772 333 772 411 689 c 1,25,-1
 564 749 l 1,26,-1
 585 665 l 1,27,-1
 464 617 l 1,0,1
351.5 123 m 128,-1,29
 395 166 395 166 407 243 c 0,30,31
 430 390 430 390 291 390 c 256,32,33
 151 390 151 390 128 243 c 0,34,35
 116 166 116 166 145.5 123 c 128,-1,36
 175 80 175 80 242 80 c 256,37,28
 308 80 308 80 351.5 123 c 128,-1,29
EndSplineSet
EndChar

StartChar: dcroat
Encoding: 273 273 238
Width: 623
Flags: W
LayerCount: 2
Fore
SplineSet
644 580 m 1,0,-1
 540 580 l 1,1,-1
 448 0 l 1,2,-1
 351 0 l 1,3,-1
 362 71 l 1,4,-1
 360 71 l 1,5,6
 327 33 327 33 279.5 11.5 c 128,-1,7
 232 -10 232 -10 181 -10 c 0,8,9
 88 -10 88 -10 50 60 c 128,-1,10
 12 130 12 130 33 260 c 256,11,12
 54 390 54 390 114 460 c 128,-1,13
 174 530 174 530 267 530 c 0,14,15
 317 530 317 530 356 509 c 128,-1,16
 395 488 395 488 416 449 c 1,17,-1
 418 449 l 1,18,-1
 438 580 l 1,19,-1
 247 580 l 1,20,-1
 261 670 l 1,21,-1
 453 670 l 1,22,-1
 465 750 l 1,23,-1
 567 750 l 1,24,-1
 554 670 l 1,25,-1
 659 670 l 1,26,-1
 644 580 l 1,0,-1
295 101 m 128,-1,28
 330 122 330 122 353.5 158 c 128,-1,29
 377 194 377 194 384 237 c 2,30,-1
 391 283 l 2,31,32
 398 326 398 326 386 362 c 128,-1,33
 374 398 374 398 345.5 419 c 128,-1,34
 317 440 317 440 281 440 c 0,35,36
 226 440 226 440 186.5 391.5 c 128,-1,37
 147 343 147 343 134 260 c 256,38,39
 121 177 121 177 145 128.5 c 128,-1,40
 169 80 169 80 224 80 c 0,41,27
 260 80 260 80 295 101 c 128,-1,28
EndSplineSet
EndChar

StartChar: e
Encoding: 101 101 240
Width: 524
GlyphClass: 2
Flags: W
AnchorPoint: "Anchor-6" 239 520 basechar 0
AnchorPoint: "Anchor-5" 451 27 basechar 0
AnchorPoint: "Anchor-4" 239 0 basechar 0
LayerCount: 2
Fore
SplineSet
481 215 m 1,1,-1
 122 215 l 1,2,3
 118 147 118 147 154 113.5 c 128,-1,4
 190 80 190 80 268 80 c 0,5,6
 342 80 342 80 412 109 c 1,7,-1
 423 24 l 1,8,9
 384 8 384 8 338.5 -1 c 128,-1,10
 293 -10 293 -10 249 -10 c 0,11,12
 123 -10 123 -10 65.5 60 c 128,-1,13
 8 130 8 130 29 260 c 0,14,15
 49 388 49 388 122 459 c 128,-1,16
 195 530 195 530 307 530 c 0,17,18
 417 530 417 530 463.5 460.5 c 128,-1,19
 510 391 510 391 490 260 c 0,20,0
 487 239 487 239 481 215 c 1,1,-1
191 407 m 128,-1,22
 152 372 152 372 136 300 c 1,23,-1
 399 300 l 1,24,25
 406 374 406 374 380 408 c 128,-1,26
 354 442 354 442 292 442 c 256,27,21
 230 442 230 442 191 407 c 128,-1,22
EndSplineSet
EndChar

StartChar: uni1EBF
Encoding: 7871 7871 245
Width: 527
GlyphClass: 2
Flags: W
AnchorPoint: "Anchor-6" 239 520 basechar 0
AnchorPoint: "Anchor-5" 451 27 basechar 0
AnchorPoint: "Anchor-4" 239 0 basechar 0
LayerCount: 2
Fore
SplineSet
333 720 m 1,0,-1
 223 560 l 1,1,-1
 100 560 l 1,2,-1
 250 770 l 1,3,-1
 431 770 l 1,4,-1
 536 950 l 1,5,-1
 669 950 l 1,6,-1
 517 740 l 1,7,-1
 446 740 l 1,8,-1
 519 560 l 1,9,-1
 396 560 l 1,10,-1
 335 720 l 1,11,-1
 333 720 l 1,0,-1
463.5 460.5 m 128,-1,13
 510 391 510 391 490 260 c 0,14,15
 487 239 487 239 481 215 c 1,16,-1
 122 215 l 1,17,18
 118 147 118 147 154 113.5 c 128,-1,19
 190 80 190 80 268 80 c 0,20,21
 342 80 342 80 412 109 c 1,22,-1
 423 24 l 1,23,24
 384 8 384 8 338.5 -1 c 128,-1,25
 293 -10 293 -10 249 -10 c 0,26,27
 123 -10 123 -10 65.5 60 c 128,-1,28
 8 130 8 130 29 260 c 0,29,30
 49 388 49 388 122 459 c 128,-1,31
 195 530 195 530 307 530 c 0,32,12
 417 530 417 530 463.5 460.5 c 128,-1,13
191 407 m 128,-1,34
 152 372 152 372 136 300 c 1,35,-1
 399 300 l 1,36,37
 406 374 406 374 380 408 c 128,-1,38
 354 442 354 442 292 442 c 256,39,33
 230 442 230 442 191 407 c 128,-1,34
EndSplineSet
EndChar

StartChar: uni1EC1
Encoding: 7873 7873 247
Width: 527
GlyphClass: 2
Flags: W
AnchorPoint: "Anchor-6" 239 520 basechar 0
AnchorPoint: "Anchor-5" 451 27 basechar 0
AnchorPoint: "Anchor-4" 239 0 basechar 0
LayerCount: 2
Fore
SplineSet
231 740 m 1,0,-1
 161 740 l 1,1,-1
 76 950 l 1,2,-1
 209 950 l 1,3,-1
 257 770 l 1,4,-1
 436 770 l 1,5,-1
 522 560 l 1,6,-1
 398 560 l 1,7,-1
 338 720 l 1,8,-1
 336 720 l 1,9,-1
 225 560 l 1,10,-1
 103 560 l 1,11,-1
 231 740 l 1,0,-1
483 215 m 1,13,-1
 125 215 l 1,14,15
 121 147 121 147 157 113.5 c 128,-1,16
 193 80 193 80 271 80 c 0,17,18
 345 80 345 80 415 109 c 1,19,-1
 425 24 l 1,20,21
 386 8 386 8 341 -1 c 128,-1,22
 296 -10 296 -10 251 -10 c 0,23,24
 125 -10 125 -10 68 60 c 128,-1,25
 11 130 11 130 32 260 c 0,26,27
 52 388 52 388 125 459 c 128,-1,28
 198 530 198 530 309 530 c 0,29,30
 419 530 419 530 466 460.5 c 128,-1,31
 513 391 513 391 492 260 c 0,32,12
 489 239 489 239 483 215 c 1,13,-1
193.5 407 m 128,-1,34
 155 372 155 372 139 300 c 1,35,-1
 402 300 l 1,36,37
 409 374 409 374 383 408 c 128,-1,38
 357 442 357 442 295 442 c 0,39,33
 232 442 232 442 193.5 407 c 128,-1,34
EndSplineSet
EndChar

StartChar: uni1EC3
Encoding: 7875 7875 248
Width: 523
GlyphClass: 2
Flags: W
AnchorPoint: "Anchor-6" 289 928 basechar 0
AnchorPoint: "Anchor-5" 450 27 basechar 0
AnchorPoint: "Anchor-4" 239 0 basechar 0
LayerCount: 2
Fore
SplineSet
426 770 m 1,0,1
 434 796 434 796 435 804 c 0,2,3
 438 826 438 826 425.5 833.5 c 128,-1,4
 413 841 413 841 376 841 c 0,5,6
 315 841 315 841 256 823 c 1,7,-1
 260 910 l 1,8,9
 334 928 334 928 414 928 c 0,10,11
 473 928 473 928 504 920.5 c 128,-1,12
 535 913 535 913 546 895.5 c 128,-1,13
 557 878 557 878 552 845 c 0,14,15
 548 821 548 821 538 791 c 128,-1,16
 528 761 528 761 516 738 c 1,17,-1
 446 738 l 1,18,-1
 518 560 l 1,19,-1
 396 560 l 1,20,-1
 335 720 l 1,21,-1
 333 720 l 1,22,-1
 223 560 l 1,23,-1
 100 560 l 1,24,-1
 250 770 l 1,25,-1
 426 770 l 1,0,1
479 215 m 1,27,-1
 122 215 l 1,28,29
 118 147 118 147 154 113.5 c 128,-1,30
 190 80 190 80 268 80 c 0,31,32
 342 80 342 80 412 109 c 1,33,-1
 422 24 l 1,34,35
 384 8 384 8 338 -1 c 128,-1,36
 292 -10 292 -10 248 -10 c 0,37,38
 122 -10 122 -10 65 60 c 128,-1,39
 8 130 8 130 29 260 c 0,40,41
 49 388 49 388 122 459 c 128,-1,42
 195 530 195 530 306 530 c 0,43,44
 416 530 416 530 462.5 460.5 c 128,-1,45
 509 391 509 391 488 260 c 0,46,26
 485 239 485 239 479 215 c 1,27,-1
190.5 407 m 128,-1,48
 152 372 152 372 136 300 c 1,49,-1
 399 300 l 1,50,51
 406 374 406 374 380 408 c 128,-1,52
 354 442 354 442 292 442 c 0,53,47
 229 442 229 442 190.5 407 c 128,-1,48
EndSplineSet
EndChar

StartChar: eogonek
Encoding: 281 281 258
Width: 525
GlyphClass: 2
Flags: W
AnchorPoint: "Anchor-6" 239 520 basechar 0
AnchorPoint: "Anchor-5" 450 27 basechar 0
AnchorPoint: "Anchor-4" 239 0 basechar 0
LayerCount: 2
Fore
SplineSet
477 -169 m 1,0,1
 425 -190 425 -190 365 -190 c 0,2,3
 292 -190 292 -190 256.5 -162.5 c 128,-1,4
 221 -135 221 -135 229 -85 c 0,5,6
 235 -47 235 -47 265 -10 c 1,7,-1
 248 -10 l 2,8,9
 122 -10 122 -10 65 60 c 128,-1,10
 8 130 8 130 29 260 c 0,11,12
 49 388 49 388 122 459 c 128,-1,13
 195 530 195 530 306 530 c 0,14,15
 416 530 416 530 462.5 460.5 c 128,-1,16
 509 391 509 391 489 260 c 0,17,18
 486 239 486 239 480 215 c 1,19,-1
 122 215 l 1,20,21
 118 147 118 147 154 113.5 c 128,-1,22
 190 80 190 80 268 80 c 0,23,24
 342 80 342 80 411 109 c 1,25,-1
 421 27 l 1,26,-1
 423 27 l 1,27,-1
 421 26 l 1,28,-1
 422 24 l 1,29,30
 417 22 417 22 411 20 c 0,31,32
 374 -2 374 -2 352.5 -24.5 c 128,-1,33
 331 -47 331 -47 328 -66 c 0,34,35
 325 -84 325 -84 340 -93.5 c 128,-1,36
 355 -103 355 -103 386 -103 c 0,37,38
 432 -103 432 -103 474 -84 c 1,39,-1
 477 -169 l 1,0,1
190.5 407 m 128,-1,41
 152 372 152 372 136 300 c 1,42,-1
 398 300 l 1,43,44
 405 374 405 374 379 408 c 128,-1,45
 353 442 353 442 292 442 c 0,46,40
 229 442 229 442 190.5 407 c 128,-1,41
EndSplineSet
EndChar

StartChar: uni0259
Encoding: 601 601 260
Width: 524
GlyphClass: 2
Flags: W
AnchorPoint: "Anchor-6" 232 520 basechar 0
AnchorPoint: "Anchor-5" 20 493 basechar 0
AnchorPoint: "Anchor-4" 232 0 basechar 0
LayerCount: 2
Fore
SplineSet
451 460 m 128,-1,1
 508 390 508 390 488 260 c 0,2,3
 468 132 468 132 395 61 c 128,-1,4
 322 -10 322 -10 210 -10 c 0,5,6
 100 -10 100 -10 53 59.5 c 128,-1,7
 6 129 6 129 27 260 c 0,8,9
 30 281 30 281 36 305 c 1,10,-1
 394 305 l 1,11,12
 398 373 398 373 362 406.5 c 128,-1,13
 326 440 326 440 248 440 c 0,14,15
 174 440 174 440 104 411 c 1,16,-1
 94 496 l 1,17,18
 133 512 133 512 178 521 c 128,-1,19
 223 530 223 530 268 530 c 0,20,0
 394 530 394 530 451 460 c 128,-1,1
326 113 m 128,-1,22
 365 148 365 148 381 220 c 1,23,-1
 118 220 l 1,24,25
 111 146 111 146 137 112 c 128,-1,26
 163 78 163 78 224 78 c 0,27,21
 287 78 287 78 326 113 c 128,-1,22
EndSplineSet
EndChar

StartChar: f
Encoding: 102 102 261
Width: 434
Flags: W
LayerCount: 2
Fore
SplineSet
43 430 m 1,0,-1
 57 520 l 1,1,-1
 188 520 l 1,2,-1
 196 575 l 2,3,4
 225 760 225 760 384 760 c 0,5,6
 433 760 433 760 487 745 c 1,7,-1
 458 657 l 1,8,9
 420 670 420 670 385 670 c 0,10,11
 345 670 345 670 326.5 649.5 c 128,-1,12
 308 629 308 629 300 575 c 2,13,-1
 291 520 l 1,14,-1
 445 520 l 1,15,-1
 431 430 l 1,16,-1
 277 430 l 1,17,-1
 209 0 l 1,18,-1
 105 0 l 1,19,-1
 173 430 l 1,20,-1
 43 430 l 1,0,-1
EndSplineSet
EndChar

StartChar: g
Encoding: 103 103 262
Width: 558
GlyphClass: 2
Flags: W
AnchorPoint: "Anchor-6" 252 520 basechar 0
AnchorPoint: "Anchor-4" 252 -140 basechar 0
LayerCount: 2
Fore
SplineSet
530 520 m 1,0,-1
 455 45 l 2,1,2
 433 -91 433 -91 359 -160.5 c 128,-1,3
 285 -230 285 -230 161 -230 c 0,4,5
 65 -230 65 -230 -24 -189 c 1,6,-1
 12 -106 l 1,7,8
 91 -140 91 -140 161 -140 c 0,9,10
 244 -140 244 -140 291.5 -94.5 c 128,-1,11
 339 -49 339 -49 354 45 c 2,12,-1
 358 71 l 1,13,-1
 356 71 l 1,14,15
 323 32 323 32 278 11 c 128,-1,16
 233 -10 233 -10 182 -10 c 0,17,18
 89 -10 89 -10 50.5 59.5 c 128,-1,19
 12 129 12 129 33 260 c 256,20,21
 54 391 54 391 114.5 460.5 c 128,-1,22
 175 530 175 530 268 530 c 0,23,24
 319 530 319 530 358 509 c 128,-1,25
 397 488 397 488 420 449 c 1,26,-1
 421 449 l 1,27,-1
 434 520 l 1,28,-1
 530 520 l 1,0,-1
295 101 m 128,-1,30
 330 122 330 122 353.5 158 c 128,-1,31
 377 194 377 194 384 237 c 2,32,-1
 391 283 l 2,33,34
 398 326 398 326 386 362 c 128,-1,35
 374 398 374 398 345.5 419 c 128,-1,36
 317 440 317 440 281 440 c 0,37,38
 226 440 226 440 186.5 391.5 c 128,-1,39
 147 343 147 343 134 260 c 256,40,41
 121 177 121 177 145 128.5 c 128,-1,42
 169 80 169 80 224 80 c 0,43,29
 260 80 260 80 295 101 c 128,-1,30
EndSplineSet
EndChar

StartChar: h
Encoding: 104 104 268
Width: 559
GlyphClass: 2
Flags: W
AnchorPoint: "Anchor-6" 247 750 basechar 0
AnchorPoint: "Anchor-4" 247 0 basechar 0
LayerCount: 2
Fore
SplineSet
493.5 479 m 128,-1,1
 523 428 523 428 506 320 c 2,2,-1
 455 0 l 1,3,-1
 354 0 l 1,4,-1
 401 300 l 2,5,6
 412 371 412 371 397.5 405.5 c 128,-1,7
 383 440 383 440 341 440 c 0,8,9
 303 440 303 440 265 415 c 128,-1,10
 227 390 227 390 199 349.5 c 128,-1,11
 171 309 171 309 164 265 c 2,12,-1
 122 0 l 1,13,-1
 21 0 l 1,14,-1
 139 750 l 1,15,-1
 241 750 l 1,16,-1
 192 444 l 1,17,-1
 194 444 l 1,18,19
 230 485 230 485 279 507.5 c 128,-1,20
 328 530 328 530 383 530 c 0,21,0
 464 530 464 530 493.5 479 c 128,-1,1
EndSplineSet
EndChar

StartChar: hbar
Encoding: 295 295 269
Width: 623
GlyphClass: 2
Flags: W
AnchorPoint: "Anchor-6" 314 750 basechar 0
AnchorPoint: "Anchor-4" 314 0 basechar 0
LayerCount: 2
Fore
SplineSet
558 479 m 128,-1,1
 588 428 588 428 571 320 c 2,2,-1
 520 0 l 1,3,-1
 418 0 l 1,4,-1
 466 300 l 2,5,6
 477 371 477 371 462 405.5 c 128,-1,7
 447 440 447 440 405 440 c 0,8,9
 367 440 367 440 329 415 c 128,-1,10
 291 390 291 390 263 349.5 c 128,-1,11
 235 309 235 309 228 265 c 2,12,-1
 187 0 l 1,13,-1
 85 0 l 1,14,-1
 177 580 l 1,15,-1
 72 580 l 1,16,-1
 87 670 l 1,17,-1
 191 670 l 1,18,-1
 204 750 l 1,19,-1
 305 750 l 1,20,-1
 293 670 l 1,21,-1
 485 670 l 1,22,-1
 470 580 l 1,23,-1
 278 580 l 1,24,-1
 257 444 l 1,25,-1
 259 444 l 1,26,27
 295 485 295 485 344 507.5 c 128,-1,28
 393 530 393 530 448 530 c 0,29,0
 528 530 528 530 558 479 c 128,-1,1
EndSplineSet
EndChar

StartChar: i
Encoding: 105 105 271
Width: 247
GlyphClass: 2
Flags: W
AnchorPoint: "Anchor-6" 89 520 basechar 0
AnchorPoint: "Anchor-5" 144 0 basechar 0
AnchorPoint: "Anchor-4" 89 0 basechar 0
LayerCount: 2
Fore
SplineSet
144 740 m 1,0,-1
 247 740 l 1,1,-1
 230 630 l 1,2,-1
 127 630 l 1,3,-1
 144 740 l 1,0,-1
109 520 m 1,4,-1
 213 520 l 1,5,-1
 130 0 l 1,6,-1
 27 0 l 1,7,-1
 109 520 l 1,4,-1
EndSplineSet
Substitution2: "Single Substitution lookup 19 subtable" dotlessi
Substitution2: "'locl' Localized Forms in Latin lookup 3 subtable" i.loclTRK
Substitution2: "'aalt' Access All Alternates in Latin lookup 0 subtable" i.loclTRK
EndChar

StartChar: dotlessi
Encoding: 305 305 272
Width: 247
GlyphClass: 2
Flags: W
AnchorPoint: "Anchor-6" 89 520 basechar 0
AnchorPoint: "Anchor-5" 144 0 basechar 0
AnchorPoint: "Anchor-4" 89 0 basechar 0
LayerCount: 2
Fore
SplineSet
109 520 m 1,0,-1
 213 520 l 1,1,-1
 130 0 l 1,2,-1
 27 0 l 1,3,-1
 109 520 l 1,0,-1
EndSplineSet
EndChar

StartChar: iogonek
Encoding: 303 303 284
Width: 252
GlyphClass: 2
Flags: W
AnchorPoint: "Anchor-6" 89 728 basechar 0
AnchorPoint: "Anchor-5" 144 0 basechar 0
AnchorPoint: "Anchor-4" 89 0 basechar 0
LayerCount: 2
Fore
SplineSet
255 728 m 1,0,-1
 235 602 l 1,1,-1
 117 602 l 1,2,-1
 137 728 l 1,3,-1
 255 728 l 1,0,-1
186 -196 m 1,4,5
 135 -217 135 -217 74 -217 c 0,6,7
 1 -217 1 -217 -34 -189.5 c 128,-1,8
 -69 -162 -69 -162 -61 -112 c 0,9,10
 -50 -44 -50 -44 32 15 c 1,11,-1
 112 520 l 1,12,-1
 215 520 l 1,13,-1
 133 0 l 1,14,15
 92 -24 92 -24 66.5 -48.5 c 128,-1,16
 41 -73 41 -73 38 -93 c 0,17,18
 35 -111 35 -111 50 -120.5 c 128,-1,19
 65 -130 65 -130 96 -130 c 0,20,21
 141 -130 141 -130 183 -111 c 1,22,-1
 186 -196 l 1,4,5
EndSplineSet
EndChar

StartChar: j
Encoding: 106 106 286
Width: 308
GlyphClass: 2
Flags: W
AnchorPoint: "Anchor-6" 119 520 basechar 0
AnchorPoint: "Anchor-4" 119 -140 basechar 0
LayerCount: 2
Fore
SplineSet
205 740 m 1,0,-1
 308 740 l 1,1,-1
 291 630 l 1,2,-1
 188 630 l 1,3,-1
 205 740 l 1,0,-1
-0.5 -128 m 128,-1,5
 41 -116 41 -116 60.5 -83.5 c 128,-1,6
 80 -51 80 -51 91 20 c 2,7,-1
 170 520 l 1,8,-1
 274 520 l 1,9,-1
 194 20 l 2,10,11
 178 -80 178 -80 144.5 -133 c 128,-1,12
 111 -186 111 -186 45.5 -208 c 128,-1,13
 -20 -230 -20 -230 -137 -230 c 1,14,-1
 -127 -140 l 1,15,4
 -42 -140 -42 -140 -0.5 -128 c 128,-1,5
EndSplineSet
Substitution2: "Single Substitution lookup 19 subtable" uni0237
EndChar

StartChar: uni0237
Encoding: 567 567 287
Width: 308
GlyphClass: 2
Flags: W
AnchorPoint: "Anchor-6" 119 520 basechar 0
AnchorPoint: "Anchor-4" 119 -140 basechar 0
LayerCount: 2
Fore
SplineSet
-0.5 -128 m 128,-1,1
 41 -116 41 -116 60.5 -83.5 c 128,-1,2
 80 -51 80 -51 91 20 c 2,3,-1
 170 520 l 1,4,-1
 274 520 l 1,5,-1
 194 20 l 2,6,7
 178 -80 178 -80 144.5 -133 c 128,-1,8
 111 -186 111 -186 45.5 -208 c 128,-1,9
 -20 -230 -20 -230 -137 -230 c 1,10,-1
 -127 -140 l 1,11,0
 -42 -140 -42 -140 -0.5 -128 c 128,-1,1
EndSplineSet
EndChar

StartChar: k
Encoding: 107 107 289
Width: 538
GlyphClass: 2
Flags: W
AnchorPoint: "Anchor-6" 217 750 basechar 0
AnchorPoint: "Anchor-4" 217 0 basechar 0
LayerCount: 2
Fore
SplineSet
139 750 m 1,0,-1
 241 750 l 1,1,-1
 170 305 l 1,2,-1
 172 305 l 1,3,-1
 412 520 l 1,4,-1
 544 520 l 1,5,-1
 254 270 l 1,6,-1
 471 0 l 1,7,-1
 339 0 l 1,8,-1
 161 234 l 1,9,-1
 159 234 l 1,10,-1
 122 0 l 1,11,-1
 21 0 l 1,12,-1
 139 750 l 1,0,-1
EndSplineSet
EndChar

StartChar: kgreenlandic
Encoding: 312 312 291
Width: 538
GlyphClass: 2
Flags: W
AnchorPoint: "Anchor-6" 217 520 basechar 0
AnchorPoint: "Anchor-4" 217 0 basechar 0
LayerCount: 2
Fore
SplineSet
103 520 m 1,0,-1
 204 520 l 1,1,-1
 170 305 l 1,2,-1
 172 305 l 1,3,-1
 412 520 l 1,4,-1
 544 520 l 1,5,-1
 254 270 l 1,6,-1
 471 0 l 1,7,-1
 339 0 l 1,8,-1
 161 234 l 1,9,-1
 159 234 l 1,10,-1
 122 0 l 1,11,-1
 21 0 l 1,12,-1
 103 520 l 1,0,-1
EndSplineSet
EndChar

StartChar: l
Encoding: 108 108 292
Width: 247
GlyphClass: 2
Flags: W
AnchorPoint: "Anchor-7" 203 750 basechar 0
AnchorPoint: "Anchor-6" 89 750 basechar 0
AnchorPoint: "Anchor-4" 89 0 basechar 0
LayerCount: 2
Fore
SplineSet
146 750 m 1,0,-1
 249 750 l 1,1,-1
 130 0 l 1,2,-1
 27 0 l 1,3,-1
 146 750 l 1,0,-1
EndSplineSet
EndChar

StartChar: lslash
Encoding: 322 322 298
Width: 429
GlyphClass: 2
Flags: W
AnchorPoint: "Anchor-7" 299 750 basechar 0
AnchorPoint: "Anchor-6" 184 750 basechar 0
AnchorPoint: "Anchor-4" 184 0 basechar 0
LayerCount: 2
Fore
SplineSet
441 407 m 1,0,-1
 275 339 l 1,1,-1
 221 0 l 1,2,-1
 118 0 l 1,3,-1
 164 292 l 1,4,-1
 35 239 l 1,5,-1
 14 323 l 1,6,-1
 180 391 l 1,7,-1
 237 750 l 1,8,-1
 340 750 l 1,9,-1
 291 438 l 1,10,-1
 420 491 l 1,11,-1
 441 407 l 1,0,-1
EndSplineSet
EndChar

StartChar: m
Encoding: 109 109 299
Width: 780
Flags: W
LayerCount: 2
Fore
SplineSet
720 479.5 m 128,-1,1
 745 429 745 429 727 320 c 2,2,-1
 677 0 l 1,3,-1
 577 0 l 1,4,-1
 625 300 l 2,5,6
 636 369 636 369 624 404.5 c 128,-1,7
 612 440 612 440 576 440 c 0,8,9
 548 440 548 440 519 416.5 c 128,-1,10
 490 393 490 393 469 354 c 128,-1,11
 448 315 448 315 441 269 c 2,12,-1
 398 0 l 1,13,-1
 299 0 l 1,14,-1
 346 300 l 2,15,16
 357 369 357 369 345 404.5 c 128,-1,17
 333 440 333 440 298 440 c 0,18,19
 269 440 269 440 240.5 415.5 c 128,-1,20
 212 391 212 391 190.5 348.5 c 128,-1,21
 169 306 169 306 161 255 c 2,22,-1
 120 0 l 1,23,-1
 21 0 l 1,24,-1
 103 520 l 1,25,-1
 198 520 l 1,26,-1
 188 449 l 1,27,-1
 189 449 l 1,28,29
 254 530 254 530 346 530 c 0,30,31
 433 530 433 530 451 449 c 1,32,-1
 453 449 l 1,33,34
 489 488 489 488 533 509 c 128,-1,35
 577 530 577 530 624 530 c 0,36,0
 695 530 695 530 720 479.5 c 128,-1,1
EndSplineSet
EndChar

StartChar: n
Encoding: 110 110 300
Width: 559
GlyphClass: 2
Flags: W
AnchorPoint: "Anchor-6" 256 520 basechar 0
AnchorPoint: "Anchor-4" 256 0 basechar 0
LayerCount: 2
Fore
SplineSet
491.5 478 m 128,-1,1
 523 426 523 426 506 320 c 2,2,-1
 455 0 l 1,3,-1
 354 0 l 1,4,-1
 401 300 l 2,5,6
 412 369 412 369 396 404.5 c 128,-1,7
 380 440 380 440 336 440 c 0,8,9
 299 440 299 440 262 415.5 c 128,-1,10
 225 391 225 391 198 350.5 c 128,-1,11
 171 310 171 310 164 265 c 2,12,-1
 122 0 l 1,13,-1
 21 0 l 1,14,-1
 103 520 l 1,15,-1
 200 520 l 1,16,-1
 189 444 l 1,17,-1
 190 444 l 1,18,19
 227 485 227 485 275.5 507.5 c 128,-1,20
 324 530 324 530 378 530 c 0,21,0
 460 530 460 530 491.5 478 c 128,-1,1
EndSplineSet
EndChar

StartChar: eng
Encoding: 331 331 304
Width: 559
GlyphClass: 2
Flags: W
AnchorPoint: "Anchor-6" 256 520 basechar 0
AnchorPoint: "Anchor-4" 256 0 basechar 0
LayerCount: 2
Fore
SplineSet
491.5 478 m 128,-1,1
 523 426 523 426 506 320 c 2,2,-1
 451 -26 l 2,3,4
 435 -129 435 -129 388.5 -175 c 128,-1,5
 342 -221 342 -221 254 -221 c 0,6,7
 198 -221 198 -221 148 -205 c 1,8,-1
 179 -114 l 1,9,10
 211 -126 211 -126 248 -126 c 0,11,12
 294 -126 294 -126 317.5 -102.5 c 128,-1,13
 341 -79 341 -79 350 -26 c 2,14,-1
 401 300 l 2,15,16
 412 369 412 369 396 404.5 c 128,-1,17
 380 440 380 440 336 440 c 0,18,19
 299 440 299 440 262 415.5 c 128,-1,20
 225 391 225 391 198 350.5 c 128,-1,21
 171 310 171 310 164 265 c 2,22,-1
 122 0 l 1,23,-1
 21 0 l 1,24,-1
 103 520 l 1,25,-1
 200 520 l 1,26,-1
 189 444 l 1,27,-1
 190 444 l 1,28,29
 227 485 227 485 275.5 507.5 c 128,-1,30
 324 530 324 530 378 530 c 0,31,0
 460 530 460 530 491.5 478 c 128,-1,1
EndSplineSet
EndChar

StartChar: o
Encoding: 111 111 307
Width: 544
GlyphClass: 2
Flags: W
AnchorPoint: "Anchor-7" 410 480 basechar 0
AnchorPoint: "Anchor-6" 246 520 basechar 0
AnchorPoint: "Anchor-5" 313 0 basechar 0
AnchorPoint: "Anchor-4" 246 0 basechar 0
LayerCount: 2
Fore
SplineSet
60.5 61 m 128,-1,1
 9 132 9 132 29 260 c 256,2,3
 49 388 49 388 123 459 c 128,-1,4
 197 530 197 530 311 530 c 256,5,6
 424 530 424 530 476 459 c 128,-1,7
 528 388 528 388 507 260 c 256,8,9
 487 132 487 132 413 61 c 128,-1,10
 339 -10 339 -10 225 -10 c 256,11,0
 112 -10 112 -10 60.5 61 c 128,-1,1
349.5 126 m 128,-1,13
 392 172 392 172 406 260 c 256,14,15
 420 348 420 348 392 394 c 128,-1,16
 364 440 364 440 297 440 c 256,17,18
 230 440 230 440 187 394 c 128,-1,19
 144 348 144 348 130 260 c 256,20,21
 116 172 116 172 144 126 c 128,-1,22
 172 80 172 80 240 80 c 256,23,12
 307 80 307 80 349.5 126 c 128,-1,13
EndSplineSet
Substitution2: "Single Substitution lookup 21 subtable" ordmasculine
Substitution2: "'aalt' Access All Alternates in Latin lookup 0 subtable" ordmasculine
EndChar

StartChar: uni1ED1
Encoding: 7889 7889 311
Width: 546
GlyphClass: 2
Flags: W
AnchorPoint: "Anchor-7" 410 480 basechar 0
AnchorPoint: "Anchor-6" 246 520 basechar 0
AnchorPoint: "Anchor-5" 313 0 basechar 0
AnchorPoint: "Anchor-4" 246 0 basechar 0
LayerCount: 2
Fore
SplineSet
340 720 m 1,0,-1
 229 560 l 1,1,-1
 107 560 l 1,2,-1
 257 770 l 1,3,-1
 437 770 l 1,4,-1
 543 950 l 1,5,-1
 675 950 l 1,6,-1
 523 740 l 1,7,-1
 453 740 l 1,8,-1
 525 560 l 1,9,-1
 402 560 l 1,10,-1
 342 720 l 1,11,-1
 340 720 l 1,0,-1
476 459 m 128,-1,13
 528 388 528 388 507 260 c 256,14,15
 487 132 487 132 413 61 c 128,-1,16
 339 -10 339 -10 225 -10 c 256,17,18
 112 -10 112 -10 60.5 61 c 128,-1,19
 9 132 9 132 29 260 c 256,20,21
 49 388 49 388 123 459 c 128,-1,22
 197 530 197 530 311 530 c 256,23,12
 424 530 424 530 476 459 c 128,-1,13
349.5 126 m 128,-1,25
 392 172 392 172 406 260 c 256,26,27
 420 348 420 348 392 394 c 128,-1,28
 364 440 364 440 297 440 c 256,29,30
 230 440 230 440 187 394 c 128,-1,31
 144 348 144 348 130 260 c 256,32,33
 116 172 116 172 144 126 c 128,-1,34
 172 80 172 80 240 80 c 256,35,24
 307 80 307 80 349.5 126 c 128,-1,25
EndSplineSet
EndChar

StartChar: uni1ED3
Encoding: 7891 7891 313
Width: 546
GlyphClass: 2
Flags: W
AnchorPoint: "Anchor-7" 410 480 basechar 0
AnchorPoint: "Anchor-6" 246 520 basechar 0
AnchorPoint: "Anchor-5" 313 0 basechar 0
AnchorPoint: "Anchor-4" 246 0 basechar 0
LayerCount: 2
Fore
SplineSet
237 740 m 1,0,-1
 168 740 l 1,1,-1
 83 950 l 1,2,-1
 215 950 l 1,3,-1
 263 770 l 1,4,-1
 443 770 l 1,5,-1
 527 560 l 1,6,-1
 405 560 l 1,7,-1
 344 720 l 1,8,-1
 343 720 l 1,9,-1
 232 560 l 1,10,-1
 109 560 l 1,11,-1
 237 740 l 1,0,-1
478.5 459 m 128,-1,13
 530 388 530 388 510 260 c 256,14,15
 490 132 490 132 415.5 61 c 128,-1,16
 341 -10 341 -10 228 -10 c 256,17,18
 115 -10 115 -10 63 61 c 128,-1,19
 11 132 11 132 31 260 c 256,20,21
 51 388 51 388 125.5 459 c 128,-1,22
 200 530 200 530 313 530 c 256,23,12
 427 530 427 530 478.5 459 c 128,-1,13
352 126 m 128,-1,25
 394 172 394 172 408 260 c 256,26,27
 422 348 422 348 394.5 394 c 128,-1,28
 367 440 367 440 299 440 c 256,29,30
 232 440 232 440 189.5 394 c 128,-1,31
 147 348 147 348 133 260 c 256,32,33
 119 172 119 172 147 126 c 128,-1,34
 175 80 175 80 242 80 c 256,35,24
 310 80 310 80 352 126 c 128,-1,25
EndSplineSet
EndChar

StartChar: uni1ED5
Encoding: 7893 7893 314
Width: 543
GlyphClass: 2
Flags: W
AnchorPoint: "Anchor-7" 410 480 basechar 0
AnchorPoint: "Anchor-6" 297 928 basechar 0
AnchorPoint: "Anchor-5" 313 0 basechar 0
AnchorPoint: "Anchor-4" 246 0 basechar 0
LayerCount: 2
Fore
SplineSet
433 770 m 1,0,1
 441 796 441 796 442 804 c 0,2,3
 445 826 445 826 432.5 833.5 c 128,-1,4
 420 841 420 841 383 841 c 0,5,6
 322 841 322 841 262 823 c 1,7,-1
 267 910 l 1,8,9
 341 928 341 928 421 928 c 0,10,11
 480 928 480 928 511 920.5 c 128,-1,12
 542 913 542 913 552.5 895.5 c 128,-1,13
 563 878 563 878 558 845 c 0,14,15
 554 821 554 821 544.5 791 c 128,-1,16
 535 761 535 761 522 738 c 1,17,-1
 453 738 l 1,18,-1
 524 560 l 1,19,-1
 402 560 l 1,20,-1
 342 720 l 1,21,-1
 340 720 l 1,22,-1
 229 560 l 1,23,-1
 107 560 l 1,24,-1
 257 770 l 1,25,-1
 433 770 l 1,0,1
475.5 459 m 128,-1,27
 527 388 527 388 507 260 c 256,28,29
 487 132 487 132 413 61 c 128,-1,30
 339 -10 339 -10 225 -10 c 256,31,32
 112 -10 112 -10 60.5 61 c 128,-1,33
 9 132 9 132 29 260 c 256,34,35
 49 388 49 388 123 459 c 128,-1,36
 197 530 197 530 311 530 c 256,37,26
 424 530 424 530 475.5 459 c 128,-1,27
349 126 m 128,-1,39
 391 172 391 172 405 260 c 256,40,41
 419 348 419 348 391.5 394 c 128,-1,42
 364 440 364 440 296 440 c 256,43,44
 229 440 229 440 186.5 394 c 128,-1,45
 144 348 144 348 130 260 c 256,46,47
 116 172 116 172 144 126 c 128,-1,48
 172 80 172 80 239 80 c 256,49,38
 307 80 307 80 349 126 c 128,-1,39
EndSplineSet
EndChar

StartChar: ohorn
Encoding: 417 417 323
Width: 602
GlyphClass: 2
Flags: W
AnchorPoint: "Anchor-7" 648 630 basechar 0
AnchorPoint: "Anchor-6" 246 520 basechar 0
AnchorPoint: "Anchor-5" 313 0 basechar 0
AnchorPoint: "Anchor-4" 246 0 basechar 0
LayerCount: 2
Fore
SplineSet
618.5 403.5 m 128,-1,1
 581 365 581 365 523 365 c 2,2,-1
 511 365 l 1,3,4
 517 317 517 317 507 260 c 0,5,6
 487 132 487 132 413 61 c 128,-1,7
 339 -10 339 -10 225 -10 c 256,8,9
 112 -10 112 -10 60.5 61 c 128,-1,10
 9 132 9 132 29 260 c 256,11,12
 49 388 49 388 123.5 459 c 128,-1,13
 198 530 198 530 311 530 c 0,14,15
 419 530 419 530 471 466 c 1,16,17
 483 458 483 458 501 458 c 0,18,19
 526 458 526 458 542.5 475.5 c 128,-1,20
 559 493 559 493 564 524 c 0,21,22
 568 547 568 547 566.5 579 c 128,-1,23
 565 611 565 611 560 630 c 1,24,-1
 667 630 l 1,25,26
 676 568 676 568 667 510 c 0,27,0
 656 442 656 442 618.5 403.5 c 128,-1,1
349.5 126 m 128,-1,29
 392 172 392 172 406 260 c 256,30,31
 420 348 420 348 392 394 c 128,-1,32
 364 440 364 440 297 440 c 256,33,34
 230 440 230 440 187 394 c 128,-1,35
 144 348 144 348 130 260 c 256,36,37
 116 172 116 172 144 126 c 128,-1,38
 172 80 172 80 240 80 c 256,39,28
 307 80 307 80 349.5 126 c 128,-1,29
EndSplineSet
EndChar

StartChar: uni01EB
Encoding: 491 491 332
Width: 543
GlyphClass: 2
Flags: W
AnchorPoint: "Anchor-7" 409 480 basechar 0
AnchorPoint: "Anchor-6" 245 520 basechar 0
AnchorPoint: "Anchor-5" 312 0 basechar 0
AnchorPoint: "Anchor-4" 245 0 basechar 0
LayerCount: 2
Fore
SplineSet
193 -93 m 0,1,2
 190 -111 190 -111 205.5 -120.5 c 128,-1,3
 221 -130 221 -130 252 -130 c 0,4,5
 298 -130 298 -130 340 -111 c 1,6,-1
 342 -196 l 1,7,8
 290 -217 290 -217 230 -217 c 0,9,10
 157 -217 157 -217 121.5 -189.5 c 128,-1,11
 86 -162 86 -162 94 -112 c 0,12,13
 103 -55 103 -55 163 -4 c 1,14,15
 81 15 81 15 46.5 83 c 128,-1,16
 12 151 12 151 29 260 c 0,17,18
 49 388 49 388 123 459 c 128,-1,19
 197 530 197 530 310 530 c 256,20,21
 423 530 423 530 475 459 c 128,-1,22
 527 388 527 388 506 260 c 0,23,24
 488 148 488 148 429.5 79.5 c 128,-1,25
 371 11 371 11 279 -5 c 1,26,0
 199 -54 199 -54 193 -93 c 0,1,2
144.5 126 m 128,-1,28
 172 80 172 80 239 80 c 256,29,30
 306 80 306 80 348.5 126 c 128,-1,31
 391 172 391 172 405 260 c 256,32,33
 419 348 419 348 391 394 c 128,-1,34
 363 440 363 440 296 440 c 256,35,36
 229 440 229 440 186.5 394 c 128,-1,37
 144 348 144 348 130 260 c 256,38,27
 117 172 117 172 144.5 126 c 128,-1,28
EndSplineSet
EndChar

StartChar: oslash
Encoding: 248 248 333
Width: 544
GlyphClass: 2
Flags: W
AnchorPoint: "Anchor-7" 410 480 basechar 0
AnchorPoint: "Anchor-6" 246 520 basechar 0
AnchorPoint: "Anchor-5" 313 0 basechar 0
AnchorPoint: "Anchor-4" 246 0 basechar 0
LayerCount: 2
Fore
SplineSet
507 260 m 0,1,2
 487 132 487 132 413 61 c 128,-1,3
 339 -10 339 -10 225 -10 c 0,4,5
 156 -10 156 -10 107 18 c 1,6,-1
 62 -34 l 1,7,-1
 10 14 l 1,8,-1
 56 67 l 1,9,10
 10 137 10 137 29 260 c 0,11,12
 49 388 49 388 123.5 459 c 128,-1,13
 198 530 198 530 311 530 c 0,14,15
 380 530 380 530 429 502 c 1,16,-1
 474 554 l 1,17,-1
 527 506 l 1,18,-1
 481 453 l 1,19,0
 526 383 526 383 507 260 c 0,1,2
131 156 m 1,21,-1
 363 424 l 1,22,23
 338 440 338 440 297 440 c 0,24,25
 230 440 230 440 187 394 c 128,-1,26
 144 348 144 348 130 260 c 0,27,20
 121 198 121 198 131 156 c 1,21,-1
349.5 126 m 128,-1,29
 392 172 392 172 406 260 c 0,30,31
 416 322 416 322 405 364 c 1,32,-1
 174 96 l 1,33,34
 199 80 199 80 240 80 c 0,35,28
 307 80 307 80 349.5 126 c 128,-1,29
EndSplineSet
EndChar

StartChar: oe
Encoding: 339 339 337
Width: 901
Flags: W
LayerCount: 2
Fore
SplineSet
858 215 m 1,1,-1
 499 215 l 1,2,3
 489 80 489 80 633 80 c 0,4,5
 672 80 672 80 714 89.5 c 128,-1,6
 756 99 756 99 788 115 c 1,7,-1
 797 32 l 1,8,9
 756 12 756 12 708.5 1 c 128,-1,10
 661 -10 661 -10 613 -10 c 0,11,12
 478 -10 478 -10 427 77 c 1,13,14
 390 34 390 34 339 12 c 128,-1,15
 288 -10 288 -10 226 -10 c 0,16,17
 112 -10 112 -10 60.5 61 c 128,-1,18
 9 132 9 132 29 260 c 256,19,20
 49 388 49 388 123.5 459 c 128,-1,21
 198 530 198 530 311 530 c 0,22,23
 436 530 436 530 485 444 c 1,24,25
 560 530 560 530 684 530 c 0,26,27
 794 530 794 530 840.5 460.5 c 128,-1,28
 887 391 887 391 867 260 c 0,29,0
 864 239 864 239 858 215 c 1,1,-1
568 407 m 128,-1,31
 529 372 529 372 513 300 c 1,32,-1
 776 300 l 1,33,34
 783 374 783 374 757 408 c 128,-1,35
 731 442 731 442 669 442 c 256,36,30
 607 442 607 442 568 407 c 128,-1,31
349.5 126 m 128,-1,38
 392 172 392 172 406 260 c 256,39,40
 420 348 420 348 392 394 c 128,-1,41
 364 440 364 440 297 440 c 256,42,43
 230 440 230 440 187 394 c 128,-1,44
 144 348 144 348 130 260 c 256,45,46
 116 172 116 172 144 126 c 128,-1,47
 172 80 172 80 240 80 c 256,48,37
 307 80 307 80 349.5 126 c 128,-1,38
EndSplineSet
EndChar

StartChar: p
Encoding: 112 112 338
Width: 554
Flags: W
LayerCount: 2
Fore
SplineSet
501 460 m 128,-1,1
 539 390 539 390 518 260 c 256,2,3
 497 130 497 130 437 60 c 128,-1,4
 377 -10 377 -10 284 -10 c 0,5,6
 234 -10 234 -10 195 11 c 128,-1,7
 156 32 156 32 135 71 c 1,8,-1
 133 71 l 1,9,-1
 87 -220 l 1,10,-1
 -14 -220 l 1,11,-1
 103 520 l 1,12,-1
 200 520 l 1,13,-1
 189 449 l 1,14,-1
 191 449 l 1,15,16
 226 488 226 488 272.5 509 c 128,-1,17
 319 530 319 530 370 530 c 0,18,0
 463 530 463 530 501 460 c 128,-1,1
364.5 128.5 m 128,-1,20
 404 177 404 177 417 260 c 256,21,22
 430 343 430 343 406 391.5 c 128,-1,23
 382 440 382 440 327 440 c 0,24,25
 291 440 291 440 256 419 c 128,-1,26
 221 398 221 398 197.5 362 c 128,-1,27
 174 326 174 326 167 283 c 2,28,-1
 160 237 l 2,29,30
 153 194 153 194 165 158 c 128,-1,31
 177 122 177 122 205.5 101 c 128,-1,32
 234 80 234 80 270 80 c 0,33,19
 325 80 325 80 364.5 128.5 c 128,-1,20
EndSplineSet
EndChar

StartChar: thorn
Encoding: 254 254 339
Width: 558
Flags: W
LayerCount: 2
Fore
SplineSet
501 460 m 128,-1,1
 539 390 539 390 518 260 c 256,2,3
 497 130 497 130 437 60 c 128,-1,4
 377 -10 377 -10 284 -10 c 0,5,6
 234 -10 234 -10 195 11 c 128,-1,7
 156 32 156 32 135 71 c 1,8,-1
 133 71 l 1,9,-1
 87 -220 l 1,10,-1
 -14 -220 l 1,11,-1
 139 750 l 1,12,-1
 241 750 l 1,13,-1
 193 449 l 1,14,-1
 195 449 l 1,15,16
 228 488 228 488 274 509 c 128,-1,17
 320 530 320 530 370 530 c 0,18,0
 463 530 463 530 501 460 c 128,-1,1
364.5 128.5 m 128,-1,20
 404 177 404 177 417 260 c 256,21,22
 430 343 430 343 406 391.5 c 128,-1,23
 382 440 382 440 327 440 c 0,24,25
 291 440 291 440 256 419 c 128,-1,26
 221 398 221 398 197.5 362 c 128,-1,27
 174 326 174 326 167 283 c 2,28,-1
 160 237 l 2,29,30
 153 194 153 194 165 158 c 128,-1,31
 177 122 177 122 205.5 101 c 128,-1,32
 234 80 234 80 270 80 c 0,33,19
 325 80 325 80 364.5 128.5 c 128,-1,20
EndSplineSet
EndChar

StartChar: q
Encoding: 113 113 340
Width: 554
Flags: W
LayerCount: 2
Fore
SplineSet
527 520 m 1,0,-1
 410 -220 l 1,1,-1
 308 -220 l 1,2,-1
 354 71 l 1,3,-1
 352 71 l 1,4,5
 319 32 319 32 273.5 11 c 128,-1,6
 228 -10 228 -10 177 -10 c 0,7,8
 84 -10 84 -10 46 60 c 128,-1,9
 8 130 8 130 29 260 c 256,10,11
 50 390 50 390 110 460 c 128,-1,12
 170 530 170 530 263 530 c 0,13,14
 314 530 314 530 354 509 c 128,-1,15
 394 488 394 488 416 449 c 1,16,-1
 418 449 l 1,17,-1
 430 520 l 1,18,-1
 527 520 l 1,0,-1
291.5 101 m 128,-1,20
 326 122 326 122 350 158 c 128,-1,21
 374 194 374 194 380 237 c 2,22,-1
 388 283 l 2,23,24
 395 326 395 326 382.5 362 c 128,-1,25
 370 398 370 398 342 419 c 128,-1,26
 314 440 314 440 278 440 c 0,27,28
 223 440 223 440 183.5 391.5 c 128,-1,29
 144 343 144 343 130 260 c 256,30,31
 117 177 117 177 141.5 128.5 c 128,-1,32
 166 80 166 80 221 80 c 0,33,19
 257 80 257 80 291.5 101 c 128,-1,20
EndSplineSet
EndChar

StartChar: r
Encoding: 114 114 341
Width: 408
GlyphClass: 2
Flags: W
AnchorPoint: "Anchor-6" 186 520 basechar 0
AnchorPoint: "Anchor-4" 186 0 basechar 0
LayerCount: 2
Fore
SplineSet
296 501 m 128,-1,1
 360 530 360 530 431 530 c 1,2,-1
 416 435 l 1,3,4
 355 435 355 435 299.5 410.5 c 128,-1,5
 244 386 244 386 207.5 343.5 c 128,-1,6
 171 301 171 301 163 250 c 2,7,-1
 123 0 l 1,8,-1
 21 0 l 1,9,-1
 103 520 l 1,10,-1
 201 520 l 1,11,-1
 186 419 l 1,12,-1
 187 419 l 1,13,0
 232 472 232 472 296 501 c 128,-1,1
EndSplineSet
EndChar

StartChar: s
Encoding: 115 115 347
Width: 466
GlyphClass: 2
Flags: W
AnchorPoint: "Anchor-6" 206 520 basechar 0
AnchorPoint: "Anchor-4" 206 0 basechar 0
LayerCount: 2
Fore
SplineSet
83 1 m 128,-1,1
 32 12 32 12 -7 32 c 1,2,-1
 35 117 l 1,3,4
 111 80 111 80 188 80 c 0,5,6
 298 80 298 80 308 143 c 0,7,8
 311 162 311 162 304 174.5 c 128,-1,9
 297 187 297 187 275.5 197.5 c 128,-1,10
 254 208 254 208 212 220 c 0,11,12
 115 247 115 247 78 285 c 128,-1,13
 41 323 41 323 51 385 c 0,14,15
 62 456 62 456 118 493 c 128,-1,16
 174 530 174 530 269 530 c 0,17,18
 317 530 317 530 367 520.5 c 128,-1,19
 417 511 417 511 455 494 c 1,20,-1
 414 409 l 1,21,22
 344 441 344 441 268 441 c 0,23,24
 163 441 163 441 154 385 c 0,25,26
 150 358 150 358 169 342 c 128,-1,27
 188 326 188 326 246 311 c 0,28,29
 342 287 342 287 381.5 247 c 128,-1,30
 421 207 421 207 411 143 c 0,31,32
 399 69 399 69 341.5 29.5 c 128,-1,33
 284 -10 284 -10 186 -10 c 0,34,0
 134 -10 134 -10 83 1 c 128,-1,1
EndSplineSet
EndChar

StartChar: scedilla
Encoding: 351 351 350
Width: 465
GlyphClass: 2
Flags: W
AnchorPoint: "Anchor-6" 206 520 basechar 0
AnchorPoint: "Anchor-4" 206 0 basechar 0
LayerCount: 2
Fore
SplineSet
364.5 48.5 m 128,-1,1
 328 12 328 12 265 -2 c 1,2,3
 310 -55 310 -55 301 -112 c 0,4,5
 293 -162 293 -162 249 -189.5 c 128,-1,6
 205 -217 205 -217 133 -217 c 0,7,8
 73 -217 73 -217 27 -196 c 1,9,-1
 57 -111 l 1,10,11
 93 -130 93 -130 138 -130 c 0,12,13
 169 -130 169 -130 187.5 -120.5 c 128,-1,14
 206 -111 206 -111 208 -93 c 256,15,16
 211 -75 211 -75 197 -53 c 128,-1,17
 183 -31 183 -31 155 -9 c 1,18,19
 60 -3 60 -3 -7 32 c 1,20,-1
 35 117 l 1,21,22
 110 80 110 80 187 80 c 0,23,24
 297 80 297 80 307 143 c 0,25,26
 310 162 310 162 303 174.5 c 128,-1,27
 296 187 296 187 274.5 197.5 c 128,-1,28
 253 208 253 208 211 220 c 0,29,30
 114 247 114 247 77.5 285 c 128,-1,31
 41 323 41 323 51 385 c 0,32,33
 62 456 62 456 118 493 c 128,-1,34
 174 530 174 530 269 530 c 0,35,36
 317 530 317 530 367 520.5 c 128,-1,37
 417 511 417 511 455 494 c 1,38,-1
 413 409 l 1,39,40
 343 441 343 441 268 441 c 0,41,42
 163 441 163 441 154 385 c 0,43,44
 150 358 150 358 169 342 c 128,-1,45
 188 326 188 326 246 311 c 0,46,47
 341 287 341 287 380.5 247 c 128,-1,48
 420 207 420 207 410 143 c 0,49,0
 401 85 401 85 364.5 48.5 c 128,-1,1
EndSplineSet
Substitution2: "'locl' Localized Forms in Latin lookup 4 subtable" uni0219
Substitution2: "'aalt' Access All Alternates in Latin lookup 0 subtable" uni0219
EndChar

StartChar: germandbls
Encoding: 223 223 353
Width: 565
Flags: W
LayerCount: 2
Fore
SplineSet
176 8 m 1,1,-1
 205 103 l 1,2,3
 258 85 258 85 299 85 c 0,4,5
 344 85 344 85 374.5 106.5 c 128,-1,6
 405 128 405 128 411 164 c 0,7,8
 414 186 414 186 401.5 210.5 c 128,-1,9
 389 235 389 235 341 300 c 0,10,11
 316 334 316 334 307.5 356.5 c 128,-1,12
 299 379 299 379 302 398 c 0,13,14
 305 414 305 414 317.5 433 c 128,-1,15
 330 452 330 452 363 489 c 0,16,17
 408 538 408 538 426.5 563.5 c 128,-1,18
 445 589 445 589 448 609 c 0,19,20
 453 638 453 638 428.5 651.5 c 128,-1,21
 404 665 404 665 348 665 c 0,22,23
 300 665 300 665 272.5 653.5 c 128,-1,24
 245 642 245 642 230 615 c 128,-1,25
 215 588 215 588 207 537 c 2,26,-1
 122 0 l 1,27,-1
 21 0 l 1,28,-1
 106 538 l 2,29,30
 124 653 124 653 185 706.5 c 128,-1,31
 246 760 246 760 359 760 c 0,32,33
 460 760 460 760 510 722 c 128,-1,34
 560 684 560 684 549 615 c 0,35,36
 544 584 544 584 525 553.5 c 128,-1,37
 506 523 506 523 459 469 c 0,38,39
 429 435 429 435 418 420 c 128,-1,40
 407 405 407 405 406 398 c 0,41,42
 405 389 405 389 412.5 375 c 128,-1,43
 420 361 420 361 447 324 c 0,44,45
 489 266 489 266 502 229.5 c 128,-1,46
 515 193 515 193 509 153 c 0,47,48
 497 77 497 77 441.5 33.5 c 128,-1,49
 386 -10 386 -10 300 -10 c 0,50,0
 241 -10 241 -10 176 8 c 1,1,-1
EndSplineSet
EndChar

StartChar: t
Encoding: 116 116 354
Width: 453
GlyphClass: 2
Flags: W
AnchorPoint: "Anchor-8" 190 0 basechar 0
AnchorPoint: "Anchor-7" 419 520 basechar 0
AnchorPoint: "Anchor-6" 197 520 basechar 0
AnchorPoint: "Anchor-4" 197 0 basechar 0
LayerCount: 2
Fore
SplineSet
127 29 m 128,-1,1
 98 68 98 68 113 160 c 2,2,-1
 155 430 l 1,3,-1
 39 430 l 1,4,-1
 54 520 l 1,5,-1
 170 520 l 1,6,-1
 200 710 l 1,7,-1
 302 710 l 1,8,-1
 272 520 l 1,9,-1
 441 520 l 1,10,-1
 427 430 l 1,11,-1
 258 430 l 1,12,-1
 218 180 l 2,13,14
 212 140 212 140 215.5 119 c 128,-1,15
 219 98 219 98 233.5 89 c 128,-1,16
 248 80 248 80 278 80 c 0,17,18
 317 80 317 80 361 94 c 1,19,-1
 362 8 l 1,20,21
 297 -10 297 -10 239 -10 c 0,22,0
 156 -10 156 -10 127 29 c 128,-1,1
EndSplineSet
EndChar

StartChar: tbar
Encoding: 359 359 355
Width: 445
GlyphClass: 2
Flags: W
AnchorPoint: "Anchor-8" 190 0 basechar 0
AnchorPoint: "Anchor-7" 419 520 basechar 0
AnchorPoint: "Anchor-6" 197 520 basechar 0
AnchorPoint: "Anchor-4" 197 0 basechar 0
LayerCount: 2
Fore
SplineSet
362 8 m 1,0,1
 297 -10 297 -10 239 -10 c 0,2,3
 156 -10 156 -10 127 29 c 128,-1,4
 98 68 98 68 113 160 c 2,5,-1
 120 205 l 1,6,-1
 4 205 l 1,7,-1
 18 295 l 1,8,-1
 134 295 l 1,9,-1
 155 430 l 1,10,-1
 39 430 l 1,11,-1
 54 520 l 1,12,-1
 170 520 l 1,13,-1
 200 710 l 1,14,-1
 302 710 l 1,15,-1
 272 520 l 1,16,-1
 441 520 l 1,17,-1
 427 430 l 1,18,-1
 258 430 l 1,19,-1
 236 295 l 1,20,-1
 397 295 l 1,21,-1
 383 205 l 1,22,-1
 222 205 l 1,23,-1
 218 180 l 2,24,25
 212 140 212 140 215.5 119 c 128,-1,26
 219 98 219 98 233.5 89 c 128,-1,27
 248 80 248 80 278 80 c 0,28,29
 317 80 317 80 361 94 c 1,30,-1
 362 8 l 1,0,1
EndSplineSet
EndChar

StartChar: uni0163
Encoding: 355 355 357
Width: 452
GlyphClass: 2
Flags: W
AnchorPoint: "Anchor-8" 190 0 basechar 0
AnchorPoint: "Anchor-7" 418 520 basechar 0
AnchorPoint: "Anchor-6" 197 520 basechar 0
AnchorPoint: "Anchor-4" 197 0 basechar 0
LayerCount: 2
Fore
SplineSet
334 -112 m 0,1,2
 326 -162 326 -162 282.5 -189.5 c 128,-1,3
 239 -217 239 -217 166 -217 c 0,4,5
 106 -217 106 -217 61 -196 c 1,6,-1
 90 -111 l 1,7,8
 126 -130 126 -130 171 -130 c 0,9,10
 202 -130 202 -130 220.5 -120.5 c 128,-1,11
 239 -111 239 -111 242 -93 c 0,12,13
 245 -73 245 -73 229 -50 c 128,-1,14
 213 -27 213 -27 182 -4 c 1,15,16
 133 7 133 7 117 46 c 128,-1,17
 101 85 101 85 113 160 c 2,18,-1
 155 430 l 1,19,-1
 39 430 l 1,20,-1
 54 520 l 1,21,-1
 170 520 l 1,22,-1
 200 710 l 1,23,-1
 302 710 l 1,24,-1
 272 520 l 1,25,-1
 440 520 l 1,26,-1
 426 430 l 1,27,-1
 258 430 l 1,28,-1
 218 180 l 2,29,30
 212 140 212 140 215 119 c 128,-1,31
 218 98 218 98 233 89 c 128,-1,32
 248 80 248 80 278 80 c 0,33,34
 317 80 317 80 360 94 c 1,35,-1
 361 8 l 1,36,37
 333 0 333 0 302 -5 c 1,38,0
 343 -56 343 -56 334 -112 c 0,1,2
EndSplineSet
Substitution2: "'locl' Localized Forms in Latin lookup 4 subtable" uni021B
Substitution2: "'aalt' Access All Alternates in Latin lookup 0 subtable" uni021B
EndChar

StartChar: u
Encoding: 117 117 359
Width: 550
GlyphClass: 2
Flags: W
AnchorPoint: "Anchor-7" 458 480 basechar 0
AnchorPoint: "Anchor-6" 251 520 basechar 0
AnchorPoint: "Anchor-5" 473 0 basechar 0
AnchorPoint: "Anchor-4" 251 0 basechar 0
LayerCount: 2
Fore
SplineSet
522 520 m 1,0,-1
 439 0 l 1,1,-1
 343 0 l 1,2,-1
 354 76 l 1,3,-1
 352 76 l 1,4,5
 314 35 314 35 265 12.5 c 128,-1,6
 216 -10 216 -10 164 -10 c 0,7,8
 86 -10 86 -10 57.5 41 c 128,-1,9
 29 92 29 92 46 200 c 2,10,-1
 97 520 l 1,11,-1
 198 520 l 1,12,-1
 151 220 l 2,13,14
 139 147 139 147 152 113.5 c 128,-1,15
 165 80 165 80 206 80 c 0,16,17
 243 80 243 80 280.5 104.5 c 128,-1,18
 318 129 318 129 344.5 169.5 c 128,-1,19
 371 210 371 210 378 255 c 2,20,-1
 420 520 l 1,21,-1
 522 520 l 1,0,-1
EndSplineSet
EndChar

StartChar: uhorn
Encoding: 432 432 368
Width: 634
GlyphClass: 2
Flags: W
AnchorPoint: "Anchor-7" 697 630 basechar 0
AnchorPoint: "Anchor-6" 251 520 basechar 0
AnchorPoint: "Anchor-5" 473 0 basechar 0
AnchorPoint: "Anchor-4" 251 0 basechar 0
LayerCount: 2
Fore
SplineSet
711 510 m 0,1,2
 700 442 700 442 662.5 403.5 c 128,-1,3
 625 365 625 365 567 365 c 0,4,5
 534 365 534 365 500 379 c 1,6,-1
 439 0 l 1,7,-1
 343 0 l 1,8,-1
 354 76 l 1,9,-1
 352 76 l 1,10,11
 314 35 314 35 265 12.5 c 128,-1,12
 216 -10 216 -10 164 -10 c 0,13,14
 86 -10 86 -10 57.5 41 c 128,-1,15
 29 92 29 92 46 200 c 2,16,-1
 97 520 l 1,17,-1
 198 520 l 1,18,-1
 151 220 l 2,19,20
 139 147 139 147 152 113.5 c 128,-1,21
 165 80 165 80 206 80 c 0,22,23
 243 80 243 80 280.5 104.5 c 128,-1,24
 318 129 318 129 344.5 169.5 c 128,-1,25
 371 210 371 210 378 255 c 2,26,-1
 420 520 l 1,27,-1
 522 520 l 1,28,-1
 513 467 l 1,29,30
 526 458 526 458 545 458 c 0,31,32
 570 458 570 458 586.5 475.5 c 128,-1,33
 603 493 603 493 608 524 c 0,34,35
 612 547 612 547 610.5 579 c 128,-1,36
 609 611 609 611 605 630 c 1,37,-1
 711 630 l 1,38,0
 720 568 720 568 711 510 c 0,1,2
EndSplineSet
EndChar

StartChar: uogonek
Encoding: 371 371 377
Width: 552
GlyphClass: 2
Flags: W
AnchorPoint: "Anchor-7" 457 480 basechar 0
AnchorPoint: "Anchor-6" 251 520 basechar 0
AnchorPoint: "Anchor-5" 473 0 basechar 0
AnchorPoint: "Anchor-4" 251 0 basechar 0
LayerCount: 2
Fore
SplineSet
492 -196 m 1,0,1
 441 -217 441 -217 380 -217 c 0,2,3
 307 -217 307 -217 272 -189.5 c 128,-1,4
 237 -162 237 -162 245 -112 c 0,5,6
 256 -41 256 -41 345 20 c 1,7,-1
 353 76 l 1,8,-1
 351 76 l 1,9,10
 313 35 313 35 264.5 12.5 c 128,-1,11
 216 -10 216 -10 164 -10 c 0,12,13
 86 -10 86 -10 57.5 41 c 128,-1,14
 29 92 29 92 46 200 c 2,15,-1
 97 520 l 1,16,-1
 198 520 l 1,17,-1
 151 220 l 2,18,19
 139 147 139 147 152 113.5 c 128,-1,20
 165 80 165 80 206 80 c 0,21,22
 243 80 243 80 280 104.5 c 128,-1,23
 317 129 317 129 343.5 169.5 c 128,-1,24
 370 210 370 210 378 255 c 2,25,-1
 420 520 l 1,26,-1
 521 520 l 1,27,-1
 439 0 l 1,28,29
 398 -24 398 -24 372.5 -48.5 c 128,-1,30
 347 -73 347 -73 344 -93 c 0,31,32
 341 -111 341 -111 356 -120.5 c 128,-1,33
 371 -130 371 -130 402 -130 c 0,34,35
 447 -130 447 -130 490 -111 c 1,36,-1
 492 -196 l 1,0,1
EndSplineSet
EndChar

StartChar: v
Encoding: 118 118 380
Width: 506
Flags: W
LayerCount: 2
Fore
SplineSet
46 520 m 1,0,-1
 159 520 l 1,1,-1
 220 78 l 1,2,-1
 222 78 l 1,3,-1
 423 520 l 1,4,-1
 535 520 l 1,5,-1
 280 0 l 1,6,-1
 136 0 l 1,7,-1
 46 520 l 1,0,-1
EndSplineSet
EndChar

StartChar: w
Encoding: 119 119 381
Width: 748
GlyphClass: 2
Flags: W
AnchorPoint: "Anchor-6" 354 520 basechar 0
AnchorPoint: "Anchor-4" 354 0 basechar 0
LayerCount: 2
Fore
SplineSet
59 520 m 1,0,-1
 171 520 l 1,1,-1
 190 105 l 1,2,-1
 192 105 l 1,3,-1
 342 520 l 1,4,-1
 481 520 l 1,5,-1
 500 105 l 1,6,-1
 502 105 l 1,7,-1
 652 520 l 1,8,-1
 764 520 l 1,9,-1
 548 0 l 1,10,-1
 415 0 l 1,11,-1
 394 405 l 1,12,-1
 392 405 l 1,13,-1
 244 0 l 1,14,-1
 111 0 l 1,15,-1
 59 520 l 1,0,-1
EndSplineSet
EndChar

StartChar: x
Encoding: 120 120 386
Width: 523
Flags: W
LayerCount: 2
Fore
SplineSet
184 262 m 1,0,-1
 73 520 l 1,1,-1
 191 520 l 1,2,-1
 266 320 l 1,3,-1
 268 320 l 1,4,-1
 407 520 l 1,5,-1
 525 520 l 1,6,-1
 332 262 l 1,7,-1
 447 0 l 1,8,-1
 329 0 l 1,9,-1
 250 204 l 1,10,-1
 248 204 l 1,11,-1
 105 0 l 1,12,-1
 -13 0 l 1,13,-1
 184 262 l 1,0,-1
EndSplineSet
EndChar

StartChar: y
Encoding: 121 121 387
Width: 507
GlyphClass: 2
Flags: W
AnchorPoint: "Anchor-6" 226 520 basechar 0
AnchorPoint: "Anchor-4" 226 0 basechar 0
LayerCount: 2
Fore
SplineSet
426 520 m 1,0,-1
 540 520 l 1,1,-1
 141 -220 l 1,2,-1
 30 -220 l 1,3,-1
 157 -7 l 1,4,-1
 46 520 l 1,5,-1
 160 520 l 1,6,-1
 226 118 l 1,7,-1
 228 118 l 1,8,-1
 426 520 l 1,0,-1
EndSplineSet
EndChar

StartChar: z
Encoding: 122 122 396
Width: 497
GlyphClass: 2
Flags: W
AnchorPoint: "Anchor-6" 222 520 basechar 0
AnchorPoint: "Anchor-4" 222 0 basechar 0
LayerCount: 2
Fore
SplineSet
18 90 m 1,0,-1
 342 428 l 1,1,-1
 342 430 l 1,2,-1
 72 430 l 1,3,-1
 87 520 l 1,4,-1
 485 520 l 1,5,-1
 471 430 l 1,6,-1
 148 92 l 1,7,-1
 148 90 l 1,8,-1
 417 90 l 1,9,-1
 403 0 l 1,10,-1
 4 0 l 1,11,-1
 18 90 l 1,0,-1
EndSplineSet
EndChar

StartChar: f_f
Encoding: 65538 -1 400
Width: 784
GlyphClass: 3
Flags: W
LayerCount: 2
Fore
SplineSet
641 520 m 1,0,-1
 795 520 l 1,1,-1
 781 430 l 1,2,-1
 627 430 l 1,3,-1
 559 0 l 1,4,-1
 456 0 l 1,5,-1
 524 430 l 1,6,-1
 277 430 l 1,7,-1
 209 0 l 1,8,-1
 105 0 l 1,9,-1
 173 430 l 1,10,-1
 43 430 l 1,11,-1
 57 520 l 1,12,-1
 188 520 l 1,13,-1
 196 575 l 2,14,15
 225 760 225 760 384 760 c 0,16,17
 433 760 433 760 487 745 c 1,18,-1
 458 657 l 1,19,20
 420 670 420 670 385 670 c 0,21,22
 345 670 345 670 326.5 649.5 c 128,-1,23
 308 629 308 629 300 575 c 2,24,-1
 291 520 l 1,25,-1
 538 520 l 1,26,-1
 547 575 l 2,27,28
 576 760 576 760 734 760 c 0,29,30
 783 760 783 760 838 745 c 1,31,-1
 808 657 l 1,32,33
 770 670 770 670 735 670 c 0,34,35
 695 670 695 670 677 649.5 c 128,-1,36
 659 629 659 629 650 575 c 2,37,-1
 641 520 l 1,0,-1
EndSplineSet
Ligature2: "'liga' Standard Ligatures in Latin lookup 14 subtable" f f
EndChar

StartChar: ordfeminine
Encoding: 170 170 405
Width: 432
Flags: W
LayerCount: 2
Fore
SplineSet
406 700 m 128,-1,1
 438 662 438 662 424 574 c 2,2,-1
 383 314 l 1,3,-1
 286 314 l 1,4,-1
 293 361 l 1,5,-1
 291 361 l 1,6,7
 268 336 268 336 232.5 321 c 128,-1,8
 197 306 197 306 159 306 c 0,9,10
 100 306 100 306 69 341.5 c 128,-1,11
 38 377 38 377 47 433 c 0,12,13
 58 505 58 505 125.5 544 c 128,-1,14
 193 583 193 583 306 583 c 2,15,-1
 325 583 l 1,16,17
 330 628 330 628 315.5 645 c 128,-1,18
 301 662 301 662 259 662 c 0,19,20
 186 662 186 662 110 625 c 1,21,-1
 107 700 l 1,22,23
 195 738 195 738 287 738 c 0,24,0
 374 738 374 738 406 700 c 128,-1,1
271 409.5 m 128,-1,26
 301 434 301 434 307 473 c 2,27,-1
 314 512 l 1,28,-1
 285 512 l 2,29,30
 149 512 149 512 138 442 c 0,31,32
 134 415 134 415 150 400 c 128,-1,33
 166 385 166 385 198 385 c 0,34,25
 241 385 241 385 271 409.5 c 128,-1,26
EndSplineSet
EndChar

StartChar: ordmasculine
Encoding: 186 186 406
Width: 454
Flags: W
LayerCount: 2
Fore
SplineSet
92.5 362.5 m 128,-1,1
 50 419 50 419 67 522 c 256,2,3
 83 625 83 625 143.5 681.5 c 128,-1,4
 204 738 204 738 299 738 c 256,5,6
 394 738 394 738 436.5 681.5 c 128,-1,7
 479 625 479 625 463 522 c 256,8,9
 447 419 447 419 386.5 362.5 c 128,-1,10
 326 306 326 306 231 306 c 256,11,0
 135 306 135 306 92.5 362.5 c 128,-1,1
321 421 m 128,-1,13
 351 455 351 455 362 522 c 256,14,15
 373 589 373 589 353.5 623 c 128,-1,16
 334 657 334 657 286 657 c 0,17,18
 239 657 239 657 209 623 c 128,-1,19
 179 589 179 589 169 522 c 256,20,21
 158 455 158 455 177 421 c 128,-1,22
 196 387 196 387 243 387 c 0,23,12
 291 387 291 387 321 421 c 128,-1,13
EndSplineSet
EndChar

StartChar: zero.lf
Encoding: 65564 -1 417
Width: 611
Flags: W
LayerCount: 2
Fore
SplineSet
71 82.5 m 128,-1,1
 19 175 19 175 49 365 c 256,2,3
 79 555 79 555 160.5 647.5 c 128,-1,4
 242 740 242 740 378 740 c 256,5,6
 514 740 514 740 566 647.5 c 128,-1,7
 618 555 618 555 588 365 c 256,8,9
 558 175 558 175 477 82.5 c 128,-1,10
 396 -10 396 -10 259 -10 c 256,11,0
 123 -10 123 -10 71 82.5 c 128,-1,1
405.5 157 m 128,-1,13
 455 224 455 224 477 365 c 256,14,15
 499 506 499 506 471.5 573 c 128,-1,16
 444 640 444 640 362 640 c 256,17,18
 281 640 281 640 231.5 573 c 128,-1,19
 182 506 182 506 160 365 c 256,20,21
 138 224 138 224 166 157 c 128,-1,22
 194 90 194 90 275 90 c 256,23,12
 356 90 356 90 405.5 157 c 128,-1,13
EndSplineSet
Substitution2: "'tnum' Tabular Numbers in Latin lookup 11 subtable" zero
AlternateSubs2: "'aalt' Access All Alternates in Latin lookup 1 subtable" zero
EndChar

StartChar: one.lf
Encoding: 65565 -1 418
Width: 599
Flags: W
LayerCount: 2
Fore
SplineSet
353 586 m 1,0,-1
 351 586 l 1,1,-1
 109 387 l 1,2,-1
 75 482 l 1,3,-1
 374 730 l 1,4,-1
 487 730 l 1,5,-1
 371 0 l 1,6,-1
 260 0 l 1,7,-1
 353 586 l 1,0,-1
EndSplineSet
Substitution2: "'tnum' Tabular Numbers in Latin lookup 11 subtable" one
AlternateSubs2: "'aalt' Access All Alternates in Latin lookup 1 subtable" one
EndChar

StartChar: two.lf
Encoding: 65566 -1 419
Width: 607
Flags: W
LayerCount: 2
Fore
SplineSet
273.5 283 m 128,-1,1
 361 358 361 358 403 414 c 128,-1,2
 445 470 445 470 453 520 c 0,3,4
 462 575 462 575 431 607.5 c 128,-1,5
 400 640 400 640 340 640 c 0,6,7
 251 640 251 640 134 564 c 1,8,-1
 110 659 l 1,9,10
 163 696 163 696 233.5 718 c 128,-1,11
 304 740 304 740 370 740 c 0,12,13
 475 740 475 740 527.5 683 c 128,-1,14
 580 626 580 626 565 530 c 0,15,16
 550 436 550 436 466 337.5 c 128,-1,17
 382 239 382 239 201 102 c 1,18,-1
 201 100 l 1,19,-1
 504 100 l 1,20,-1
 488 0 l 1,21,-1
 23 0 l 1,22,-1
 38 100 l 1,23,0
 186 208 186 208 273.5 283 c 128,-1,1
EndSplineSet
Substitution2: "'tnum' Tabular Numbers in Latin lookup 11 subtable" two
AlternateSubs2: "'aalt' Access All Alternates in Latin lookup 1 subtable" two
EndChar

StartChar: three.lf
Encoding: 65567 -1 420
Width: 607
Flags: W
LayerCount: 2
Fore
SplineSet
22 49 m 1,1,-1
 72 136 l 1,2,3
 147 88 147 88 232 88 c 0,4,5
 309 88 309 88 355.5 122.5 c 128,-1,6
 402 157 402 157 412 223 c 0,7,8
 422 286 422 286 382 313 c 128,-1,9
 342 340 342 340 237 340 c 2,10,-1
 178 340 l 1,11,-1
 193 436 l 1,12,-1
 431 630 l 1,13,-1
 432 632 l 1,14,-1
 127 632 l 1,15,-1
 143 730 l 1,16,-1
 593 730 l 1,17,-1
 578 631 l 1,18,-1
 338 437 l 1,19,-1
 338 435 l 1,20,-1
 345 435 l 2,21,22
 448 435 448 435 493.5 381.5 c 128,-1,23
 539 328 539 328 523 225 c 0,24,25
 505 112 505 112 428 51 c 128,-1,26
 351 -10 351 -10 226 -10 c 0,27,0
 109 -10 109 -10 22 49 c 1,1,-1
EndSplineSet
Substitution2: "'tnum' Tabular Numbers in Latin lookup 11 subtable" three
AlternateSubs2: "'aalt' Access All Alternates in Latin lookup 1 subtable" three
EndChar

StartChar: four.lf
Encoding: 65568 -1 421
Width: 613
Flags: W
LayerCount: 2
Fore
SplineSet
336 153 m 1,0,-1
 -7 153 l 1,1,-1
 9 253 l 1,2,-1
 427 730 l 1,3,-1
 535 730 l 1,4,-1
 460 253 l 1,5,-1
 572 253 l 1,6,-1
 556 153 l 1,7,-1
 444 153 l 1,8,-1
 419 0 l 1,9,-1
 312 0 l 1,10,-1
 336 153 l 1,0,-1
352 253 m 1,11,-1
 399 553 l 1,12,-1
 397 553 l 1,13,-1
 136 255 l 1,14,-1
 136 253 l 1,15,-1
 352 253 l 1,11,-1
EndSplineSet
Substitution2: "'tnum' Tabular Numbers in Latin lookup 11 subtable" four
AlternateSubs2: "'aalt' Access All Alternates in Latin lookup 1 subtable" four
EndChar

StartChar: five.lf
Encoding: 65569 -1 422
Width: 607
Flags: W
LayerCount: 2
Fore
SplineSet
27 39 m 1,1,-1
 72 130 l 1,2,3
 148 88 148 88 230 88 c 0,4,5
 311 88 311 88 362 127.5 c 128,-1,6
 413 167 413 167 425 240 c 0,7,8
 435 305 435 305 405.5 339 c 128,-1,9
 376 373 376 373 310 373 c 0,10,11
 276 373 276 373 248 363 c 128,-1,12
 220 353 220 353 187 330 c 1,13,-1
 94 330 l 1,14,-1
 180 730 l 1,15,-1
 582 730 l 1,16,-1
 567 632 l 1,17,-1
 263 632 l 1,18,-1
 219 438 l 1,19,-1
 221 438 l 1,20,21
 251 454 251 454 278 461 c 128,-1,22
 305 468 305 468 340 468 c 0,23,24
 451 468 451 468 502 408.5 c 128,-1,25
 553 349 553 349 536 240 c 0,26,27
 517 122 517 122 433.5 56 c 128,-1,28
 350 -10 350 -10 220 -10 c 0,29,0
 111 -10 111 -10 27 39 c 1,1,-1
EndSplineSet
Substitution2: "'tnum' Tabular Numbers in Latin lookup 11 subtable" five
AlternateSubs2: "'aalt' Access All Alternates in Latin lookup 1 subtable" five
EndChar

StartChar: six.lf
Encoding: 65570 -1 423
Width: 610
Flags: W
LayerCount: 2
Fore
SplineSet
76 60 m 128,-1,1
 19 130 19 130 40 258 c 0,2,3
 62 394 62 394 124 499 c 128,-1,4
 186 604 186 604 282 666 c 128,-1,5
 378 728 378 728 495 739 c 1,6,-1
 500 644 l 1,7,8
 285 620 285 620 194 438 c 1,9,-1
 196 437 l 1,10,11
 271 490 271 490 362 490 c 0,12,13
 473 490 473 490 526.5 424 c 128,-1,14
 580 358 580 358 561 243 c 0,15,16
 542 126 542 126 461 58 c 128,-1,17
 380 -10 380 -10 259 -10 c 0,18,0
 133 -10 133 -10 76 60 c 128,-1,1
395 129 m 128,-1,20
 442 170 442 170 454 242 c 0,21,22
 466 315 466 315 431 355 c 128,-1,23
 396 395 396 395 323 395 c 256,24,25
 249 395 249 395 202.5 355 c 128,-1,26
 156 315 156 315 145 242 c 0,27,28
 134 170 134 170 168 129 c 128,-1,29
 202 88 202 88 274 88 c 0,30,19
 348 88 348 88 395 129 c 128,-1,20
EndSplineSet
Substitution2: "'tnum' Tabular Numbers in Latin lookup 11 subtable" six
AlternateSubs2: "'aalt' Access All Alternates in Latin lookup 1 subtable" six
EndChar

StartChar: seven.lf
Encoding: 65571 -1 424
Width: 607
Flags: W
LayerCount: 2
Fore
SplineSet
481 628 m 1,1,-1
 481 630 l 1,2,-1
 121 630 l 1,3,-1
 137 730 l 1,4,-1
 617 730 l 1,5,-1
 603 640 l 1,6,7
 501 502 501 502 412 349 c 128,-1,8
 323 196 323 196 229 0 c 1,9,-1
 107 0 l 1,10,0
 278 346 278 346 481 628 c 1,1,-1
EndSplineSet
Substitution2: "'tnum' Tabular Numbers in Latin lookup 11 subtable" seven
AlternateSubs2: "'aalt' Access All Alternates in Latin lookup 1 subtable" seven
EndChar

StartChar: eight.lf
Encoding: 65572 -1 425
Width: 611
Flags: W
LayerCount: 2
Fore
SplineSet
120 15 m 128,-1,1
 63 40 63 40 37.5 86.5 c 128,-1,2
 12 133 12 133 22 195 c 0,3,4
 32 260 32 260 77.5 304.5 c 128,-1,5
 123 349 123 349 207 378 c 1,6,-1
 207 380 l 1,7,8
 150 409 150 409 123 457.5 c 128,-1,9
 96 506 96 506 105 563 c 0,10,11
 113 616 113 616 150 656.5 c 128,-1,12
 187 697 187 697 246 718.5 c 128,-1,13
 305 740 305 740 378 740 c 256,14,15
 452 740 452 740 504 718 c 128,-1,16
 556 696 556 696 580 656 c 128,-1,17
 604 616 604 616 596 563 c 0,18,19
 587 508 587 508 545.5 465 c 128,-1,20
 504 422 504 422 434 392 c 1,21,-1
 433 390 l 1,22,23
 583 334 583 334 561 195 c 0,24,25
 546 100 546 100 465.5 45 c 128,-1,26
 385 -10 385 -10 259 -10 c 0,27,0
 177 -10 177 -10 120 15 c 128,-1,1
438.5 482 m 128,-1,29
 479 512 479 512 486 553 c 0,30,31
 493 596 493 596 460 620.5 c 128,-1,32
 427 645 427 645 363 645 c 256,33,34
 299 645 299 645 258.5 620.5 c 128,-1,35
 218 596 218 596 211 553 c 0,36,37
 205 512 205 512 236 481.5 c 128,-1,38
 267 451 267 451 330 437 c 1,39,28
 398 452 398 452 438.5 482 c 128,-1,29
395 116 m 128,-1,41
 443 147 443 147 451 200 c 0,42,43
 459 249 459 249 424 280.5 c 128,-1,44
 389 312 389 312 306 330 c 1,45,46
 148 294 148 294 134 200 c 0,47,48
 126 147 126 147 164 116 c 128,-1,49
 202 85 202 85 274 85 c 256,50,40
 347 85 347 85 395 116 c 128,-1,41
EndSplineSet
Substitution2: "'tnum' Tabular Numbers in Latin lookup 11 subtable" eight
AlternateSubs2: "'aalt' Access All Alternates in Latin lookup 1 subtable" eight
EndChar

StartChar: nine.lf
Encoding: 65573 -1 426
Width: 610
Flags: W
LayerCount: 2
Fore
SplineSet
560 670 m 128,-1,1
 617 600 617 600 597 472 c 0,2,3
 575 336 575 336 512.5 231 c 128,-1,4
 450 126 450 126 354.5 64 c 128,-1,5
 259 2 259 2 141 -9 c 1,6,-1
 137 86 l 1,7,8
 352 110 352 110 442 292 c 1,9,-1
 440 293 l 1,10,11
 365 240 365 240 274 240 c 0,12,13
 163 240 163 240 110 306 c 128,-1,14
 57 372 57 372 75 487 c 0,15,16
 94 604 94 604 175 672 c 128,-1,17
 256 740 256 740 378 740 c 0,18,0
 503 740 503 740 560 670 c 128,-1,1
241.5 601 m 128,-1,20
 194 560 194 560 183 488 c 0,21,22
 171 415 171 415 205.5 375 c 128,-1,23
 240 335 240 335 313 335 c 256,24,25
 387 335 387 335 433.5 375 c 128,-1,26
 480 415 480 415 492 488 c 0,27,28
 503 560 503 560 469 601 c 128,-1,29
 435 642 435 642 362 642 c 256,30,19
 289 642 289 642 241.5 601 c 128,-1,20
EndSplineSet
Substitution2: "'tnum' Tabular Numbers in Latin lookup 11 subtable" nine
AlternateSubs2: "'aalt' Access All Alternates in Latin lookup 1 subtable" nine
EndChar

StartChar: uni2070
Encoding: 8304 8304 427
Width: 368
Flags: W
LayerCount: 2
Fore
SplineSet
71.5 341.5 m 128,-1,1
 41 397 41 397 59 511 c 256,2,3
 77 625 77 625 125.5 680.5 c 128,-1,4
 174 736 174 736 256 736 c 256,5,6
 338 736 338 736 369 680.5 c 128,-1,7
 400 625 400 625 382 511 c 256,8,9
 364 397 364 397 315.5 341.5 c 128,-1,10
 267 286 267 286 185 286 c 256,11,0
 102 286 102 286 71.5 341.5 c 128,-1,1
252 408.5 m 128,-1,13
 272 440 272 440 283 511 c 256,14,15
 294 582 294 582 284 613.5 c 128,-1,16
 274 645 274 645 242 645 c 256,17,18
 210 645 210 645 189.5 613.5 c 128,-1,19
 169 582 169 582 158 511 c 256,20,21
 147 440 147 440 157 408.5 c 128,-1,22
 167 377 167 377 199 377 c 256,23,12
 232 377 232 377 252 408.5 c 128,-1,13
EndSplineSet
EndChar

StartChar: uni00B9
Encoding: 185 185 428
Width: 345
Flags: W
LayerCount: 2
Fore
SplineSet
214 601 m 1,0,-1
 212 601 l 1,1,-1
 90 498 l 1,2,-1
 55 581 l 1,3,-1
 235 730 l 1,4,-1
 336 730 l 1,5,-1
 266 292 l 1,6,-1
 165 292 l 1,7,-1
 214 601 l 1,0,-1
EndSplineSet
EndChar

StartChar: uni00B2
Encoding: 178 178 429
Width: 366
Flags: W
LayerCount: 2
Fore
SplineSet
214.5 505 m 128,-1,1
 259 548 259 548 265 583 c 0,2,3
 269 611 269 611 253.5 628 c 128,-1,4
 238 645 238 645 207 645 c 0,5,6
 160 645 160 645 101 602 c 1,7,-1
 94 692 l 1,8,9
 126 712 126 712 167 724 c 128,-1,10
 208 736 208 736 249 736 c 0,11,12
 317 736 317 736 347 702.5 c 128,-1,13
 377 669 377 669 367 607 c 0,14,15
 358 551 358 551 318 496.5 c 128,-1,16
 278 442 278 442 203 384 c 1,17,-1
 202 382 l 1,18,-1
 336 382 l 1,19,-1
 321 292 l 1,20,-1
 42 292 l 1,21,-1
 56 382 l 1,22,0
 170 462 170 462 214.5 505 c 128,-1,1
EndSplineSet
EndChar

StartChar: uni00B3
Encoding: 179 179 430
Width: 365
Flags: W
LayerCount: 2
Fore
SplineSet
39 315 m 1,1,-1
 70 398 l 1,2,3
 114 376 114 376 155 376 c 0,4,5
 192 376 192 376 214 389.5 c 128,-1,6
 236 403 236 403 240 429 c 0,7,8
 244 454 244 454 224.5 465.5 c 128,-1,9
 205 477 205 477 157 477 c 2,10,-1
 129 477 l 1,11,-1
 142 562 l 1,12,-1
 240 639 l 1,13,-1
 240 641 l 1,14,-1
 96 641 l 1,15,-1
 110 730 l 1,16,-1
 381 730 l 1,17,-1
 367 641 l 1,18,-1
 250 549 l 1,19,-1
 250 547 l 1,20,21
 302 545 302 545 324.5 513 c 128,-1,22
 347 481 347 481 338 426 c 0,23,24
 327 359 327 359 281.5 322.5 c 128,-1,25
 236 286 236 286 163 286 c 0,26,0
 92 286 92 286 39 315 c 1,1,-1
EndSplineSet
EndChar

StartChar: uni2074
Encoding: 8308 8308 431
Width: 369
Flags: W
LayerCount: 2
Fore
SplineSet
206 368 m 1,0,-1
 17 368 l 1,1,-1
 31 458 l 1,2,-1
 268 730 l 1,3,-1
 361 730 l 1,4,-1
 318 458 l 1,5,-1
 369 458 l 1,6,-1
 355 368 l 1,7,-1
 304 368 l 1,8,-1
 292 292 l 1,9,-1
 194 292 l 1,10,-1
 206 368 l 1,0,-1
224 453 m 1,11,-1
 247 593 l 1,12,-1
 245 593 l 1,13,-1
 125 455 l 1,14,-1
 124 453 l 1,15,-1
 224 453 l 1,11,-1
EndSplineSet
EndChar

StartChar: fraction
Encoding: 8260 8260 432
Width: 516
Flags: W
LayerCount: 2
Fore
SplineSet
474 730 m 1,0,-1
 576 730 l 1,1,-1
 69 0 l 1,2,-1
 -34 0 l 1,3,-1
 474 730 l 1,0,-1
EndSplineSet
EndChar

StartChar: onehalf
Encoding: 189 189 433
Width: 860
Flags: W
LayerCount: 2
Fore
SplineSet
226 601 m 1,0,-1
 104 498 l 1,1,-1
 69 581 l 1,2,-1
 248 730 l 1,3,-1
 349 730 l 1,4,-1
 280 292 l 1,5,-1
 179 292 l 1,6,-1
 228 601 l 1,7,-1
 226 601 l 1,0,-1
645 730 m 1,8,-1
 748 730 l 1,9,-1
 240 0 l 1,10,-1
 138 0 l 1,11,-1
 645 730 l 1,8,-1
657.5 213 m 128,-1,13
 702 256 702 256 708 291 c 0,14,15
 712 319 712 319 697 336 c 128,-1,16
 682 353 682 353 650 353 c 0,17,18
 603 353 603 353 544 310 c 1,19,-1
 537 400 l 1,20,21
 569 420 569 420 610.5 432 c 128,-1,22
 652 444 652 444 692 444 c 0,23,24
 760 444 760 444 790.5 410.5 c 128,-1,25
 821 377 821 377 811 315 c 0,26,27
 802 259 802 259 761.5 204.5 c 128,-1,28
 721 150 721 150 646 92 c 1,29,-1
 646 90 l 1,30,-1
 779 90 l 1,31,-1
 765 0 l 1,32,-1
 485 0 l 1,33,-1
 500 90 l 1,34,12
 613 170 613 170 657.5 213 c 128,-1,13
EndSplineSet
Ligature2: "'frac' Diagonal Fractions in Latin lookup 7 subtable" one slash two
EndChar

StartChar: onequarter
Encoding: 188 188 434
Width: 826
Flags: W
LayerCount: 2
Fore
SplineSet
226 601 m 1,0,-1
 104 498 l 1,1,-1
 69 581 l 1,2,-1
 248 730 l 1,3,-1
 349 730 l 1,4,-1
 280 292 l 1,5,-1
 179 292 l 1,6,-1
 228 601 l 1,7,-1
 226 601 l 1,0,-1
645 730 m 1,8,-1
 748 730 l 1,9,-1
 240 0 l 1,10,-1
 138 0 l 1,11,-1
 645 730 l 1,8,-1
419 76 m 1,12,-1
 433 166 l 1,13,-1
 670 438 l 1,14,-1
 764 438 l 1,15,-1
 720 166 l 1,16,-1
 771 166 l 1,17,-1
 757 76 l 1,18,-1
 706 76 l 1,19,-1
 694 0 l 1,20,-1
 596 0 l 1,21,-1
 608 76 l 1,22,-1
 419 76 l 1,12,-1
649 301 m 1,23,-1
 647 301 l 1,24,-1
 527 163 l 1,25,-1
 527 161 l 1,26,-1
 627 161 l 1,27,-1
 649 301 l 1,23,-1
EndSplineSet
Ligature2: "'frac' Diagonal Fractions in Latin lookup 7 subtable" one slash four
EndChar

StartChar: threequarters
Encoding: 190 190 435
Width: 799
Flags: W
LayerCount: 2
Fore
SplineSet
41 315 m 1,1,-1
 73 398 l 1,2,3
 117 376 117 376 158 376 c 0,4,5
 195 376 195 376 216.5 389.5 c 128,-1,6
 238 403 238 403 243 429 c 0,7,8
 247 454 247 454 227.5 465.5 c 128,-1,9
 208 477 208 477 160 477 c 2,10,-1
 132 477 l 1,11,-1
 145 562 l 1,12,-1
 243 639 l 1,13,-1
 243 641 l 1,14,-1
 99 641 l 1,15,-1
 113 730 l 1,16,-1
 383 730 l 1,17,-1
 369 641 l 1,18,-1
 253 549 l 1,19,-1
 252 547 l 1,20,21
 303 545 303 545 326.5 513 c 128,-1,22
 350 481 350 481 341 426 c 0,23,24
 330 359 330 359 284.5 322.5 c 128,-1,25
 239 286 239 286 166 286 c 0,26,0
 94 286 94 286 41 315 c 1,1,-1
619 730 m 1,27,-1
 721 730 l 1,28,-1
 214 0 l 1,29,-1
 111 0 l 1,30,-1
 619 730 l 1,27,-1
392 76 m 1,31,-1
 407 166 l 1,32,-1
 644 438 l 1,33,-1
 737 438 l 1,34,-1
 694 166 l 1,35,-1
 745 166 l 1,36,-1
 731 76 l 1,37,-1
 680 76 l 1,38,-1
 668 0 l 1,39,-1
 570 0 l 1,40,-1
 582 76 l 1,41,-1
 392 76 l 1,31,-1
622 301 m 1,42,-1
 620 301 l 1,43,-1
 500 163 l 1,44,-1
 500 161 l 1,45,-1
 600 161 l 1,46,-1
 622 301 l 1,42,-1
EndSplineSet
Ligature2: "'frac' Diagonal Fractions in Latin lookup 7 subtable" three slash four
EndChar

StartChar: period
Encoding: 46 46 436
Width: 287
Flags: W
LayerCount: 2
Fore
SplineSet
56 130 m 1,0,-1
 183 130 l 1,1,-1
 162 0 l 1,2,-1
 35 0 l 1,3,-1
 56 130 l 1,0,-1
EndSplineSet
EndChar

StartChar: comma
Encoding: 44 44 437
Width: 255
Flags: W
LayerCount: 2
Fore
SplineSet
68 130 m 1,0,-1
 195 130 l 1,1,-1
 50 -170 l 1,2,-1
 -48 -170 l 1,3,-1
 68 130 l 1,0,-1
EndSplineSet
EndChar

StartChar: colon
Encoding: 58 58 438
Width: 287
Flags: W
LayerCount: 2
Fore
SplineSet
117 520 m 1,0,-1
 245 520 l 1,1,-1
 224 390 l 1,2,-1
 97 390 l 1,3,-1
 117 520 l 1,0,-1
56 130 m 1,4,-1
 183 130 l 1,5,-1
 162 0 l 1,6,-1
 35 0 l 1,7,-1
 56 130 l 1,4,-1
EndSplineSet
Substitution2: "'fwid' Full Widths in Latin lookup 15 subtable" uniFF1A
Substitution2: "'aalt' Access All Alternates in Latin lookup 0 subtable" uniFF1A
EndChar

StartChar: semicolon
Encoding: 59 59 439
Width: 311
Flags: W
LayerCount: 2
Fore
SplineSet
140 520 m 1,0,-1
 268 520 l 1,1,-1
 247 390 l 1,2,-1
 120 390 l 1,3,-1
 140 520 l 1,0,-1
84 130 m 1,4,-1
 212 130 l 1,5,-1
 52 -170 l 1,6,-1
 -46 -170 l 1,7,-1
 84 130 l 1,4,-1
EndSplineSet
EndChar

StartChar: exclam
Encoding: 33 33 441
Width: 287
Flags: W
LayerCount: 2
Fore
SplineSet
151 730 m 1,0,-1
 278 730 l 1,1,-1
 182 215 l 1,2,-1
 84 215 l 1,3,-1
 151 730 l 1,0,-1
56 130 m 1,4,-1
 183 130 l 1,5,-1
 162 0 l 1,6,-1
 35 0 l 1,7,-1
 56 130 l 1,4,-1
EndSplineSet
Substitution2: "'fwid' Full Widths in Latin lookup 15 subtable" uniFF01
Substitution2: "'aalt' Access All Alternates in Latin lookup 0 subtable" uniFF01
EndChar

StartChar: exclamdown
Encoding: 161 161 442
Width: 287
Flags: W
LayerCount: 2
Fore
SplineSet
117 520 m 1,0,-1
 245 520 l 1,1,-1
 224 390 l 1,2,-1
 97 390 l 1,3,-1
 117 520 l 1,0,-1
98 305 m 1,4,-1
 196 305 l 1,5,-1
 129 -210 l 1,6,-1
 2 -210 l 1,7,-1
 98 305 l 1,4,-1
EndSplineSet
EndChar

StartChar: question
Encoding: 63 63 443
Width: 551
Flags: W
LayerCount: 2
Fore
SplineSet
209.5 328 m 128,-1,1
 249 377 249 377 335 432 c 0,2,3
 394 470 394 470 421.5 499.5 c 128,-1,4
 449 529 449 529 454 560 c 0,5,6
 460 601 460 601 426.5 620.5 c 128,-1,7
 393 640 393 640 315 640 c 0,8,9
 261 640 261 640 210 631.5 c 128,-1,10
 159 623 159 623 100 604 c 1,11,-1
 92 702 l 1,12,13
 215 740 215 740 346 740 c 0,14,15
 471 740 471 740 527 699 c 128,-1,16
 583 658 583 658 569 575 c 0,17,18
 560 520 560 520 524 475.5 c 128,-1,19
 488 431 488 431 411 383 c 0,20,21
 344 341 344 341 310.5 302 c 128,-1,22
 277 263 277 263 267 215 c 1,23,-1
 160 215 l 1,24,0
 170 279 170 279 209.5 328 c 128,-1,1
136 130 m 1,25,-1
 264 130 l 1,26,-1
 243 0 l 1,27,-1
 116 0 l 1,28,-1
 136 130 l 1,25,-1
EndSplineSet
Substitution2: "'fwid' Full Widths in Latin lookup 15 subtable" uniFF1F
Substitution2: "'aalt' Access All Alternates in Latin lookup 0 subtable" uniFF1F
EndChar

StartChar: questiondown
Encoding: 191 191 444
Width: 551
Flags: W
LayerCount: 2
Fore
SplineSet
280 390 m 1,0,-1
 301 520 l 1,1,-1
 428 520 l 1,2,-1
 408 390 l 1,3,-1
 280 390 l 1,0,-1
334.5 192 m 128,-1,5
 295 143 295 143 209 88 c 0,6,7
 150 50 150 50 122 20.5 c 128,-1,8
 94 -9 94 -9 90 -40 c 0,9,10
 84 -81 84 -81 117 -100.5 c 128,-1,11
 150 -120 150 -120 229 -120 c 0,12,13
 283 -120 283 -120 334 -111.5 c 128,-1,14
 385 -103 385 -103 444 -84 c 1,15,-1
 452 -182 l 1,16,17
 329 -220 329 -220 198 -220 c 0,18,19
 73 -220 73 -220 17 -179 c 128,-1,20
 -39 -138 -39 -138 -26 -55 c 0,21,22
 -17 0 -17 0 19.5 44.5 c 128,-1,23
 56 89 56 89 133 137 c 0,24,25
 200 179 200 179 234 218 c 128,-1,26
 268 257 268 257 277 305 c 1,27,-1
 384 305 l 1,28,4
 374 241 374 241 334.5 192 c 128,-1,5
EndSplineSet
EndChar

StartChar: bullet
Encoding: 8226 8226 446
Width: 319
Flags: W
LayerCount: 2
Fore
SplineSet
82 221 m 128,-1,1
 58 250 58 250 65 290 c 0,2,3
 71 331 71 331 104 359.5 c 128,-1,4
 137 388 137 388 176 388 c 0,5,6
 216 388 216 388 239.5 359.5 c 128,-1,7
 263 331 263 331 257 290 c 0,8,9
 251 250 251 250 218 221 c 128,-1,10
 185 192 185 192 145 192 c 0,11,0
 106 192 106 192 82 221 c 128,-1,1
EndSplineSet
EndChar

StartChar: asterisk
Encoding: 42 42 447
Width: 504
Flags: W
LayerCount: 2
Fore
SplineSet
100 381 m 1,0,-1
 217 512 l 1,1,-1
 73 559 l 1,2,-1
 114 649 l 1,3,-1
 258 597 l 1,4,-1
 282 759 l 1,5,-1
 373 759 l 1,6,-1
 345 597 l 1,7,-1
 504 649 l 1,8,-1
 519 559 l 1,9,-1
 358 512 l 1,10,-1
 434 381 l 1,11,-1
 350 326 l 1,12,-1
 279 460 l 1,13,-1
 167 326 l 1,14,-1
 100 381 l 1,0,-1
EndSplineSet
EndChar

StartChar: numbersign
Encoding: 35 35 448
Width: 653
Flags: W
LayerCount: 2
Fore
SplineSet
648 475 m 1,0,-1
 537 475 l 1,1,-1
 471 275 l 1,2,-1
 564 275 l 1,3,-1
 549 180 l 1,4,-1
 438 180 l 1,5,-1
 379 0 l 1,6,-1
 281 0 l 1,7,-1
 340 180 l 1,8,-1
 213 180 l 1,9,-1
 154 0 l 1,10,-1
 55 0 l 1,11,-1
 115 180 l 1,12,-1
 20 180 l 1,13,-1
 35 275 l 1,14,-1
 147 275 l 1,15,-1
 213 475 l 1,16,-1
 119 475 l 1,17,-1
 134 570 l 1,18,-1
 244 570 l 1,19,-1
 297 730 l 1,20,-1
 396 730 l 1,21,-1
 343 570 l 1,22,-1
 470 570 l 1,23,-1
 523 730 l 1,24,-1
 622 730 l 1,25,-1
 569 570 l 1,26,-1
 663 570 l 1,27,-1
 648 475 l 1,0,-1
246 275 m 1,28,-1
 372 275 l 1,29,-1
 438 475 l 1,30,-1
 312 475 l 1,31,-1
 246 275 l 1,28,-1
EndSplineSet
EndChar

StartChar: slash
Encoding: 47 47 449
Width: 469
Flags: W
LayerCount: 2
Fore
SplineSet
424 750 m 1,0,-1
 533 750 l 1,1,-1
 68 -40 l 1,2,-1
 -40 -40 l 1,3,-1
 424 750 l 1,0,-1
EndSplineSet
EndChar

StartChar: backslash
Encoding: 92 92 450
Width: 469
Flags: W
LayerCount: 2
Fore
SplineSet
407 -40 m 1,0,-1
 299 -40 l 1,1,-1
 85 750 l 1,2,-1
 193 750 l 1,3,-1
 407 -40 l 1,0,-1
EndSplineSet
EndChar

StartChar: parenleft
Encoding: 40 40 451
Width: 358
Flags: W
LayerCount: 2
Fore
SplineSet
78.5 93.5 m 128,-1,1
 60 206 60 206 80 330 c 0,2,3
 100 455 100 455 154 567 c 128,-1,4
 208 679 208 679 291 770 c 1,5,-1
 396 770 l 1,6,7
 311 671 311 671 261 563.5 c 128,-1,8
 211 456 211 456 191 330 c 256,9,10
 171 204 171 204 186.5 96.5 c 128,-1,11
 202 -11 202 -11 256 -110 c 1,12,-1
 151 -110 l 1,13,0
 97 -19 97 -19 78.5 93.5 c 128,-1,1
EndSplineSet
Substitution2: "'fwid' Full Widths in Latin lookup 15 subtable" uniFF08
Substitution2: "'aalt' Access All Alternates in Latin lookup 0 subtable" uniFF08
EndChar

StartChar: parenright
Encoding: 41 41 452
Width: 358
Flags: W
LayerCount: 2
Fore
SplineSet
-22 -110 m 1,0,1
 63 -11 63 -11 113 96.5 c 128,-1,2
 163 204 163 204 183 330 c 256,3,4
 203 456 203 456 187 563.5 c 128,-1,5
 171 671 171 671 117 770 c 1,6,-1
 222 770 l 1,7,8
 276 679 276 679 294.5 567 c 128,-1,9
 313 455 313 455 293 330 c 0,10,11
 273 206 273 206 219 93.5 c 128,-1,12
 165 -19 165 -19 82 -110 c 1,13,-1
 -22 -110 l 1,0,1
EndSplineSet
Substitution2: "'fwid' Full Widths in Latin lookup 15 subtable" uniFF09
Substitution2: "'aalt' Access All Alternates in Latin lookup 0 subtable" uniFF09
EndChar

StartChar: braceleft
Encoding: 123 123 453
Width: 471
Flags: W
CounterMasks: 1 e0
LayerCount: 2
Fore
SplineSet
155 -73.5 m 128,-1,1
 127 -37 127 -37 140 45 c 2,2,-1
 159 160 l 2,3,4
 178 280 178 280 94 280 c 2,5,-1
 50 280 l 1,6,-1
 66 380 l 1,7,-1
 110 380 l 2,8,9
 193 380 193 380 213 500 c 2,10,-1
 231 615 l 2,11,12
 244 697 244 697 283 733.5 c 128,-1,13
 322 770 322 770 397 770 c 2,14,-1
 500 770 l 1,15,-1
 485 675 l 1,16,-1
 436 675 l 2,17,18
 397 675 397 675 376 666.5 c 128,-1,19
 355 658 355 658 344.5 636 c 128,-1,20
 334 614 334 614 327 570 c 2,21,-1
 314 488 l 2,22,23
 304 425 304 425 276.5 387.5 c 128,-1,24
 249 350 249 350 200 331 c 1,25,-1
 199 329 l 1,26,27
 242 310 242 310 257.5 272.5 c 128,-1,28
 273 235 273 235 264 172 c 2,29,-1
 251 90 l 2,30,31
 244 46 244 46 247.5 24 c 128,-1,32
 251 2 251 2 269.5 -6.5 c 128,-1,33
 288 -15 288 -15 327 -15 c 2,34,-1
 376 -15 l 1,35,-1
 361 -110 l 1,36,-1
 258 -110 l 2,37,0
 183 -110 183 -110 155 -73.5 c 128,-1,1
EndSplineSet
EndChar

StartChar: braceright
Encoding: 125 125 454
Width: 471
Flags: W
CounterMasks: 1 e0
LayerCount: 2
Fore
SplineSet
-14 -110 m 1,0,-1
 1 -15 l 1,1,-1
 50 -15 l 2,2,3
 89 -15 89 -15 110 -6.5 c 128,-1,4
 131 2 131 2 142 24 c 128,-1,5
 153 46 153 46 160 90 c 2,6,-1
 173 172 l 2,7,8
 183 235 183 235 210.5 272.5 c 128,-1,9
 238 310 238 310 287 329 c 1,10,-1
 287 331 l 1,11,12
 244 350 244 350 228.5 387.5 c 128,-1,13
 213 425 213 425 223 488 c 2,14,-1
 236 570 l 2,15,16
 243 614 243 614 239 636 c 128,-1,17
 235 658 235 658 216.5 666.5 c 128,-1,18
 198 675 198 675 159 675 c 2,19,-1
 110 675 l 1,20,-1
 125 770 l 1,21,-1
 228 770 l 2,22,23
 303 770 303 770 331 733.5 c 128,-1,24
 359 697 359 697 346 615 c 2,25,-1
 327 500 l 2,26,27
 308 380 308 380 392 380 c 2,28,-1
 436 380 l 1,29,-1
 420 280 l 1,30,-1
 376 280 l 2,31,32
 293 280 293 280 274 160 c 2,33,-1
 255 45 l 2,34,35
 242 -37 242 -37 203 -73.5 c 128,-1,36
 164 -110 164 -110 89 -110 c 2,37,-1
 -14 -110 l 1,0,-1
EndSplineSet
EndChar

StartChar: bracketleft
Encoding: 91 91 455
Width: 409
Flags: W
LayerCount: 2
Fore
SplineSet
157 770 m 1,0,-1
 446 770 l 1,1,-1
 431 675 l 1,2,-1
 245 675 l 1,3,-1
 136 -15 l 1,4,-1
 322 -15 l 1,5,-1
 307 -110 l 1,6,-1
 18 -110 l 1,7,-1
 157 770 l 1,0,-1
EndSplineSet
EndChar

StartChar: bracketright
Encoding: 93 93 456
Width: 409
Flags: W
LayerCount: 2
Fore
SplineSet
267 -110 m 1,0,-1
 -22 -110 l 1,1,-1
 -7 -15 l 1,2,-1
 179 -15 l 1,3,-1
 288 675 l 1,4,-1
 102 675 l 1,5,-1
 117 770 l 1,6,-1
 406 770 l 1,7,-1
 267 -110 l 1,0,-1
EndSplineSet
EndChar

StartChar: hyphen
Encoding: 45 45 457
Width: 405
Flags: W
LayerCount: 2
Fore
SplineSet
60 340 m 1,0,-1
 364 340 l 1,1,-1
 348 240 l 1,2,-1
 44 240 l 1,3,-1
 60 340 l 1,0,-1
EndSplineSet
EndChar

StartChar: endash
Encoding: 8211 8211 459
Width: 490
Flags: W
LayerCount: 2
Fore
SplineSet
9 340 m 1,0,-1
 499 340 l 1,1,-1
 483 240 l 1,2,-1
 -7 240 l 1,3,-1
 9 340 l 1,0,-1
EndSplineSet
EndChar

StartChar: emdash
Encoding: 8212 8212 460
Width: 980
Flags: W
LayerCount: 2
Fore
SplineSet
9 340 m 1,0,-1
 989 340 l 1,1,-1
 973 240 l 1,2,-1
 -7 240 l 1,3,-1
 9 340 l 1,0,-1
EndSplineSet
EndChar

StartChar: uni2015
Encoding: 8213 8213 461
Width: 973
Flags: W
LayerCount: 2
Fore
SplineSet
65 410 m 1,0,-1
 947 410 l 1,1,-1
 932 310 l 1,2,-1
 50 310 l 1,3,-1
 65 410 l 1,0,-1
EndSplineSet
EndChar

StartChar: underscore
Encoding: 95 95 462
Width: 588
Flags: W
LayerCount: 2
Fore
SplineSet
-58 -80 m 1,0,-1
 530 -80 l 1,1,-1
 517 -165 l 1,2,-1
 -71 -165 l 1,3,-1
 -58 -80 l 1,0,-1
EndSplineSet
EndChar

StartChar: quoteleft
Encoding: 8216 8216 467
Width: 268
Flags: W
LayerCount: 2
Fore
SplineSet
179 470 m 1,0,-1
 51 470 l 1,1,-1
 211 770 l 1,2,-1
 309 770 l 1,3,-1
 179 470 l 1,0,-1
EndSplineSet
EndChar

StartChar: quoteright
Encoding: 8217 8217 468
Width: 268
Flags: W
LayerCount: 2
Fore
SplineSet
197 770 m 1,0,-1
 324 770 l 1,1,-1
 164 470 l 1,2,-1
 66 470 l 1,3,-1
 197 770 l 1,0,-1
EndSplineSet
EndChar

StartChar: guillemotleft
Encoding: 171 171 469
Width: 489
Flags: W
LayerCount: 2
Fore
SplineSet
10 290 m 1,0,-1
 200 520 l 1,1,-1
 299 520 l 1,2,-1
 106 290 l 1,3,-1
 226 60 l 1,4,-1
 127 60 l 1,5,-1
 10 290 l 1,0,-1
206 290 m 1,6,-1
 396 520 l 1,7,-1
 495 520 l 1,8,-1
 302 290 l 1,9,-1
 422 60 l 1,10,-1
 323 60 l 1,11,-1
 206 290 l 1,6,-1
EndSplineSet
EndChar

StartChar: guillemotright
Encoding: 187 187 470
Width: 489
Flags: W
LayerCount: 2
Fore
SplineSet
95 60 m 1,0,-1
 -4 60 l 1,1,-1
 190 290 l 1,2,-1
 69 520 l 1,3,-1
 168 520 l 1,4,-1
 286 290 l 1,5,-1
 95 60 l 1,0,-1
291 60 m 1,6,-1
 192 60 l 1,7,-1
 386 290 l 1,8,-1
 265 520 l 1,9,-1
 364 520 l 1,10,-1
 482 290 l 1,11,-1
 291 60 l 1,6,-1
EndSplineSet
EndChar

StartChar: guilsinglleft
Encoding: 8249 8249 471
Width: 298
Flags: W
LayerCount: 2
Fore
SplineSet
10 290 m 1,0,-1
 203 520 l 1,1,-1
 304 520 l 1,2,-1
 108 290 l 1,3,-1
 231 60 l 1,4,-1
 130 60 l 1,5,-1
 10 290 l 1,0,-1
EndSplineSet
EndChar

StartChar: guilsinglright
Encoding: 8250 8250 472
Width: 298
Flags: W
LayerCount: 2
Fore
SplineSet
97 60 m 1,0,-1
 -4 60 l 1,1,-1
 193 290 l 1,2,-1
 69 520 l 1,3,-1
 170 520 l 1,4,-1
 291 290 l 1,5,-1
 97 60 l 1,0,-1
EndSplineSet
EndChar

StartChar: quotedbl
Encoding: 34 34 473
Width: 475
Flags: W
LayerCount: 2
Fore
SplineSet
150 770 m 1,0,-1
 272 770 l 1,1,-1
 210 470 l 1,2,-1
 116 470 l 1,3,-1
 150 770 l 1,0,-1
358 770 m 1,4,-1
 480 770 l 1,5,-1
 418 470 l 1,6,-1
 324 470 l 1,7,-1
 358 770 l 1,4,-1
EndSplineSet
EndChar

StartChar: quotesingle
Encoding: 39 39 474
Width: 272
Flags: W
LayerCount: 2
Fore
SplineSet
150 770 m 1,0,-1
 277 770 l 1,1,-1
 215 470 l 1,2,-1
 117 470 l 1,3,-1
 150 770 l 1,0,-1
EndSplineSet
EndChar

StartChar: uni20B5
Encoding: 8373 8373 476
Width: 690
Flags: W
LayerCount: 2
Fore
SplineSet
611 56 m 1,0,1
 515 1 515 1 405 -8 c 1,2,-1
 389 -105 l 1,3,-1
 296 -105 l 1,4,-1
 312 -8 l 1,5,6
 162 6 162 6 92.5 104 c 128,-1,7
 23 202 23 202 49 365 c 256,8,9
 75 528 75 528 175.5 626 c 128,-1,10
 276 724 276 724 430 738 c 1,11,-1
 445 835 l 1,12,-1
 538 835 l 1,13,-1
 523 738 l 1,14,15
 630 729 630 729 709 674 c 1,16,-1
 650 585 l 1,17,18
 584 628 584 628 507 637 c 1,19,-1
 421 93 l 1,20,21
 501 102 501 102 580 145 c 1,22,-1
 611 56 l 1,0,1
182.5 178.5 m 128,-1,24
 228 107 228 107 328 93 c 1,25,-1
 414 637 l 1,26,27
 310 623 310 623 241.5 551.5 c 128,-1,28
 173 480 173 480 155 365 c 256,29,23
 137 250 137 250 182.5 178.5 c 128,-1,24
EndSplineSet
EndChar

StartChar: cent
Encoding: 162 162 477
Width: 532
Flags: W
LayerCount: 2
Fore
SplineSet
438 28 m 1,0,1
 377 -1 377 -1 313 -7 c 1,2,-1
 297 -105 l 1,3,-1
 219 -105 l 1,4,-1
 234 -9 l 1,5,6
 117 -1 117 -1 63.5 69 c 128,-1,7
 10 139 10 139 29 260 c 256,8,9
 48 381 48 381 124 451 c 128,-1,10
 200 521 200 521 319 529 c 1,11,-1
 335 625 l 1,12,-1
 413 625 l 1,13,-1
 398 527 l 1,14,15
 460 521 460 521 512 492 c 1,16,-1
 474 407 l 1,17,18
 431 430 431 430 383 437 c 1,19,-1
 327 83 l 1,20,21
 376 90 376 90 427 113 c 1,22,-1
 438 28 l 1,0,1
149.5 136 m 128,-1,24
 180 90 180 90 249 82 c 1,25,-1
 305 438 l 1,26,27
 234 430 234 430 189 384 c 128,-1,28
 144 338 144 338 132 260 c 256,29,23
 119 182 119 182 149.5 136 c 128,-1,24
EndSplineSet
EndChar

StartChar: colonmonetary
Encoding: 8353 8353 478
Width: 690
Flags: W
LayerCount: 2
Fore
SplineSet
611 56 m 1,0,1
 532 10 532 10 439 -4 c 1,2,-1
 414 -105 l 1,3,-1
 326 -105 l 1,4,-1
 348 -10 l 1,5,6
 304 -8 304 -8 272 -3 c 1,7,-1
 247 -105 l 1,8,-1
 159 -105 l 1,9,-1
 190 23 l 1,10,11
 102 64 102 64 65.5 152 c 128,-1,12
 29 240 29 240 49 365 c 0,13,14
 72 508 72 508 153.5 602.5 c 128,-1,15
 235 697 235 697 360 727 c 1,16,-1
 386 835 l 1,17,-1
 474 835 l 1,18,-1
 451 739 l 1,19,20
 459 740 459 740 476 740 c 0,21,22
 503 740 503 740 530 737 c 1,23,-1
 553 835 l 1,24,-1
 641 835 l 1,25,-1
 613 721 l 1,26,27
 665 705 665 705 709 674 c 1,28,-1
 650 585 l 1,29,30
 618 606 618 606 588 617 c 1,31,-1
 463 100 l 1,32,33
 523 113 523 113 580 145 c 1,34,-1
 611 56 l 1,0,1
373 90 m 1,36,-1
 505 638 l 1,37,38
 478 640 478 640 462 640 c 0,39,40
 450 640 450 640 427 638 c 1,41,-1
 296 99 l 1,42,35
 331 90 331 90 373 90 c 1,36,-1
159.5 231.5 m 128,-1,44
 176 174 176 174 218 138 c 1,45,-1
 333 615 l 1,46,47
 262 585 262 585 215.5 520.5 c 128,-1,48
 169 456 169 456 155 365 c 0,49,43
 143 289 143 289 159.5 231.5 c 128,-1,44
EndSplineSet
EndChar

StartChar: currency
Encoding: 164 164 479
Width: 673
Flags: W
LayerCount: 2
Fore
SplineSet
523 235 m 1,1,-1
 597 144 l 1,2,-1
 520 76 l 1,3,-1
 445 167 l 1,4,5
 380 130 380 130 314 130 c 0,6,7
 244 130 244 130 194 169 c 1,8,-1
 88 76 l 1,9,-1
 31 144 l 1,10,-1
 138 238 l 1,11,12
 111 298 111 298 121 365 c 0,13,14
 132 436 132 436 178 491 c 1,15,-1
 101 585 l 1,16,-1
 180 653 l 1,17,-1
 254 560 l 1,18,19
 318 600 318 600 389 600 c 0,20,21
 457 600 457 600 508 563 c 1,22,-1
 611 654 l 1,23,-1
 668 585 l 1,24,-1
 564 494 l 1,25,26
 593 436 593 436 582 365 c 0,27,0
 570 293 570 293 523 235 c 1,1,-1
399 248.5 m 128,-1,29
 432 267 432 267 455 298 c 128,-1,30
 478 329 478 329 484 365 c 256,31,32
 490 401 490 401 476.5 432 c 128,-1,33
 463 463 463 463 435.5 481.5 c 128,-1,34
 408 500 408 500 373 500 c 0,35,36
 337 500 337 500 303.5 482 c 128,-1,37
 270 464 270 464 247.5 433 c 128,-1,38
 225 402 225 402 219 365 c 0,39,40
 213 329 213 329 226.5 298 c 128,-1,41
 240 267 240 267 267.5 248.5 c 128,-1,42
 295 230 295 230 330 230 c 256,43,28
 366 230 366 230 399 248.5 c 128,-1,29
EndSplineSet
EndChar

StartChar: dollar
Encoding: 36 36 480
Width: 619
Flags: W
LayerCount: 2
Fore
SplineSet
480.5 57.5 m 128,-1,1
 416 4 416 4 311 -7 c 1,2,-1
 295 -105 l 1,3,-1
 202 -105 l 1,4,-1
 217 -9 l 1,5,6
 155 -4 155 -4 102.5 14 c 128,-1,7
 50 32 50 32 12 62 c 1,8,-1
 57 160 l 1,9,10
 128 103 128 103 233 92 c 1,11,-1
 272 338 l 1,12,13
 167 380 167 380 127 430 c 128,-1,14
 87 480 87 480 99 553 c 0,15,16
 112 633 112 633 172.5 680 c 128,-1,17
 233 727 233 727 336 738 c 1,18,-1
 351 835 l 1,19,-1
 444 835 l 1,20,-1
 429 739 l 1,21,22
 545 731 545 731 623 685 c 1,23,-1
 585 586 l 1,24,25
 501 632 501 632 413 639 c 1,26,-1
 379 420 l 1,27,28
 489 375 489 375 530 324 c 128,-1,29
 571 273 571 273 559 198 c 0,30,0
 545 111 545 111 480.5 57.5 c 128,-1,1
225.5 499 m 128,-1,32
 244 476 244 476 291 454 c 1,33,-1
 320 636 l 1,34,35
 224 621 224 621 212 553 c 0,36,31
 207 522 207 522 225.5 499 c 128,-1,32
412 128 m 128,-1,38
 444 154 444 154 451 195 c 0,39,40
 457 231 457 231 436 256.5 c 128,-1,41
 415 282 415 282 360 305 c 1,42,-1
 327 94 l 1,43,37
 380 102 380 102 412 128 c 128,-1,38
EndSplineSet
EndChar

StartChar: dong
Encoding: 8363 8363 481
Width: 688
Flags: W
LayerCount: 2
Fore
SplineSet
700 690 m 1,0,-1
 687 610 l 1,1,-1
 580 610 l 1,2,-1
 507 150 l 1,3,-1
 406 150 l 1,4,-1
 412 197 l 1,5,-1
 410 197 l 1,6,7
 379 172 379 172 329.5 157 c 128,-1,8
 280 142 280 142 230 142 c 0,9,10
 136 142 136 142 93 198.5 c 128,-1,11
 50 255 50 255 66 358 c 256,12,13
 82 461 82 461 143 517.5 c 128,-1,14
 204 574 204 574 298 574 c 0,15,16
 347 574 347 574 391 559 c 128,-1,17
 435 544 435 544 457 519 c 1,18,-1
 459 519 l 1,19,-1
 474 610 l 1,20,-1
 276 610 l 1,21,-1
 288 690 l 1,22,-1
 486 690 l 1,23,-1
 496 750 l 1,24,-1
 602 750 l 1,25,-1
 592 690 l 1,26,-1
 700 690 l 1,0,-1
345 239 m 128,-1,28
 380 255 380 255 403 282 c 128,-1,29
 426 309 426 309 431 341 c 2,30,-1
 436 375 l 2,31,32
 441 407 441 407 427 434 c 128,-1,33
 413 461 413 461 383.5 477 c 128,-1,34
 354 493 354 493 316 493 c 0,35,36
 259 493 259 493 220.5 456.5 c 128,-1,37
 182 420 182 420 172 358 c 256,38,39
 162 296 162 296 189 259.5 c 128,-1,40
 216 223 216 223 273 223 c 0,41,27
 310 223 310 223 345 239 c 128,-1,28
15 0 m 1,42,-1
 27 80 l 1,43,-1
 603 80 l 1,44,-1
 591 0 l 1,45,-1
 15 0 l 1,42,-1
EndSplineSet
EndChar

StartChar: Euro
Encoding: 8364 8364 482
Width: 762
GlyphClass: 2
Flags: W
AnchorPoint: "Anchor-1" 428 730 basechar 0
AnchorPoint: "Anchor-0" 428 0 basechar 0
LayerCount: 2
Fore
SplineSet
652 145 m 1,1,-1
 683 56 l 1,2,3
 573 -10 573 -10 437 -10 c 0,4,5
 305 -10 305 -10 227 54 c 128,-1,6
 149 118 149 118 136 235 c 1,7,-1
 21 235 l 1,8,-1
 36 325 l 1,9,-1
 136 325 l 1,10,11
 137 338 137 338 141 365 c 256,12,13
 145 392 145 392 148 405 c 1,14,-1
 48 405 l 1,15,-1
 63 495 l 1,16,-1
 177 495 l 1,17,18
 227 612 227 612 325.5 676 c 128,-1,19
 424 740 424 740 556 740 c 0,20,21
 691 740 691 740 781 674 c 1,22,-1
 722 585 l 1,23,24
 643 640 643 640 545 640 c 0,25,26
 463 640 463 640 398 602 c 128,-1,27
 333 564 333 564 295 495 c 1,28,-1
 651 495 l 1,29,-1
 636 405 l 1,30,-1
 260 405 l 1,31,32
 254 379 254 379 252 365 c 256,33,34
 250 351 250 351 247 325 c 1,35,-1
 624 325 l 1,36,-1
 609 235 l 1,37,-1
 254 235 l 1,38,39
 271 166 271 166 323.5 128 c 128,-1,40
 376 90 376 90 458 90 c 0,41,0
 556 90 556 90 652 145 c 1,1,-1
EndSplineSet
EndChar

StartChar: florin
Encoding: 402 402 483
Width: 464
Flags: W
LayerCount: 2
Fore
SplineSet
-42 -105 m 1,1,-1
 -12 -17 l 1,2,3
 26 -30 26 -30 61 -30 c 0,4,5
 101 -30 101 -30 119 -9.5 c 128,-1,6
 137 11 137 11 146 65 c 2,7,-1
 186 321 l 1,8,-1
 57 321 l 1,9,-1
 71 411 l 1,10,-1
 201 411 l 1,11,-1
 223 555 l 2,12,13
 252 740 252 740 411 740 c 0,14,15
 460 740 460 740 514 725 c 1,16,-1
 485 637 l 1,17,18
 447 650 447 650 412 650 c 0,19,20
 372 650 372 650 353.5 629.5 c 128,-1,21
 335 609 335 609 327 555 c 2,22,-1
 304 411 l 1,23,-1
 460 411 l 1,24,-1
 446 321 l 1,25,-1
 290 321 l 1,26,-1
 249 65 l 2,27,28
 220 -120 220 -120 62 -120 c 0,29,0
 12 -120 12 -120 -42 -105 c 1,1,-1
EndSplineSet
EndChar

StartChar: franc
Encoding: 8355 8355 484
Width: 622
Flags: W
LayerCount: 2
Fore
SplineSet
630 630 m 1,0,-1
 292 630 l 1,1,-1
 262 440 l 1,2,-1
 580 440 l 1,3,-1
 565 342 l 1,4,-1
 246 342 l 1,5,-1
 222 190 l 1,6,-1
 460 190 l 1,7,-1
 445 100 l 1,8,-1
 208 100 l 1,9,-1
 192 0 l 1,10,-1
 85 0 l 1,11,-1
 100 100 l 1,12,-1
 -6 100 l 1,13,-1
 9 190 l 1,14,-1
 115 190 l 1,15,-1
 200 730 l 1,16,-1
 646 730 l 1,17,-1
 630 630 l 1,0,-1
EndSplineSet
EndChar

StartChar: uni20B2
Encoding: 8370 8370 485
Width: 769
Flags: W
LayerCount: 2
Fore
SplineSet
730 427 m 1,0,-1
 670 47 l 1,1,2
 611 20 611 20 536 5 c 128,-1,3
 461 -10 461 -10 386 -10 c 2,4,-1
 377 -10 l 1,5,-1
 362 -105 l 1,6,-1
 269 -105 l 1,7,-1
 285 -1 l 1,8,9
 149 25 149 25 87 120 c 128,-1,10
 25 215 25 215 49 365 c 256,11,12
 73 515 73 515 165 610 c 128,-1,13
 257 705 257 705 401 731 c 1,14,-1
 418 835 l 1,15,-1
 511 835 l 1,16,-1
 496 740 l 1,17,-1
 505 740 l 2,18,19
 654 740 654 740 743 677 c 1,20,-1
 688 591 l 1,21,22
 602 642 602 642 486 642 c 2,23,-1
 480 642 l 1,24,-1
 446 427 l 1,25,-1
 730 427 l 1,0,-1
176 190 m 128,-1,27
 214 122 214 122 301 99 c 1,28,-1
 385 631 l 1,29,30
 290 608 290 608 231 540 c 128,-1,31
 172 472 172 472 155 365 c 256,32,26
 138 258 138 258 176 190 c 128,-1,27
573 117 m 1,34,-1
 607 332 l 1,35,-1
 431 332 l 1,36,-1
 392 88 l 1,37,-1
 398 88 l 2,38,33
 489 88 489 88 573 117 c 1,34,-1
EndSplineSet
EndChar

StartChar: uni20AD
Encoding: 8365 8365 486
Width: 731
GlyphClass: 2
Flags: W
AnchorPoint: "Anchor-1" 319 730 basechar 0
AnchorPoint: "Anchor-0" 319 0 basechar 0
LayerCount: 2
Fore
SplineSet
697 430 m 1,0,-1
 682 340 l 1,1,-1
 386 340 l 1,2,-1
 628 0 l 1,3,-1
 495 0 l 1,4,-1
 257 340 l 1,5,-1
 246 340 l 1,6,-1
 192 0 l 1,7,-1
 85 0 l 1,8,-1
 138 340 l 1,9,-1
 33 340 l 1,10,-1
 47 430 l 1,11,-1
 153 430 l 1,12,-1
 200 730 l 1,13,-1
 308 730 l 1,14,-1
 260 430 l 1,15,-1
 271 430 l 1,16,-1
 601 730 l 1,17,-1
 734 730 l 1,18,-1
 403 430 l 1,19,-1
 697 430 l 1,0,-1
EndSplineSet
EndChar

StartChar: lira
Encoding: 8356 8356 487
Width: 638
Flags: W
LayerCount: 2
Fore
SplineSet
550 98 m 1,0,-1
 535 0 l 1,1,-1
 35 0 l 1,2,-1
 51 98 l 1,3,4
 98 101 98 101 132 143.5 c 128,-1,5
 166 186 166 186 178 253 c 1,6,-1
 75 253 l 1,7,-1
 89 343 l 1,8,-1
 192 343 l 1,9,-1
 205 423 l 1,10,-1
 102 423 l 1,11,-1
 116 513 l 1,12,-1
 219 513 l 1,13,-1
 223 535 l 2,14,15
 239 633 239 633 307 686.5 c 128,-1,16
 375 740 375 740 485 740 c 0,17,18
 557 740 557 740 622 714 c 1,19,-1
 586 618 l 1,20,21
 539 642 539 642 482 642 c 0,22,23
 412 642 412 642 375 612 c 128,-1,24
 338 582 338 582 328 517 c 2,25,-1
 327 513 l 1,26,-1
 554 513 l 1,27,-1
 540 423 l 1,28,-1
 313 423 l 1,29,-1
 300 343 l 1,30,-1
 527 343 l 1,31,-1
 513 253 l 1,32,-1
 286 253 l 1,33,34
 277 201 277 201 251.5 160.5 c 128,-1,35
 226 120 226 120 190 100 c 1,36,-1
 190 98 l 1,37,-1
 550 98 l 1,0,-1
EndSplineSet
EndChar

StartChar: uni20BA
Encoding: 8378 8378 488
Width: 661
Flags: W
LayerCount: 2
Fore
SplineSet
637 340 m 1,0,1
 618 217 618 217 557.5 140 c 128,-1,2
 497 63 497 63 390 26.5 c 128,-1,3
 283 -10 283 -10 121 -10 c 2,4,-1
 82 -10 l 1,5,-1
 138 342 l 1,6,-1
 30 323 l 1,7,-1
 44 413 l 1,8,-1
 152 432 l 1,9,-1
 165 512 l 1,10,-1
 57 493 l 1,11,-1
 71 583 l 1,12,-1
 179 602 l 1,13,-1
 199 730 l 1,14,-1
 310 730 l 1,15,-1
 293 622 l 1,16,-1
 522 663 l 1,17,-1
 507 573 l 1,18,-1
 279 532 l 1,19,-1
 266 452 l 1,20,-1
 495 493 l 1,21,-1
 481 403 l 1,22,-1
 252 362 l 1,23,-1
 209 96 l 1,24,-1
 219 96 l 2,25,26
 366 96 366 96 442.5 154 c 128,-1,27
 519 212 519 212 539 340 c 1,28,-1
 637 340 l 1,0,1
EndSplineSet
EndChar

StartChar: uni20BC
Encoding: 8380 8380 489
Width: 753
Flags: W
CounterMasks: 1 38
LayerCount: 2
Fore
SplineSet
681 666 m 128,-1,1
 737 595 737 595 716 460 c 2,2,-1
 643 0 l 1,3,-1
 535 0 l 1,4,-1
 606 447 l 2,5,6
 622 545 622 545 591.5 591.5 c 128,-1,7
 561 638 561 638 480 640 c 1,8,-1
 378 0 l 1,9,-1
 285 0 l 1,10,-1
 386 640 l 1,11,12
 304 638 304 638 259.5 591.5 c 128,-1,13
 215 545 215 545 199 447 c 2,14,-1
 128 0 l 1,15,-1
 21 0 l 1,16,-1
 93 460 l 2,17,18
 114 595 114 595 193 666 c 128,-1,19
 272 737 272 737 402 740 c 1,20,-1
 417 835 l 1,21,-1
 510 835 l 1,22,-1
 495 740 l 1,23,0
 625 737 625 737 681 666 c 128,-1,1
EndSplineSet
EndChar

StartChar: uni20A6
Encoding: 8358 8358 490
Width: 812
GlyphClass: 2
Flags: W
AnchorPoint: "Anchor-1" 372 730 basechar 0
AnchorPoint: "Anchor-0" 372 0 basechar 0
LayerCount: 2
Fore
SplineSet
808 405 m 1,0,-1
 702 405 l 1,1,-1
 690 325 l 1,2,-1
 796 325 l 1,3,-1
 781 235 l 1,4,-1
 675 235 l 1,5,-1
 638 0 l 1,6,-1
 520 0 l 1,7,-1
 281 550 l 1,8,-1
 279 550 l 1,9,-1
 192 0 l 1,10,-1
 85 0 l 1,11,-1
 122 235 l 1,12,-1
 16 235 l 1,13,-1
 30 325 l 1,14,-1
 136 325 l 1,15,-1
 149 405 l 1,16,-1
 43 405 l 1,17,-1
 57 495 l 1,18,-1
 163 495 l 1,19,-1
 200 730 l 1,20,-1
 319 730 l 1,21,-1
 557 180 l 1,22,-1
 559 180 l 1,23,-1
 646 730 l 1,24,-1
 754 730 l 1,25,-1
 717 495 l 1,26,-1
 822 495 l 1,27,-1
 808 405 l 1,0,-1
EndSplineSet
EndChar

StartChar: peseta
Encoding: 8359 8359 491
Width: 720
Flags: W
LayerCount: 2
Fore
SplineSet
735 441 m 1,0,-1
 646 441 l 1,1,2
 618 342 618 342 539 293 c 128,-1,3
 460 244 460 244 329 244 c 2,4,-1
 231 244 l 1,5,-1
 192 0 l 1,6,-1
 85 0 l 1,7,-1
 154 441 l 1,8,-1
 49 441 l 1,9,-1
 63 531 l 1,10,-1
 169 531 l 1,11,-1
 200 730 l 1,12,-1
 386 730 l 2,13,14
 529 730 529 730 596.5 681.5 c 128,-1,15
 664 633 664 633 661 531 c 1,16,-1
 750 531 l 1,17,-1
 735 441 l 1,0,-1
276 531 m 1,18,-1
 549 531 l 1,19,20
 546 585 546 585 503.5 610 c 128,-1,21
 461 635 461 635 376 635 c 2,22,-1
 293 635 l 1,23,-1
 276 531 l 1,18,-1
464 362 m 128,-1,25
 514 387 514 387 535 441 c 1,26,-1
 262 441 l 1,27,-1
 246 337 l 1,28,-1
 329 337 l 2,29,24
 414 337 414 337 464 362 c 128,-1,25
EndSplineSet
EndChar

StartChar: uni20B1
Encoding: 8369 8369 492
Width: 720
Flags: W
LayerCount: 2
Fore
SplineSet
749 526 m 1,0,-1
 661 526 l 1,1,2
 659 502 659 502 657 487 c 256,3,4
 655 472 655 472 648 446 c 1,5,-1
 736 446 l 1,6,-1
 722 356 l 1,7,-1
 606 356 l 1,8,9
 527 244 527 244 329 244 c 2,10,-1
 231 244 l 1,11,-1
 192 0 l 1,12,-1
 85 0 l 1,13,-1
 141 356 l 1,14,-1
 35 356 l 1,15,-1
 49 446 l 1,16,-1
 155 446 l 1,17,-1
 168 526 l 1,18,-1
 62 526 l 1,19,-1
 76 616 l 1,20,-1
 182 616 l 1,21,-1
 200 730 l 1,22,-1
 386 730 l 2,23,24
 495 730 495 730 560 702 c 128,-1,25
 625 674 625 674 649 616 c 1,26,-1
 763 616 l 1,27,-1
 749 526 l 1,0,-1
482 373 m 128,-1,29
 534 409 534 409 547 486 c 256,30,31
 559 563 559 563 518 599 c 128,-1,32
 477 635 477 635 376 635 c 2,33,-1
 293 635 l 1,34,-1
 246 337 l 1,35,-1
 329 337 l 2,36,28
 430 337 430 337 482 373 c 128,-1,29
EndSplineSet
EndChar

StartChar: uni20BD
Encoding: 8381 8381 493
Width: 649
Flags: W
LayerCount: 2
Fore
SplineSet
235 272 m 1,0,-1
 223 192 l 1,1,-1
 460 192 l 1,2,-1
 446 102 l 1,3,-1
 208 102 l 1,4,-1
 192 0 l 1,5,-1
 85 0 l 1,6,-1
 101 102 l 1,7,-1
 -5 102 l 1,8,-1
 9 192 l 1,9,-1
 115 192 l 1,10,-1
 128 272 l 1,11,-1
 22 272 l 1,12,-1
 36 362 l 1,13,-1
 142 362 l 1,14,-1
 200 730 l 1,15,-1
 386 730 l 2,16,17
 544 730 544 730 610.5 673 c 128,-1,18
 677 616 677 616 658 497 c 0,19,20
 640 383 640 383 559.5 327.5 c 128,-1,21
 479 272 479 272 333 272 c 2,22,-1
 235 272 l 1,0,-1
250 362 m 1,23,-1
 333 362 l 2,24,25
 434 362 434 362 485.5 394 c 128,-1,26
 537 426 537 426 548 496 c 256,27,28
 559 566 559 566 517.5 598 c 128,-1,29
 476 630 476 630 375 630 c 2,30,-1
 292 630 l 1,31,-1
 250 362 l 1,23,-1
EndSplineSet
EndChar

StartChar: uni20B9
Encoding: 8377 8377 494
Width: 614
Flags: W
LayerCount: 2
Fore
SplineSet
510 640 m 1,0,1
 529 606 529 606 529 560 c 1,2,-1
 618 560 l 1,3,-1
 604 470 l 1,4,-1
 514 470 l 1,5,6
 490 397 490 397 429.5 356 c 128,-1,7
 369 315 369 315 270 305 c 1,8,-1
 468 0 l 1,9,-1
 327 0 l 1,10,-1
 131 302 l 1,11,-1
 50 302 l 1,12,-1
 66 400 l 1,13,-1
 218 400 l 2,14,15
 292 400 292 400 336.5 417 c 128,-1,16
 381 434 381 434 400 470 c 1,17,-1
 77 470 l 1,18,-1
 91 560 l 1,19,-1
 414 560 l 1,20,21
 406 596 406 596 367 613 c 128,-1,22
 328 630 328 630 254 630 c 2,23,-1
 102 630 l 1,24,-1
 118 730 l 1,25,-1
 645 730 l 1,26,-1
 631 640 l 1,27,-1
 510 640 l 1,0,1
EndSplineSet
EndChar

StartChar: sterling
Encoding: 163 163 495
Width: 638
Flags: W
LayerCount: 2
Fore
SplineSet
550 98 m 1,0,-1
 535 0 l 1,1,-1
 35 0 l 1,2,-1
 51 98 l 1,3,4
 98 101 98 101 133 145 c 128,-1,5
 168 189 168 189 179 257 c 2,6,-1
 192 338 l 1,7,-1
 89 338 l 1,8,-1
 103 428 l 1,9,-1
 206 428 l 1,10,-1
 223 535 l 2,11,12
 239 633 239 633 307 686.5 c 128,-1,13
 375 740 375 740 485 740 c 0,14,15
 557 740 557 740 622 714 c 1,16,-1
 586 618 l 1,17,18
 539 642 539 642 482 642 c 0,19,20
 412 642 412 642 375 612 c 128,-1,21
 338 582 338 582 328 517 c 2,22,-1
 314 428 l 1,23,-1
 541 428 l 1,24,-1
 527 338 l 1,25,-1
 299 338 l 1,26,-1
 286 257 l 2,27,28
 278 204 278 204 252.5 162 c 128,-1,29
 227 120 227 120 190 100 c 1,30,-1
 190 98 l 1,31,-1
 550 98 l 1,0,-1
EndSplineSet
EndChar

StartChar: uni20A9
Encoding: 8361 8361 496
Width: 988
GlyphClass: 2
Flags: W
AnchorPoint: "Anchor-1" 463 730 basechar 0
AnchorPoint: "Anchor-0" 463 0 basechar 0
LayerCount: 2
Fore
SplineSet
984 405 m 1,0,-1
 870 405 l 1,1,-1
 840 325 l 1,2,-1
 971 325 l 1,3,-1
 957 235 l 1,4,-1
 805 235 l 1,5,-1
 714 0 l 1,6,-1
 580 0 l 1,7,-1
 557 235 l 1,8,-1
 420 235 l 1,9,-1
 322 0 l 1,10,-1
 188 0 l 1,11,-1
 173 235 l 1,12,-1
 16 235 l 1,13,-1
 30 325 l 1,14,-1
 166 325 l 1,15,-1
 160 405 l 1,16,-1
 43 405 l 1,17,-1
 57 495 l 1,18,-1
 154 495 l 1,19,-1
 138 730 l 1,20,-1
 249 730 l 1,21,-1
 261 495 l 1,22,-1
 428 495 l 1,23,-1
 484 630 l 1,24,-1
 617 630 l 1,25,-1
 630 495 l 1,26,-1
 799 495 l 1,27,-1
 885 730 l 1,28,-1
 996 730 l 1,29,-1
 905 495 l 1,30,-1
 998 495 l 1,31,-1
 984 405 l 1,0,-1
548 325 m 1,32,-1
 531 497 l 1,33,-1
 529 497 l 1,34,-1
 457 325 l 1,35,-1
 548 325 l 1,32,-1
265 405 m 1,36,-1
 269 325 l 1,37,-1
 358 325 l 1,38,-1
 392 405 l 1,39,-1
 265 405 l 1,36,-1
737 325 m 1,40,-1
 766 405 l 1,41,-1
 640 405 l 1,42,-1
 647 325 l 1,43,-1
 737 325 l 1,40,-1
280 134 m 1,44,-1
 322 235 l 1,45,-1
 274 235 l 1,46,-1
 278 134 l 1,47,-1
 280 134 l 1,44,-1
667 134 m 1,48,-1
 704 235 l 1,49,-1
 656 235 l 1,50,-1
 665 134 l 1,51,-1
 667 134 l 1,48,-1
EndSplineSet
EndChar

StartChar: yen
Encoding: 165 165 497
Width: 639
Flags: W
LayerCount: 2
Fore
SplineSet
704 730 m 1,0,-1
 439 380 l 1,1,-1
 595 380 l 1,2,-1
 581 290 l 1,3,-1
 377 290 l 1,4,-1
 364 210 l 1,5,-1
 568 210 l 1,6,-1
 554 120 l 1,7,-1
 350 120 l 1,8,-1
 331 0 l 1,9,-1
 219 0 l 1,10,-1
 238 120 l 1,11,-1
 34 120 l 1,12,-1
 49 210 l 1,13,-1
 252 210 l 1,14,-1
 265 290 l 1,15,-1
 61 290 l 1,16,-1
 75 380 l 1,17,-1
 231 380 l 1,18,-1
 77 730 l 1,19,-1
 200 730 l 1,20,-1
 338 401 l 1,21,-1
 339 401 l 1,22,-1
 581 730 l 1,23,-1
 704 730 l 1,0,-1
EndSplineSet
EndChar

StartChar: uni2215
Encoding: 8725 8725 499
Width: 444
Flags: W
LayerCount: 2
Fore
SplineSet
395 730 m 1,0,-1
 504 730 l 1,1,-1
 75 0 l 1,2,-1
 -34 0 l 1,3,-1
 395 730 l 1,0,-1
EndSplineSet
EndChar

StartChar: plus
Encoding: 43 43 500
Width: 670
Flags: W
LayerCount: 2
Fore
SplineSet
279 240 m 1,0,-1
 44 240 l 1,1,-1
 60 340 l 1,2,-1
 295 340 l 1,3,-1
 333 580 l 1,4,-1
 431 580 l 1,5,-1
 393 340 l 1,6,-1
 628 340 l 1,7,-1
 612 240 l 1,8,-1
 377 240 l 1,9,-1
 339 0 l 1,10,-1
 241 0 l 1,11,-1
 279 240 l 1,0,-1
EndSplineSet
EndChar

StartChar: minus
Encoding: 8722 8722 501
Width: 670
Flags: W
LayerCount: 2
Fore
SplineSet
60 340 m 1,0,-1
 628 340 l 1,1,-1
 612 240 l 1,2,-1
 44 240 l 1,3,-1
 60 340 l 1,0,-1
EndSplineSet
EndChar

StartChar: multiply
Encoding: 215 215 502
Width: 596
Flags: W
LayerCount: 2
Fore
SplineSet
230 290 m 1,0,-1
 65 492 l 1,1,-1
 144 562 l 1,2,-1
 311 361 l 1,3,-1
 540 562 l 1,4,-1
 598 492 l 1,5,-1
 369 290 l 1,6,-1
 534 88 l 1,7,-1
 454 18 l 1,8,-1
 288 219 l 1,9,-1
 58 18 l 1,10,-1
 1 88 l 1,11,-1
 230 290 l 1,0,-1
EndSplineSet
EndChar

StartChar: divide
Encoding: 247 247 503
Width: 670
Flags: W
CounterMasks: 1 e0
LayerCount: 2
Fore
SplineSet
316.5 465 m 128,-1,1
 300 485 300 485 305 513 c 256,2,3
 309 541 309 541 332 560.5 c 128,-1,4
 355 580 355 580 382 580 c 256,5,6
 409 580 409 580 425.5 560.5 c 128,-1,7
 442 541 442 541 437 513 c 256,8,9
 433 485 433 485 410.5 465 c 128,-1,10
 388 445 388 445 361 445 c 256,11,0
 333 445 333 445 316.5 465 c 128,-1,1
60 340 m 1,12,-1
 628 340 l 1,13,-1
 612 240 l 1,14,-1
 44 240 l 1,15,-1
 60 340 l 1,12,-1
246.5 20 m 128,-1,17
 230 40 230 40 234 68 c 256,18,19
 238 96 238 96 261 115.5 c 128,-1,20
 284 135 284 135 312 135 c 256,21,22
 339 135 339 135 355 115.5 c 128,-1,23
 371 96 371 96 367 68 c 256,24,25
 363 40 363 40 340.5 20 c 128,-1,26
 318 0 318 0 290 0 c 256,27,16
 263 0 263 0 246.5 20 c 128,-1,17
EndSplineSet
EndChar

StartChar: equal
Encoding: 61 61 504
Width: 728
Flags: W
LayerCount: 2
Fore
SplineSet
107 455 m 1,0,-1
 676 455 l 1,1,-1
 660 358 l 1,2,-1
 92 358 l 1,3,-1
 107 455 l 1,0,-1
70 222 m 1,4,-1
 639 222 l 1,5,-1
 623 125 l 1,6,-1
 55 125 l 1,7,-1
 70 222 l 1,4,-1
EndSplineSet
EndChar

StartChar: notequal
Encoding: 8800 8800 505
Width: 728
Flags: W
LayerCount: 2
Fore
SplineSet
660 358 m 1,0,-1
 450 358 l 1,1,-1
 386 222 l 1,2,-1
 639 222 l 1,3,-1
 623 125 l 1,4,-1
 340 125 l 1,5,-1
 264 -35 l 1,6,-1
 172 -5 l 1,7,-1
 234 125 l 1,8,-1
 55 125 l 1,9,-1
 70 222 l 1,10,-1
 280 222 l 1,11,-1
 345 358 l 1,12,-1
 92 358 l 1,13,-1
 107 455 l 1,14,-1
 390 455 l 1,15,-1
 467 615 l 1,16,-1
 558 585 l 1,17,-1
 496 455 l 1,18,-1
 676 455 l 1,19,-1
 660 358 l 1,0,-1
EndSplineSet
EndChar

StartChar: greater
Encoding: 62 62 506
Width: 692
Flags: W
LayerCount: 2
Fore
SplineSet
47 119 m 1,0,-1
 560 289 l 1,1,-1
 560 291 l 1,2,-1
 101 461 l 1,3,-1
 118 571 l 1,4,-1
 652 352 l 1,5,-1
 632 228 l 1,6,-1
 29 9 l 1,7,-1
 47 119 l 1,0,-1
EndSplineSet
EndChar

StartChar: less
Encoding: 60 60 507
Width: 692
Flags: W
LayerCount: 2
Fore
SplineSet
42 228 m 1,0,-1
 62 352 l 1,1,-1
 665 571 l 1,2,-1
 647 461 l 1,3,-1
 134 291 l 1,4,-1
 134 289 l 1,5,-1
 593 119 l 1,6,-1
 576 9 l 1,7,-1
 42 228 l 1,0,-1
EndSplineSet
EndChar

StartChar: greaterequal
Encoding: 8805 8805 508
Width: 683
Flags: W
LayerCount: 2
Fore
SplineSet
49 178 m 1,0,-1
 66 288 l 1,1,-1
 579 458 l 1,2,-1
 579 460 l 1,3,-1
 120 630 l 1,4,-1
 138 740 l 1,5,-1
 671 521 l 1,6,-1
 652 397 l 1,7,-1
 49 178 l 1,0,-1
21 0 m 1,8,-1
 36 97 l 1,9,-1
 604 97 l 1,10,-1
 589 0 l 1,11,-1
 21 0 l 1,8,-1
EndSplineSet
EndChar

StartChar: lessequal
Encoding: 8804 8804 509
Width: 683
Flags: W
LayerCount: 2
Fore
SplineSet
87 521 m 1,0,-1
 690 740 l 1,1,-1
 672 630 l 1,2,-1
 159 460 l 1,3,-1
 159 458 l 1,4,-1
 618 288 l 1,5,-1
 601 178 l 1,6,-1
 67 397 l 1,7,-1
 87 521 l 1,0,-1
20 97 m 1,8,-1
 588 97 l 1,9,-1
 573 0 l 1,10,-1
 4 0 l 1,11,-1
 20 97 l 1,8,-1
EndSplineSet
EndChar

StartChar: plusminus
Encoding: 177 177 510
Width: 728
Flags: W
LayerCount: 2
Fore
SplineSet
335 410 m 1,0,-1
 100 410 l 1,1,-1
 115 507 l 1,2,-1
 351 507 l 1,3,-1
 386 730 l 1,4,-1
 484 730 l 1,5,-1
 449 507 l 1,6,-1
 684 507 l 1,7,-1
 668 410 l 1,8,-1
 433 410 l 1,9,-1
 398 187 l 1,10,-1
 300 187 l 1,11,-1
 335 410 l 1,0,-1
50 97 m 1,12,-1
 619 97 l 1,13,-1
 603 0 l 1,14,-1
 35 0 l 1,15,-1
 50 97 l 1,12,-1
EndSplineSet
EndChar

StartChar: approxequal
Encoding: 8776 8776 511
Width: 715
Flags: W
LayerCount: 2
Fore
SplineSet
123 459.5 m 128,-1,1
 162 504 162 504 228 504 c 0,2,3
 297 504 297 504 411 452 c 0,4,5
 452 433 452 433 479 425 c 128,-1,6
 506 417 506 417 528 417 c 0,7,8
 557 417 557 417 570.5 433 c 128,-1,9
 584 449 584 449 591 494 c 1,10,-1
 685 494 l 1,11,12
 670 402 670 402 631.5 357.5 c 128,-1,13
 593 313 593 313 527 313 c 0,14,15
 458 313 458 313 344 365 c 0,16,17
 303 384 303 384 276 392 c 128,-1,18
 249 400 249 400 227 400 c 0,19,20
 198 400 198 400 184.5 384 c 128,-1,21
 171 368 171 368 164 323 c 1,22,-1
 70 323 l 1,23,0
 84 415 84 415 123 459.5 c 128,-1,1
84.5 214.5 m 128,-1,25
 123 259 123 259 189 259 c 0,26,27
 258 259 258 259 372 207 c 0,28,29
 413 188 413 188 440 180 c 128,-1,30
 467 172 467 172 489 172 c 0,31,32
 518 172 518 172 531.5 188 c 128,-1,33
 545 204 545 204 552 249 c 1,34,-1
 646 249 l 1,35,36
 631 157 631 157 592.5 112.5 c 128,-1,37
 554 68 554 68 488 68 c 0,38,39
 419 68 419 68 305 120 c 0,40,41
 264 139 264 139 237 147 c 128,-1,42
 210 155 210 155 188 155 c 0,43,44
 159 155 159 155 145.5 139 c 128,-1,45
 132 123 132 123 125 78 c 1,46,-1
 31 78 l 1,47,24
 46 170 46 170 84.5 214.5 c 128,-1,25
EndSplineSet
EndChar

StartChar: asciitilde
Encoding: 126 126 512
Width: 689
Flags: W
LayerCount: 2
Fore
SplineSet
94 352.5 m 128,-1,1
 133 398 133 398 198 398 c 0,2,3
 268 398 268 398 381 345 c 0,4,5
 422 326 422 326 448.5 317.5 c 128,-1,6
 475 309 475 309 498 309 c 0,7,8
 527 309 527 309 540.5 325.5 c 128,-1,9
 554 342 554 342 561 388 c 1,10,-1
 655 388 l 1,11,12
 640 294 640 294 601 248.5 c 128,-1,13
 562 203 562 203 497 203 c 0,14,15
 427 203 427 203 314 256 c 0,16,17
 273 275 273 275 246.5 283.5 c 128,-1,18
 220 292 220 292 197 292 c 0,19,20
 168 292 168 292 154.5 275.5 c 128,-1,21
 141 259 141 259 134 213 c 1,22,-1
 40 213 l 1,23,0
 55 307 55 307 94 352.5 c 128,-1,1
EndSplineSet
EndChar

StartChar: logicalnot
Encoding: 172 172 513
Width: 699
Flags: W
LayerCount: 2
Fore
SplineSet
533 355 m 1,0,-1
 62 355 l 1,1,-1
 78 455 l 1,2,-1
 646 455 l 1,3,-1
 594 125 l 1,4,-1
 496 125 l 1,5,-1
 533 355 l 1,0,-1
EndSplineSet
EndChar

StartChar: asciicircum
Encoding: 94 94 514
Width: 609
Flags: W
LayerCount: 2
Fore
SplineSet
305 730 m 1,0,-1
 447 730 l 1,1,-1
 598 280 l 1,2,-1
 480 280 l 1,3,-1
 364 653 l 1,4,-1
 362 653 l 1,5,-1
 130 280 l 1,6,-1
 10 280 l 1,7,-1
 305 730 l 1,0,-1
EndSplineSet
EndChar

StartChar: uni00B5
Encoding: 181 181 515
Width: 550
GlyphClass: 2
Flags: W
AnchorPoint: "Anchor-3" 458 480 basechar 0
AnchorPoint: "Anchor-2" 473 0 basechar 0
AnchorPoint: "Anchor-1" 251 520 basechar 0
AnchorPoint: "Anchor-0" 251 0 basechar 0
LayerCount: 2
Fore
SplineSet
522 520 m 1,0,-1
 439 0 l 1,1,-1
 343 0 l 1,2,-1
 354 76 l 1,3,-1
 352 76 l 1,4,5
 314 35 314 35 265 12.5 c 128,-1,6
 216 -10 216 -10 163 -10 c 0,7,8
 136 -10 136 -10 115 -4 c 1,9,-1
 81 -220 l 1,10,-1
 -21 -220 l 1,11,-1
 97 520 l 1,12,-1
 198 520 l 1,13,-1
 151 220 l 2,14,15
 139 147 139 147 152 113.5 c 128,-1,16
 165 80 165 80 206 80 c 0,17,18
 243 80 243 80 280.5 104.5 c 128,-1,19
 318 129 318 129 344.5 169.5 c 128,-1,20
 371 210 371 210 378 255 c 2,21,-1
 420 520 l 1,22,-1
 522 520 l 1,0,-1
EndSplineSet
EndChar

StartChar: percent
Encoding: 37 37 516
Width: 855
Flags: W
LayerCount: 2
Fore
SplineSet
85 341.5 m 128,-1,1
 54 397 54 397 72 511 c 256,2,3
 90 625 90 625 138.5 680.5 c 128,-1,4
 187 736 187 736 270 736 c 256,5,6
 352 736 352 736 383 680.5 c 128,-1,7
 414 625 414 625 396 511 c 256,8,9
 378 397 378 397 329.5 341.5 c 128,-1,10
 281 286 281 286 198 286 c 256,11,0
 116 286 116 286 85 341.5 c 128,-1,1
643 730 m 1,12,-1
 746 730 l 1,13,-1
 238 0 l 1,14,-1
 135 0 l 1,15,-1
 643 730 l 1,12,-1
265.5 408.5 m 128,-1,17
 286 440 286 440 297 511 c 256,18,19
 308 582 308 582 298 613.5 c 128,-1,20
 288 645 288 645 255 645 c 256,21,22
 223 645 223 645 203 613.5 c 128,-1,23
 183 582 183 582 171 511 c 256,24,25
 160 440 160 440 170 408.5 c 128,-1,26
 180 377 180 377 213 377 c 256,27,16
 245 377 245 377 265.5 408.5 c 128,-1,17
498.5 49.5 m 128,-1,29
 468 105 468 105 486 219 c 256,30,31
 504 333 504 333 552.5 388.5 c 128,-1,32
 601 444 601 444 683 444 c 256,33,34
 765 444 765 444 796 388.5 c 128,-1,35
 827 333 827 333 809 219 c 256,36,37
 791 105 791 105 742.5 49.5 c 128,-1,38
 694 -6 694 -6 612 -6 c 256,39,28
 529 -6 529 -6 498.5 49.5 c 128,-1,29
679 116.5 m 128,-1,41
 699 148 699 148 710 219 c 256,42,43
 721 290 721 290 711 321.5 c 128,-1,44
 701 353 701 353 669 353 c 256,45,46
 637 353 637 353 616.5 321.5 c 128,-1,47
 596 290 596 290 585 219 c 256,48,49
 574 148 574 148 584 116.5 c 128,-1,50
 594 85 594 85 626 85 c 256,51,40
 659 85 659 85 679 116.5 c 128,-1,41
EndSplineSet
EndChar

StartChar: filledbox
Encoding: 9632 9632 518
Width: 963
Flags: W
LayerCount: 2
Fore
SplineSet
181 740 m 1,0,-1
 926 740 l 1,1,-1
 806 -20 l 1,2,-1
 61 -20 l 1,3,-1
 181 740 l 1,0,-1
EndSplineSet
EndChar

StartChar: at
Encoding: 64 64 519
Width: 802
Flags: W
LayerCount: 2
Fore
SplineSet
608 457 m 1,0,-1
 558 143 l 1,1,-1
 643 143 l 1,2,3
 674 195 674 195 684 260 c 0,4,5
 698 346 698 346 672 412.5 c 128,-1,6
 646 479 646 479 587 516 c 128,-1,7
 528 553 528 553 445 553 c 256,8,9
 362 553 362 553 290 515.5 c 128,-1,10
 218 478 218 478 171 411.5 c 128,-1,11
 124 345 124 345 111 260 c 256,12,13
 98 175 98 175 123.5 108.5 c 128,-1,14
 149 42 149 42 208.5 4.5 c 128,-1,15
 268 -33 268 -33 352 -33 c 0,16,17
 458 -33 458 -33 544 28 c 1,18,-1
 580 -36 l 1,19,20
 527 -73 527 -73 466 -93 c 128,-1,21
 405 -113 405 -113 339 -113 c 0,22,23
 234 -113 234 -113 158.5 -65 c 128,-1,24
 83 -17 83 -17 49.5 68 c 128,-1,25
 16 153 16 153 33 260 c 256,26,27
 50 367 50 367 110.5 452 c 128,-1,28
 171 537 171 537 261.5 585 c 128,-1,29
 352 633 352 633 457 633 c 256,30,31
 562 633 562 633 638 585.5 c 128,-1,32
 714 538 714 538 747 453 c 128,-1,33
 780 368 780 368 763 260 c 0,34,35
 745 147 745 147 681 63 c 1,36,-1
 443 63 l 1,37,-1
 452 123 l 1,38,-1
 450 123 l 1,39,40
 395 55 395 55 320 55 c 0,41,42
 250 55 250 55 216.5 109.5 c 128,-1,43
 183 164 183 164 198 260 c 256,44,45
 213 356 213 356 264 410.5 c 128,-1,46
 315 465 315 465 385 465 c 0,47,48
 423 465 423 465 449.5 448.5 c 128,-1,49
 476 432 476 432 493 398 c 1,50,-1
 495 398 l 1,51,-1
 506 457 l 1,52,-1
 608 457 l 1,0,-1
472 268 m 2,53,54
 481 322 481 322 463.5 351 c 128,-1,55
 446 380 446 380 406 380 c 0,56,57
 368 380 368 380 340.5 348.5 c 128,-1,58
 313 317 313 317 304 260 c 256,59,60
 295 203 295 203 312.5 171.5 c 128,-1,61
 330 140 330 140 368 140 c 0,62,63
 407 140 407 140 434 169 c 128,-1,64
 461 198 461 198 469 252 c 2,65,-1
 472 268 l 2,53,54
EndSplineSet
EndChar

StartChar: ampersand
Encoding: 38 38 520
Width: 685
Flags: W
LayerCount: 2
Fore
SplineSet
560 -12 m 1,0,-1
 495 66 l 1,1,2
 428 27 428 27 365 8.5 c 128,-1,3
 302 -10 302 -10 237 -10 c 0,4,5
 122 -10 122 -10 63.5 39.5 c 128,-1,6
 5 89 5 89 19 175 c 0,7,8
 29 235 29 235 73 283.5 c 128,-1,9
 117 332 117 332 221 395 c 1,10,-1
 217 399 l 2,11,12
 169 456 169 456 153.5 499 c 128,-1,13
 138 542 138 542 145 588 c 0,14,15
 156 660 156 660 216 700 c 128,-1,16
 276 740 276 740 373 740 c 0,17,18
 469 740 469 740 517.5 699.5 c 128,-1,19
 566 659 566 659 555 588 c 0,20,21
 546 534 546 534 503 487 c 128,-1,22
 460 440 460 440 366 382 c 1,23,-1
 492 228 l 1,24,-1
 521 405 l 1,25,-1
 619 405 l 1,26,-1
 574 128 l 1,27,-1
 645 42 l 1,28,-1
 560 -12 l 1,0,-1
283 639 m 128,-1,30
 253 620 253 620 248 585 c 0,31,32
 244 557 244 557 258 528 c 128,-1,33
 272 499 272 499 312 448 c 1,34,35
 385 492 385 492 415.5 522.5 c 128,-1,36
 446 553 446 553 452 585 c 0,37,38
 458 621 458 621 434.5 639.5 c 128,-1,39
 411 658 411 658 362 658 c 256,40,29
 313 658 313 658 283 639 c 128,-1,30
436 138 m 1,42,-1
 276 329 l 1,43,44
 200 284 200 284 168 251.5 c 128,-1,45
 136 219 136 219 130 183 c 0,46,47
 122 135 122 135 155.5 107.5 c 128,-1,48
 189 80 189 80 256 80 c 0,49,41
 350 80 350 80 436 138 c 1,42,-1
EndSplineSet
EndChar

StartChar: paragraph
Encoding: 182 182 521
Width: 612
Flags: W
LayerCount: 2
Fore
SplineSet
125 301 m 128,-1,1
 78 332 78 332 56 385 c 128,-1,2
 34 438 34 438 44 500 c 256,3,4
 54 562 54 562 93 615 c 128,-1,5
 132 668 132 668 188.5 699 c 128,-1,6
 245 730 245 730 306 730 c 2,7,-1
 610 730 l 1,8,-1
 477 -110 l 1,9,-1
 384 -110 l 1,10,-1
 503 645 l 1,11,-1
 386 645 l 1,12,-1
 266 -110 l 1,13,-1
 173 -110 l 1,14,-1
 233 270 l 1,15,0
 172 270 172 270 125 301 c 128,-1,1
EndSplineSet
EndChar

StartChar: section
Encoding: 167 167 522
Width: 536
Flags: W
LayerCount: 2
Fore
SplineSet
440 50 m 0,1,2
 427 -32 427 -32 366 -76 c 128,-1,3
 305 -120 305 -120 205 -120 c 0,4,5
 103 -120 103 -120 11 -75 c 1,6,-1
 51 10 l 1,7,8
 92 -11 92 -11 129.5 -20.5 c 128,-1,9
 167 -30 167 -30 209 -30 c 0,10,11
 269 -30 269 -30 301 -10 c 128,-1,12
 333 10 333 10 340 50 c 0,13,14
 346 88 346 88 323.5 110 c 128,-1,15
 301 132 301 132 243 143 c 0,16,17
 42 182 42 182 65 325 c 0,18,19
 77 403 77 403 141 449 c 1,20,21
 93 493 93 493 105 570 c 0,22,23
 118 652 118 652 179 696 c 128,-1,24
 240 740 240 740 340 740 c 0,25,26
 442 740 442 740 534 695 c 1,27,-1
 494 610 l 1,28,29
 453 631 453 631 415.5 640.5 c 128,-1,30
 378 650 378 650 336 650 c 0,31,32
 276 650 276 650 244 630.5 c 128,-1,33
 212 611 212 611 205 570 c 0,34,35
 199 532 199 532 221.5 510 c 128,-1,36
 244 488 244 488 302 477 c 0,37,38
 503 438 503 438 480 295 c 0,39,40
 468 217 468 217 404 171 c 1,41,0
 452 127 452 127 440 50 c 0,1,2
172 266.5 m 128,-1,43
 197 246 197 246 268 230 c 0,44,45
 312 220 312 220 336 210 c 1,46,47
 359 225 359 225 373.5 247 c 128,-1,48
 388 269 388 269 392 295 c 0,49,50
 398 333 398 333 373 353.5 c 128,-1,51
 348 374 348 374 277 390 c 0,52,53
 233 400 233 400 209 410 c 1,54,55
 186 395 186 395 171.5 373 c 128,-1,56
 157 351 157 351 153 325 c 0,57,42
 147 287 147 287 172 266.5 c 128,-1,43
EndSplineSet
EndChar

StartChar: copyright
Encoding: 169 169 523
Width: 798
Flags: W
LayerCount: 2
Fore
SplineSet
178.5 45 m 128,-1,1
 103 95 103 95 68 180 c 128,-1,2
 33 265 33 265 49 365 c 0,3,4
 65 466 65 466 127 551 c 128,-1,5
 189 636 189 636 280 685.5 c 128,-1,6
 371 735 371 735 470 735 c 0,7,8
 568 735 568 735 643.5 685.5 c 128,-1,9
 719 636 719 636 754.5 551 c 128,-1,10
 790 466 790 466 774 365 c 0,11,12
 758 265 758 265 696 180 c 128,-1,13
 634 95 634 95 542.5 45 c 128,-1,14
 451 -5 451 -5 353 -5 c 0,15,0
 254 -5 254 -5 178.5 45 c 128,-1,1
518.5 105.5 m 128,-1,17
 592 146 592 146 642.5 214.5 c 128,-1,18
 693 283 693 283 706 365 c 256,19,20
 719 447 719 447 690 515.5 c 128,-1,21
 661 584 661 584 600.5 624.5 c 128,-1,22
 540 665 540 665 459 665 c 256,23,24
 379 665 379 665 305.5 624.5 c 128,-1,25
 232 584 232 584 181.5 515.5 c 128,-1,26
 131 447 131 447 118 365 c 256,27,28
 105 283 105 283 134 214.5 c 128,-1,29
 163 146 163 146 223.5 105.5 c 128,-1,30
 284 65 284 65 364 65 c 256,31,16
 445 65 445 65 518.5 105.5 c 128,-1,17
240.5 200 m 128,-1,33
 193 260 193 260 210 365 c 256,34,35
 227 470 227 470 293.5 530 c 128,-1,36
 360 590 360 590 459 590 c 0,37,38
 540 590 540 590 594 551 c 1,39,-1
 536 470 l 1,40,41
 496 499 496 499 448 499 c 0,42,43
 392 499 392 499 356 464 c 128,-1,44
 320 429 320 429 310 365 c 256,45,46
 300 301 300 301 324.5 266 c 128,-1,47
 349 231 349 231 405 231 c 0,48,49
 454 231 454 231 503 260 c 1,50,-1
 535 179 l 1,51,52
 469 140 469 140 388 140 c 0,53,32
 288 140 288 140 240.5 200 c 128,-1,33
EndSplineSet
EndChar

StartChar: registered
Encoding: 174 174 524
Width: 798
Flags: W
LayerCount: 2
Fore
SplineSet
643.5 685.5 m 128,-1,1
 719 636 719 636 754.5 551 c 128,-1,2
 790 466 790 466 774 365 c 0,3,4
 758 265 758 265 696 180 c 128,-1,5
 634 95 634 95 542.5 45 c 128,-1,6
 451 -5 451 -5 353 -5 c 0,7,8
 254 -5 254 -5 178.5 45 c 128,-1,9
 103 95 103 95 68 180 c 128,-1,10
 33 265 33 265 49 365 c 0,11,12
 65 466 65 466 127 551 c 128,-1,13
 189 636 189 636 280 685.5 c 128,-1,14
 371 735 371 735 470 735 c 0,15,0
 568 735 568 735 643.5 685.5 c 128,-1,1
518.5 105.5 m 128,-1,17
 592 146 592 146 642.5 214.5 c 128,-1,18
 693 283 693 283 706 365 c 256,19,20
 719 447 719 447 690 515.5 c 128,-1,21
 661 584 661 584 600.5 624.5 c 128,-1,22
 540 665 540 665 459 665 c 256,23,24
 379 665 379 665 305.5 624.5 c 128,-1,25
 232 584 232 584 181.5 515.5 c 128,-1,26
 131 447 131 447 118 365 c 256,27,28
 105 283 105 283 134 214.5 c 128,-1,29
 163 146 163 146 223.5 105.5 c 128,-1,30
 284 65 284 65 364 65 c 256,31,16
 445 65 445 65 518.5 105.5 c 128,-1,17
462 319 m 1,33,-1
 567 146 l 1,34,-1
 451 146 l 1,35,-1
 363 309 l 1,36,-1
 337 146 l 1,37,-1
 239 146 l 1,38,-1
 308 584 l 1,39,-1
 425 584 l 2,40,41
 520 584 520 584 560 551 c 128,-1,42
 600 518 600 518 589 449 c 0,43,32
 572 343 572 343 462 319 c 1,33,-1
394 504 m 1,44,-1
 375 389 l 1,45,-1
 397 389 l 2,46,47
 441 389 441 389 462.5 402.5 c 128,-1,48
 484 416 484 416 488 446 c 256,49,50
 493 476 493 476 476 490 c 128,-1,51
 459 504 459 504 415 504 c 2,52,-1
 394 504 l 1,44,-1
EndSplineSet
EndChar

StartChar: trademark
Encoding: 8482 8482 525
Width: 746
Flags: W
LayerCount: 2
Fore
SplineSet
181 653 m 1,0,-1
 84 653 l 1,1,-1
 96 730 l 1,2,-1
 380 730 l 1,3,-1
 368 653 l 1,4,-1
 271 653 l 1,5,-1
 225 365 l 1,6,-1
 135 365 l 1,7,-1
 181 653 l 1,0,-1
433 730 m 1,8,-1
 543 730 l 1,9,-1
 582 568 l 1,10,-1
 583 568 l 1,11,-1
 673 730 l 1,12,-1
 783 730 l 1,13,-1
 725 365 l 1,14,-1
 637 365 l 1,15,-1
 669 564 l 1,16,-1
 668 564 l 1,17,-1
 601 443 l 1,18,-1
 524 443 l 1,19,-1
 496 564 l 1,20,-1
 495 564 l 1,21,-1
 464 365 l 1,22,-1
 375 365 l 1,23,-1
 433 730 l 1,8,-1
EndSplineSet
EndChar

StartChar: degree
Encoding: 176 176 526
Width: 403
Flags: W
LayerCount: 2
Fore
SplineSet
137.5 413.5 m 128,-1,1
 102 437 102 437 85.5 476.5 c 128,-1,2
 69 516 69 516 77 563 c 256,3,4
 84 610 84 610 113 649.5 c 128,-1,5
 142 689 142 689 185 712 c 128,-1,6
 228 735 228 735 274 735 c 0,7,8
 319 735 319 735 354 712 c 128,-1,9
 389 689 389 689 405.5 649.5 c 128,-1,10
 422 610 422 610 415 563 c 256,11,12
 408 516 408 516 378.5 476.5 c 128,-1,13
 349 437 349 437 306.5 413.5 c 128,-1,14
 264 390 264 390 219 390 c 0,15,0
 173 390 173 390 137.5 413.5 c 128,-1,1
299.5 497 m 128,-1,17
 330 524 330 524 337 563 c 0,18,19
 343 601 343 601 320.5 628 c 128,-1,20
 298 655 298 655 261 655 c 0,21,22
 223 655 223 655 192 628 c 128,-1,23
 161 601 161 601 155 563 c 0,24,25
 149 524 149 524 171.5 497 c 128,-1,26
 194 470 194 470 232 470 c 0,27,16
 269 470 269 470 299.5 497 c 128,-1,17
EndSplineSet
EndChar

StartChar: bar
Encoding: 124 124 527
Width: 263
Flags: W
LayerCount: 2
Fore
SplineSet
163 810 m 1,0,-1
 266 810 l 1,1,-1
 103 -220 l 1,2,-1
 0 -220 l 1,3,-1
 163 810 l 1,0,-1
EndSplineSet
EndChar

StartChar: brokenbar
Encoding: 166 166 528
Width: 263
Flags: W
LayerCount: 2
Fore
SplineSet
163 810 m 1,0,-1
 266 810 l 1,1,-1
 197 370 l 1,2,-1
 94 370 l 1,3,-1
 163 810 l 1,0,-1
70 220 m 1,4,-1
 173 220 l 1,5,-1
 103 -220 l 1,6,-1
 0 -220 l 1,7,-1
 70 220 l 1,4,-1
EndSplineSet
EndChar

StartChar: dagger
Encoding: 8224 8224 529
Width: 500
Flags: W
LayerCount: 2
Fore
SplineSet
222 430 m 1,0,-1
 49 430 l 1,1,-1
 63 520 l 1,2,-1
 236 520 l 1,3,-1
 270 730 l 1,4,-1
 372 730 l 1,5,-1
 339 520 l 1,6,-1
 513 520 l 1,7,-1
 498 430 l 1,8,-1
 325 430 l 1,9,-1
 239 -110 l 1,10,-1
 137 -110 l 1,11,-1
 222 430 l 1,0,-1
EndSplineSet
EndChar

StartChar: daggerdbl
Encoding: 8225 8225 530
Width: 520
Flags: W
LayerCount: 2
Fore
SplineSet
180 100 m 1,0,-1
 6 100 l 1,1,-1
 21 190 l 1,2,-1
 194 190 l 1,3,-1
 232 430 l 1,4,-1
 59 430 l 1,5,-1
 73 520 l 1,6,-1
 246 520 l 1,7,-1
 280 730 l 1,8,-1
 382 730 l 1,9,-1
 349 520 l 1,10,-1
 523 520 l 1,11,-1
 508 430 l 1,12,-1
 335 430 l 1,13,-1
 297 190 l 1,14,-1
 470 190 l 1,15,-1
 456 100 l 1,16,-1
 283 100 l 1,17,-1
 249 -110 l 1,18,-1
 147 -110 l 1,19,-1
 180 100 l 1,0,-1
EndSplineSet
EndChar

StartChar: uni2116
Encoding: 8470 8470 531
Width: 1160
GlyphClass: 2
Flags: W
AnchorPoint: "Anchor-1" 318 730 basechar 0
AnchorPoint: "Anchor-0" 318 0 basechar 0
LayerCount: 2
Fore
SplineSet
777.5 364.5 m 128,-1,1
 735 421 735 421 752 524 c 256,2,3
 768 627 768 627 828.5 683.5 c 128,-1,4
 889 740 889 740 984 740 c 256,5,6
 1079 740 1079 740 1121.5 683.5 c 128,-1,7
 1164 627 1164 627 1148 524 c 256,8,9
 1132 421 1132 421 1071.5 364.5 c 128,-1,10
 1011 308 1011 308 915 308 c 256,11,0
 820 308 820 308 777.5 364.5 c 128,-1,1
262 730 m 1,12,-1
 500 180 l 1,13,-1
 502 180 l 1,14,-1
 589 730 l 1,15,-1
 697 730 l 1,16,-1
 581 0 l 1,17,-1
 463 0 l 1,18,-1
 225 550 l 1,19,-1
 223 550 l 1,20,-1
 136 0 l 1,21,-1
 28 0 l 1,22,-1
 143 730 l 1,23,-1
 262 730 l 1,12,-1
1005.5 423.5 m 128,-1,25
 1036 458 1036 458 1047 524 c 256,26,27
 1057 590 1057 590 1037.5 624.5 c 128,-1,28
 1018 659 1018 659 971 659 c 256,29,30
 924 659 924 659 894 624.5 c 128,-1,31
 864 590 864 590 854 524 c 256,32,33
 844 458 844 458 862.5 423.5 c 128,-1,34
 881 389 881 389 928 389 c 256,35,24
 975 389 975 389 1005.5 423.5 c 128,-1,25
718 250 m 1,36,-1
 1094 250 l 1,37,-1
 1081 165 l 1,38,-1
 705 165 l 1,39,-1
 718 250 l 1,36,-1
EndSplineSet
Ligature2: "'ordn' Ordinals in Latin lookup 9 subtable" N o period
EndChar

StartChar: uni0308
Encoding: 776 776 534
Width: 26
GlyphClass: 4
Flags: W
AnchorPoint: "Anchor-10" -313 728 basemark 0
AnchorPoint: "Anchor-10" -313 520 mark 0
AnchorPoint: "Anchor-6" -313 520 mark 0
AnchorPoint: "Anchor-1" -313 520 mark 0
LayerCount: 2
Fore
SplineSet
-351 728 m 5,0,-1
 -227 728 l 5,1,-1
 -247 602 l 5,2,-1
 -371 602 l 5,3,-1
 -351 728 l 5,0,-1
-102 728 m 5,4,-1
 21 728 l 5,5,-1
 1 602 l 5,6,-1
 -122 602 l 5,7,-1
 -102 728 l 5,4,-1
EndSplineSet
EndChar

StartChar: uni0307
Encoding: 775 775 535
Width: 8
GlyphClass: 4
Flags: W
AnchorPoint: "Anchor-10" -136 728 basemark 0
AnchorPoint: "Anchor-10" -136 520 mark 0
AnchorPoint: "Anchor-6" -136 520 mark 0
AnchorPoint: "Anchor-1" -136 520 mark 0
LayerCount: 2
Fore
SplineSet
-70 728 m 1,0,-1
 54 728 l 1,1,-1
 34 602 l 1,2,-1
 -90 602 l 1,3,-1
 -70 728 l 1,0,-1
EndSplineSet
EndChar

StartChar: gravecomb
Encoding: 768 768 536
Width: 16
GlyphClass: 4
Flags: W
AnchorPoint: "Anchor-10" -265 520 mark 0
AnchorPoint: "Anchor-6" -265 520 mark 0
AnchorPoint: "Anchor-1" -265 520 mark 0
LayerCount: 2
Fore
SplineSet
-253 770 m 5,0,-1
 -116 770 l 5,1,-1
 -56 560 l 5,2,-1
 -164 560 l 5,3,-1
 -253 770 l 5,0,-1
EndSplineSet
EndChar

StartChar: acutecomb
Encoding: 769 769 537
Width: 16
GlyphClass: 4
Flags: W
AnchorPoint: "Anchor-10" -204 520 mark 0
AnchorPoint: "Anchor-6" -204 520 mark 0
AnchorPoint: "Anchor-1" -204 520 mark 0
LayerCount: 2
Fore
SplineSet
-84 560 m 1,0,-1
 -192 560 l 1,1,-1
 -66 770 l 1,2,-1
 72 770 l 1,3,-1
 -84 560 l 1,0,-1
EndSplineSet
EndChar

StartChar: uni0302
Encoding: 770 770 539
Width: 30
GlyphClass: 4
Flags: W
AnchorPoint: "Anchor-10" -340 520 mark 0
AnchorPoint: "Anchor-6" -340 520 mark 0
AnchorPoint: "Anchor-1" -340 520 mark 0
LayerCount: 2
Fore
SplineSet
-276 770 m 5,0,-1
 -86 770 l 5,1,-1
 3 560 l 5,2,-1
 -125 560 l 5,3,-1
 -187 720 l 5,4,-1
 -189 720 l 5,5,-1
 -303 560 l 5,6,-1
 -430 560 l 5,7,-1
 -276 770 l 5,0,-1
EndSplineSet
EndChar

StartChar: uni030C
Encoding: 780 780 540
Width: 30
GlyphClass: 4
Flags: W
AnchorPoint: "Anchor-10" -340 770 basemark 0
AnchorPoint: "Anchor-10" -340 520 mark 0
AnchorPoint: "Anchor-6" -340 520 mark 0
AnchorPoint: "Anchor-1" -340 520 mark 0
LayerCount: 2
Fore
SplineSet
-397 770 m 5,0,-1
 -270 770 l 5,1,-1
 -207 610 l 5,2,-1
 -205 610 l 5,3,-1
 -91 770 l 5,4,-1
 36 770 l 5,5,-1
 -120 560 l 5,6,-1
 -309 560 l 5,7,-1
 -397 770 l 5,0,-1
EndSplineSet
EndChar

StartChar: uni0306
Encoding: 774 774 541
Width: 28
GlyphClass: 4
Flags: W
AnchorPoint: "Anchor-10" -317 520 mark 0
AnchorPoint: "Anchor-6" -317 520 mark 0
AnchorPoint: "Anchor-1" -317 520 mark 0
LayerCount: 2
Fore
SplineSet
-289 594.5 m 132,-1,1
 -330 616 -330 616 -350.5 655 c 132,-1,2
 -371 694 -371 694 -366 743 c 5,3,-1
 -251 743 l 5,4,5
 -253 702 -253 702 -234.5 680.5 c 132,-1,6
 -216 659 -216 659 -178 659 c 260,7,8
 -141 659 -141 659 -115.5 680.5 c 132,-1,9
 -90 702 -90 702 -79 743 c 5,10,-1
 36 743 l 5,11,12
 25 694 25 694 -7.5 655 c 132,-1,13
 -40 616 -40 616 -88 594.5 c 132,-1,14
 -136 573 -136 573 -192 573 c 260,15,0
 -248 573 -248 573 -289 594.5 c 132,-1,1
EndSplineSet
EndChar

StartChar: uni030A
Encoding: 778 778 542
Width: 21
GlyphClass: 4
Flags: W
AnchorPoint: "Anchor-10" -268 730 basemark 0
AnchorPoint: "Anchor-10" -268 520 mark 0
AnchorPoint: "Anchor-6" -268 520 mark 0
AnchorPoint: "Anchor-1" -268 520 mark 0
LayerCount: 2
Fore
SplineSet
-230.5 535 m 132,-1,1
 -261 555 -261 555 -275 589.5 c 132,-1,2
 -289 624 -289 624 -283 665 c 260,3,4
 -277 706 -277 706 -251.5 740.5 c 132,-1,5
 -226 775 -226 775 -189 795 c 132,-1,6
 -152 815 -152 815 -112 815 c 260,7,8
 -72 815 -72 815 -41 795 c 132,-1,9
 -10 775 -10 775 4 740.5 c 132,-1,10
 18 706 18 706 11 665 c 260,11,12
 5 624 5 624 -20 589.5 c 132,-1,13
 -45 555 -45 555 -82 535 c 132,-1,14
 -119 515 -119 515 -159 515 c 260,15,0
 -200 515 -200 515 -230.5 535 c 132,-1,1
-95 615.5 m 132,-1,17
 -72 636 -72 636 -67 665 c 260,18,19
 -62 694 -62 694 -79 714.5 c 132,-1,20
 -96 735 -96 735 -125 735 c 260,21,22
 -153 735 -153 735 -176.5 714.5 c 132,-1,23
 -200 694 -200 694 -204 665 c 260,24,25
 -209 636 -209 636 -192 615.5 c 132,-1,26
 -175 595 -175 595 -147 595 c 260,27,16
 -118 595 -118 595 -95 615.5 c 132,-1,17
EndSplineSet
EndChar

StartChar: tildecomb
Encoding: 771 771 543
Width: 28
GlyphClass: 4
Flags: W
AnchorPoint: "Anchor-10" -328 753 basemark 0
AnchorPoint: "Anchor-10" -328 520 mark 0
AnchorPoint: "Anchor-6" -328 520 mark 0
AnchorPoint: "Anchor-1" -328 520 mark 0
LayerCount: 2
Fore
SplineSet
-141.5 586.5 m 132,-1,1
 -166 596 -166 596 -202 619 c 4,2,3
 -244 647 -244 647 -265 647 c 4,4,5
 -280 647 -280 647 -288.5 633.5 c 132,-1,6
 -297 620 -297 620 -303 587 c 5,7,-1
 -401 587 l 5,8,9
 -387 673 -387 673 -357.5 713 c 132,-1,10
 -328 753 -328 753 -280 753 c 4,11,12
 -256 753 -256 753 -231.5 743.5 c 132,-1,13
 -207 734 -207 734 -172 711 c 4,14,15
 -130 683 -130 683 -110 683 c 4,16,17
 -95 683 -95 683 -86 697 c 132,-1,18
 -77 711 -77 711 -72 743 c 5,19,-1
 26 743 l 5,20,21
 12 657 12 657 -17 617 c 132,-1,22
 -46 577 -46 577 -94 577 c 4,23,0
 -117 577 -117 577 -141.5 586.5 c 132,-1,1
EndSplineSet
EndChar

StartChar: uni0304
Encoding: 772 772 544
Width: 26
GlyphClass: 4
Flags: W
AnchorPoint: "Anchor-10" -312 708 basemark 0
AnchorPoint: "Anchor-10" -312 520 mark 0
AnchorPoint: "Anchor-6" -312 520 mark 0
AnchorPoint: "Anchor-1" -312 520 mark 0
LayerCount: 2
Fore
SplineSet
-352 708 m 5,0,-1
 18 708 l 5,1,-1
 4 622 l 5,2,-1
 -366 622 l 5,3,-1
 -352 708 l 5,0,-1
EndSplineSet
EndChar

StartChar: uni0305
Encoding: 773 773 545
Width: 42
GlyphClass: 4
Flags: W
LayerCount: 2
Fore
SplineSet
-451 885 m 1,0,-1
 137 885 l 1,1,-1
 124 800 l 1,2,-1
 -464 800 l 1,3,-1
 -451 885 l 1,0,-1
EndSplineSet
EndChar

StartChar: hookabovecomb
Encoding: 777 777 546
Width: 22
GlyphClass: 4
Flags: W
AnchorPoint: "Anchor-10" -233 773 basemark 0
AnchorPoint: "Anchor-10" -233 520 mark 0
AnchorPoint: "Anchor-6" -233 520 mark 0
AnchorPoint: "Anchor-1" -233 520 mark 0
LayerCount: 2
Fore
SplineSet
-69 616.5 m 128,-1,1
 -62 636 -62 636 -60 649 c 0,2,3
 -57 671 -57 671 -70 678.5 c 128,-1,4
 -83 686 -83 686 -121 686 c 0,5,6
 -184 686 -184 686 -245 668 c 1,7,-1
 -241 755 l 1,8,9
 -165 773 -165 773 -82 773 c 0,10,11
 -21 773 -21 773 11 765.5 c 128,-1,12
 43 758 43 758 54.5 740.5 c 128,-1,13
 66 723 66 723 61 690 c 0,14,15
 57 666 57 666 47 636 c 128,-1,16
 37 606 37 606 25 583 c 1,17,-1
 -83 583 l 1,18,0
 -76 597 -76 597 -69 616.5 c 128,-1,1
EndSplineSet
EndChar

StartChar: uni030F
Encoding: 783 783 547
Width: 32
GlyphClass: 4
Flags: W
AnchorPoint: "Anchor-10" -379 770 basemark 0
AnchorPoint: "Anchor-10" -379 520 mark 0
AnchorPoint: "Anchor-6" -379 520 mark 0
AnchorPoint: "Anchor-1" -379 520 mark 0
LayerCount: 2
Fore
SplineSet
-458 770 m 5,0,-1
 -321 770 l 5,1,-1
 -261 560 l 5,2,-1
 -369 560 l 5,3,-1
 -458 770 l 5,0,-1
-238 770 m 5,4,-1
 -100 770 l 5,5,-1
 -41 560 l 5,6,-1
 -148 560 l 5,7,-1
 -238 770 l 5,4,-1
EndSplineSet
EndChar

StartChar: uni0311
Encoding: 785 785 548
Width: 28
GlyphClass: 4
Flags: W
AnchorPoint: "Anchor-10" -317 757 basemark 0
AnchorPoint: "Anchor-10" -317 520 mark 0
AnchorPoint: "Anchor-6" -317 520 mark 0
AnchorPoint: "Anchor-1" -317 520 mark 0
LayerCount: 2
Fore
SplineSet
-66 735.5 m 132,-1,1
 -25 714 -25 714 -4.5 675 c 132,-1,2
 16 636 16 636 11 587 c 5,3,-1
 -103 587 l 5,4,5
 -101 628 -101 628 -120 649.5 c 132,-1,6
 -139 671 -139 671 -176 671 c 260,7,8
 -213 671 -213 671 -239 649.5 c 132,-1,9
 -265 628 -265 628 -276 587 c 5,10,-1
 -391 587 l 5,11,12
 -380 636 -380 636 -347.5 675 c 132,-1,13
 -315 714 -315 714 -267 735.5 c 132,-1,14
 -219 757 -219 757 -163 757 c 260,15,0
 -107 757 -107 757 -66 735.5 c 132,-1,1
EndSplineSet
EndChar

StartChar: uni0312
Encoding: 786 786 549
Width: 16
GlyphClass: 4
Flags: W
AnchorPoint: "Anchor-10" -203 770 basemark 0
AnchorPoint: "Anchor-10" -203 520 mark 0
AnchorPoint: "Anchor-6" -203 520 mark 0
AnchorPoint: "Anchor-1" -203 520 mark 0
LayerCount: 2
Fore
SplineSet
-51 770 m 1,0,-1
 57 770 l 1,1,-1
 -69 560 l 1,2,-1
 -207 560 l 1,3,-1
 -51 770 l 1,0,-1
EndSplineSet
EndChar

StartChar: uni031B
Encoding: 795 795 550
Width: 16
GlyphClass: 4
Flags: W
AnchorPoint: "Anchor-11" -104 770 basemark 0
AnchorPoint: "Anchor-11" -342 620 mark 0
AnchorPoint: "Anchor-7" -342 620 mark 0
AnchorPoint: "Anchor-3" -342 620 mark 0
LayerCount: 2
Fore
SplineSet
-247 533 m 1,1,-1
 -216 620 l 1,2,3
 -211 610 -211 610 -198.5 604 c 128,-1,4
 -186 598 -186 598 -170 598 c 0,5,6
 -145 598 -145 598 -128 615.5 c 128,-1,7
 -111 633 -111 633 -106 664 c 0,8,9
 -102 687 -102 687 -103.5 719 c 128,-1,10
 -105 751 -105 751 -110 770 c 1,11,-1
 1 770 l 1,12,13
 11 708 11 708 2 650 c 0,14,15
 -9 582 -9 582 -48 543.5 c 128,-1,16
 -87 505 -87 505 -147 505 c 0,17,0
 -197 505 -197 505 -247 533 c 1,1,-1
EndSplineSet
EndChar

StartChar: uni0326
Encoding: 806 806 553
Width: 16
GlyphClass: 4
Flags: W
AnchorPoint: "Anchor-10" -284 -290 mark 0
AnchorPoint: "Anchor-9" -266 -210 basemark 0
AnchorPoint: "Anchor-6" -284 -290 mark 0
AnchorPoint: "Anchor-1" -284 -290 mark 0
LayerCount: 2
Fore
SplineSet
-292 -250 m 5,0,-1
 -400 -250 l 5,1,-1
 -274 -40 l 5,2,-1
 -137 -40 l 5,3,-1
 -292 -250 l 5,0,-1
EndSplineSet
EndChar

StartChar: uni0327
Encoding: 807 807 554
Width: 19
GlyphClass: 4
Flags: W
AnchorPoint: "Anchor-8" -288 0 mark 0
LayerCount: 2
Fore
SplineSet
-378 -196 m 1,1,-1
 -348 -111 l 1,2,3
 -311 -130 -311 -130 -264 -130 c 0,4,5
 -232 -130 -232 -130 -213 -120.5 c 128,-1,6
 -194 -111 -194 -111 -191 -93 c 0,7,8
 -188 -73 -188 -73 -206.5 -48.5 c 128,-1,9
 -225 -24 -225 -24 -260 0 c 1,10,-1
 -160 24 l 1,11,12
 -83 -39 -83 -39 -94 -112 c 0,13,14
 -102 -162 -102 -162 -147.5 -189.5 c 128,-1,15
 -193 -217 -193 -217 -269 -217 c 0,16,0
 -331 -217 -331 -217 -378 -196 c 1,1,-1
EndSplineSet
EndChar

StartChar: uni0328
Encoding: 808 808 555
Width: 19
GlyphClass: 4
Flags: W
AnchorPoint: "Anchor-5" -190 0 mark 0
AnchorPoint: "Anchor-2" -190 0 mark 0
LayerCount: 2
Fore
SplineSet
-336 -189.5 m 128,-1,1
 -373 -162 -373 -162 -365 -112 c 0,2,3
 -353 -39 -353 -39 -256 24 c 1,4,-1
 -164 0 l 1,5,6
 -207 -24 -207 -24 -233 -48.5 c 128,-1,7
 -259 -73 -259 -73 -262 -93 c 0,8,9
 -265 -111 -265 -111 -249 -120.5 c 128,-1,10
 -233 -130 -233 -130 -201 -130 c 0,11,12
 -154 -130 -154 -130 -111 -111 c 1,13,-1
 -108 -196 l 1,14,15
 -161 -217 -161 -217 -224 -217 c 0,16,0
 -299 -217 -299 -217 -336 -189.5 c 128,-1,1
EndSplineSet
EndChar

StartChar: uni0370
Encoding: 880 880 571
Width: 563
Flags: W
LayerCount: 2
Fore
SplineSet
549 432 m 1,0,-1
 535 346 l 1,1,-1
 192 346 l 1,2,-1
 137 0 l 1,3,-1
 30 0 l 1,4,-1
 145 730 l 1,5,-1
 253 730 l 1,6,-1
 206 432 l 1,7,-1
 549 432 l 1,0,-1
EndSplineSet
EndChar

StartChar: uni0371
Encoding: 881 881 572
Width: 425
Flags: W
LayerCount: 2
Fore
SplineSet
393 317 m 1,0,-1
 380 237 l 1,1,-1
 152 237 l 1,2,-1
 115 0 l 1,3,-1
 21 0 l 1,4,-1
 103 520 l 1,5,-1
 197 520 l 1,6,-1
 165 317 l 1,7,-1
 393 317 l 1,0,-1
EndSplineSet
EndChar

StartChar: uni0372
Encoding: 882 882 573
Width: 691
Flags: W
CounterMasks: 1 38
LayerCount: 2
Fore
SplineSet
348 638 m 1,0,-1
 215 638 l 1,1,-1
 170 350 l 1,2,-1
 67 350 l 1,3,-1
 127 730 l 1,4,-1
 705 730 l 1,5,-1
 645 350 l 1,6,-1
 542 350 l 1,7,-1
 588 638 l 1,8,-1
 455 638 l 1,9,-1
 354 0 l 1,10,-1
 247 0 l 1,11,-1
 348 638 l 1,0,-1
EndSplineSet
EndChar

StartChar: uni0373
Encoding: 883 883 574
Width: 556
Flags: W
LayerCount: 2
Fore
SplineSet
289 650 m 1,0,-1
 194 650 l 1,1,-1
 163 450 l 1,2,-1
 78 450 l 1,3,-1
 122 730 l 1,4,-1
 576 730 l 1,5,-1
 531 450 l 1,6,-1
 447 450 l 1,7,-1
 478 650 l 1,8,-1
 383 650 l 1,9,-1
 280 0 l 1,10,-1
 186 0 l 1,11,-1
 289 650 l 1,0,-1
EndSplineSet
EndChar

